<mxfile host="app.diagrams.net" modified="2024-03-06T23:13:15.532Z" agent="Mozilla/5.0 (Windows NT 10.0; Win64; x64) AppleWebKit/537.36 (KHTML, like Gecko) Chrome/122.0.0.0 Safari/537.36" etag="c1l1gj0cUodgPcJNCLd4" version="24.0.2" type="github">
  <diagram name="Page-1" id="jTaHU-aSG4sZV-Lxqxrg">
    <mxGraphModel dx="2314" dy="2832" grid="1" gridSize="10" guides="1" tooltips="1" connect="1" arrows="1" fold="1" page="1" pageScale="1" pageWidth="1100" pageHeight="1700" math="0" shadow="0">
      <root>
        <mxCell id="0" />
        <mxCell id="1" parent="0" />
        <mxCell id="eBVV9pK7qPTeHkyAM80o-1" value="" style="group" vertex="1" connectable="0" parent="1">
          <mxGeometry x="180" y="390" width="560" height="320" as="geometry" />
        </mxCell>
        <mxCell id="eBVV9pK7qPTeHkyAM80o-2" value="" style="rounded=1;whiteSpace=wrap;html=1;fillColor=#C3D7EE;" vertex="1" parent="eBVV9pK7qPTeHkyAM80o-1">
          <mxGeometry x="90" y="-110" width="470" height="430" as="geometry" />
        </mxCell>
        <mxCell id="eBVV9pK7qPTeHkyAM80o-7" value="" style="group" vertex="1" connectable="0" parent="eBVV9pK7qPTeHkyAM80o-1">
          <mxGeometry x="413.44" y="110" width="80" height="80" as="geometry" />
        </mxCell>
        <mxCell id="eBVV9pK7qPTeHkyAM80o-8" value="&lt;b&gt;&lt;br&gt;&lt;br&gt;&lt;br&gt;&lt;br&gt;Dask Worker&lt;/b&gt;" style="rounded=1;whiteSpace=wrap;html=1;" vertex="1" parent="eBVV9pK7qPTeHkyAM80o-7">
          <mxGeometry width="80" height="80" as="geometry" />
        </mxCell>
        <mxCell id="eBVV9pK7qPTeHkyAM80o-9" value="" style="shape=image;verticalLabelPosition=bottom;labelBackgroundColor=default;verticalAlign=top;aspect=fixed;imageAspect=0;image=data:image/png,iVBORw0KGgoAAAANSUhEUgAAAPsAAAEsCAMAAAAy4DW3AAADAFBMVEVHcEz/whj/whj/whj/whj/whj/whj/whj/whj/whj/whj/whj/whj/whj/whj/whj/whj/whj/whj/whj/whj/whj/whj/whj/whj/whj/whj/whj/whj/whj/whj/whj/whj/whj/whj/whj/whj/whj/whj/whj/whj/whj/whj7ek3/whj/whj/whj/whj/whj/whj/whj/whj/whj/whj/whj/whj/whj/whj/whj/whj/whj/whj/whj/whj/whj/whj/whj/whj/whj/whj/whj/whj/whj/whj/whj/whj/whj8bmv8bmv8bmv8bmv8bmv8bmv8bmv8bmv8bmv8bmv8bmv8bmv8bmv8bmv8bmv8bmv8bmv8bmv8bmv8bmv8bmv8bmv8bmv8bmv8bmv8bmv8bmv8bmv8bmv8bmv8bmv8bmv/whj8bmv8bmv8bmv8bmv8bmv/whj8bmv8bmv8bmv8bmv8bmv8bmv/whj0MWT8bmv8bmv8bmv8bmv8bmv8bmv8bmv/whj8bmv8bmv8bmv8bmv8bmv8bmv/whj8bmv8bmv8bmv/whj8bmv8bmv8bmv/whj8bmv8bmv8bmv8bmv8bmv8bmv8bmv8bmv8bmv8bmv8bmv/whj8bmv/whjvCWHvCWHvCWHvCWH8bmvvCWHvCWHvCWHvCWHvCWHvCWHvCWHvCWHvCWHvCWHvCWHvCWHvCWHvCWHvCWHvCWHvCWH8bmvvCWHvCWHvCWHvCWHvCWH8bmv8bmvvCWHvCWHvCWHvCWHvCWHvCWHvCWHvCWHvCWH8bmvvCWHvCWH8bmvvCWHvCWHvCWHvCWHvCWHvCWHvCWHvCWHvCWH8bmvvCWHvCWHvCWHvCWH8bmvvCWHvCWHvCWHvCWH8bmvvCWHvCWHvCWHvCWHvCWHvCWH8bmvvCWHvCWHvCWHvCWHvCWHvCWHvCWHvCWHvCWH8bmvvCWH8bmvvCWHvCWHvCWHvCWHvCWH8bmvvCWHvCWHvCWHvCWHvCWHvCWHvCWHLF/0PAAABAHRSTlMAAi1posrYz6hzNwaO1fr//d2dPQQZeP7nexAOWsL38fuaKor2cBYJUb2CAe4g4OpHE0qykzGYBxxex0Cu9BgMVMA6I4dNujVgzCfkbQQgSmBiWTYMEU+j2O338+bFfC4KRbH1//7cdhWZ+a0lZBx62v22tV6pEwdBbx4CK4/NF9X7Z0NRwPCG30hX0FVp0jKdyYCS6Rlz+j6J1LuDZo0Q3gkZFwgaHlqcvcuTTxt50fn+//fIaRQ7EWD7tTiM4z6w9NdHLOl1v579fn8EqPDUKInmcmuWDEw1ng4ghOBlKAZKLpbt3TkPQ6uPVKMi47lsM6baDsNuztY72SUHiyaa7NV2tAAADSZJREFUeAHk1wOSQ2EABOEkz5zYtm2uef/zrM3i4p++wVduz6/k9UmyoqqabpiWhyqvz3Zc3OUPBENhInokqvrxVCyeSLLIU+lMFq/KyhEKuRXSc3hbvpAioBdL8RjeV64IL69Kjh8fpvrEltfqDRef1WwJLA+bchufp1WFlbc6zS6+qtcXlT6QND++LGaIKa8NR1l81zgsoNw7mfbwfYWZePR5NOAHpT21WOYBRnt4td4AjHZvcRwHKO1bQ42B0r7b288CjHbrQM8BlPbDo7gflPatpOUBRnvt+CQLMNq9p8EeQGm/O1VKe/LsPA9Ke60/2gCM9pZv3AMo7fOo6gelfZfO+AFGe3il5wBGu/fCvgQo7dVr5s1ByZIgiKIx9jQWY9u2bfNZObZt47219alrb64nq+r8QMeJ6NuVt6uq1U+W2Lm3tXd0dnV19/Sm8A96ItJU6dz7+gcGNVqtVqc3GE1tfIPegG+1ELmbLVYbfGJoeGSUa1NtCZCYuaeYxjRD8BXjE5O8zLOm8KZK5D49MzsH3zI0P8mpqS7EShIz995Fwxz8yNIyh6DnRaUGSMzcV1aXdIAxvsZcfT1Iwc1J3Dc2t/SAA9vtjLdaGov9JYmZ+87a7hz8jL19pkE/KC2TKKhNQYN+eDQOv2B+hV1Tjc7NCKAwl6vysCmuZ+AYfsngJCv1G17uskRBenIa8rjJk1P4DZozRgPseVUkhXhAhOrthAyw+xdD8Dtsl0z62jVPmqD719dVIOtax7wN/gA7g6A3x7SQmEc6WuORoN+6rYE/Yo1NUyUgIDCmBvm+t88MD4EY7hV19TSve4Qndn58ufPOOAB7d7KmiuAfdo4FfXXCBiCGe9rddJLXXXb3wk6Om+7dBxDDPWuqiSjouc7Iuvbg4eAciOF+PbM0XKKgLOcAuSZj7jY8AuDljhwKJMDfrTEYWdceLx0DCOGeUnhTITEPUIIKkcdNPtEDiOEeElrsT6KequYhQR9dezoHYrgXlJRG0AR9ITsBaar9z7QAYrhH+waSmMsOl2C0qWoAxHAv9/Ijaqq1NU4/Br39+ekciOGeUJlEFHTXaiToyy+2cXP27terXWmCHp5UiQR95WxeCyCEu9P7rRYCZL9WZIDdMI1pAMRwz3Jx0AywGS+jU7CtltMhEMM9Ibs+lqipliD/n191402Vg7tTnkrUVItDf99Uubq/Id8cgGTngyD+/2zb5rNt2zZOz7Zt42w7c7Zt27bvs7HZu53nnWxV0mXXr1Jd051OBl4zprlrT7+NBFh24OANtbUqYDcxNTUz7/TQh4yiuWs9+j6OGN3iFh5gadn3W1pZ29ja2trY2ZvuZzKNo2ktH/fpiRh994WTRxEIanYHRydnDv4W5+Lq5s7+0/GniZpqLyTAeiBTCz27p5erN/By8fHt8q/XP6K46N2/38cUtH+Dnz/OQMpuHhAYBB0VHMIYY13ee5WiqU7A3sBePL91rfDsoXZhHHRWcABjbPIlpZN/OX4cEmBX4k2Vmt00PJgDRBGWjD3xsrJj3KWpiNG7XI7EjU7LbmIVEQWooqIZG6pk9Clj0aklBp9aaNljA+Li4U5KCGXdlbupPjsaMfq8WXhTpWXfn5iUDHeWcwp7VZl3bdRILMCuWo1/K0TLbpbq5A13kw9T6tQyHLnoK9LwqYWWPT3DxgXurjDlsfd48XOGTC0aNEa/+/6+PzMrHu4lTlnsw4ZiTTV79rJ1awl1YxXDlJObx8G9pRz2jwcP+gCdWtaspdQpnZVYgM23jQIQiP2d194eiNy1Ar+lapTk605eQNALi3yCAIRi7/FZvzfv8lEgkY4e2XsTuejFJaUAQrF/uR1rqitP6N2mJFe7cXBDF6yplnEgFPurz2zEmmo531RJtGT9nt1MQRVWrs4AArG/0/37MQyZWk77k5LfXjZ7LmL0yqp4AKHYP3kSa6qaxw4dpSRXU9+8iSkqsToZQCj2L7/7dgRi9LPb1tAaPQ37TcgsJSEKhGJ/9aWvMKNf5qcWEq3ZdhYhT6+JcAYQin3Ki58/hjTV5Wdo79pVg13IXfOtjQcQiv3TUccRoxvtuEpKvvaMPvKfRJe6pHoAwdiH9R2INlXiABs5ZxoSYN1woxOxf/LeCOSvlutLSckX681fiRi9qCEIQDj2T6YOQJrqwq2U5Ft1GzGjN2WVAgjI/uW1bxSa6gXaprrWXwcLsHXRZVEgJPs7n32g0FSbT9Eafac2YnR3fmoRin1w5xBboEPbVG+fvIAE2NjKQBcAYdm7fss6SLPxPK3RF97ahDVVuzAAodlfH9Dhrp3QW0cbYK+v6IJNLS0cCM4+5Xkmp4JI4gC7eg9y11qt2lwABGPHH7vHVVqjX51phE0tVUEAKmDvOo7xKj9PG2CXY00VmVoEYh/cS663nKQkX3Tl8n7E6O1OHKiIfSzf3ab5qdGRr9t2djeyqdrbeAOoiP1luQOn7U/XVM8f00SbaimAytiN+8k9drKL7q+/AftKKjcPQIXsg9/i374fogqwC9Cmmv+DN6iUfTv/wmLOKaKmigVY8xBkahGYfSiTafZiAnK1H/ciRu/ShEwtgrP3ZTIZrFM++dKDBfvvPrWokN2Qkn0J2lQrrPCmKib2o8tmZ2NTC/9RoFjZt27RwJpqaHUYgMjZF6XhTTU4CkTOvmb12ZV3n1rEyn77ENpUf8KnFjGxq/01tWBvYJOSORA5+40rWIA1c3OKAhA3+zq9+UhTNbdvcAYQN/vWQxexptpkXQogbna1pTpIU2WWuWUAImdf0uyBNVUvW28QOfs6dGoxCcEDrKjY/TcfZgraH1pSyoHI2bfq7ZmGGD385ygAkbOv09qETi3eAGJnP5q26+5Ti3jZ12lpKv7VUl0PIAH2nQro7u3BHEiB/eoBhaZq4wIgBfZTJ/CmKgV2rY7V5ZfcegCJsKtfZnKqwKcWkbL7dXjotUEAkmG/Uc54JTYASIh9p1x/cfABKbHfbmQy/fpblKTYl85hMlWGgaTYr/KbU2wWSIu9mT/uv7dIjD2mC/tfXi4SY29kMuWCxNj5LF/4h8TY1WbwF876T/boQAgAAIBBoL/1BGbQZ/BX2N77zs7+Y2dnZ2dnZ2dnZ2dnZ2dnZ2dnZ2dnZ2dnZ2dnZ2dnZ2dnZ2dnZ2dnZ2dnZ2dnZ2dnZ2dnZ2dnZ2dnZ2dnZ2dnZ2dnZ2cfefWMWFEUBGD4j23btm1nL6lul5Spwh2EXbrbxlYdbSDcQOxnv37Ov4PvYCZPXXvmsLL2qrxURe0dWm0YStqTRsZSQUV7UmVpHwi0R3qlZ8UO+SDSHuhFnl9S3AUy7f4e5dnzfoUg035OS4cHevLiqA9S7XdUBLj/6MFx8SDW/gQh2a7l0RnTRSDXrl9CguZyrwUmNoNk+8s30BvoLK+qzwXR9o0T/qt2xHfUTTYh3L62yn9loVqmjTyytSUVhNsPdjFV4xeQmWSAJ0XOu/7osux3N1aLT0JxfUnAyEhJTvq4D9Lt+unbBHYVFSYkuN5qsuznv+Xbg3rnTBTH8d/95FpeY23brG3bNrO1jXRT27ZtG1O3k2dnvnfw+SPJeU5mvMAb5Fi3dwS2yeDSnpHU6gXwaJcimuIBHu1iY8OgCri0Fw0kk+XM2yOD+r0AHu1S8ZQPwKW9rK8E4NJeVJi2AC7tkdEBE4CS9ndGCtnncsMEKGu/qqqIPae9jSCnan/kbCooYI9Kz5IBZe2pTi8FULdLwQnxgLJ2/U9xvwG07VJjQT2grP253t//AtTtHbWjMpS1v7v6xA+gbs8YDvUClLXbqt1RAXW7NB0TCyhrf3D/3heAun2odEmAsnYtqz/rANp2sWhgVsal9v+D4+iGt18LoG5PzOuvwiXXbHvMH93S4jeAtj0xs9wbl95/LkfJr783+gLQtos5fSUCKPTk3eH3NRPtzwB1e0Z6TwuodOftQ3KPUl1fAtTtiYRJ9bIS3miRH2Cv/PMbqNvFzvAw0Ovp/UeEO7qLaR1A2y7mtI/KoNkdqwN/9JlvTwHq9qikrAVQ7s59h72TqlqzCqjbE6ebYkE/jduG77a/c/1Pjr8BtO3iUEM9FOm3Oz/1bFf5j244W/5fB1C3Fw3UyFAsjX90tc0+Or78DaBujwoKrcKvFdl++asWduxDiyUq4NJe1JtGljNvj5wMqAJ4tEurqxaAR7vYEdImgH07eVL1Ani0JxJWLZzYOwv8Afbt5FWLCri0Rw63+gI82hMjyJMq+3ZpqGEe4NJeNJDcAi7tUUHkVQv7drG4PBbg0l4WUqIC9u3kSVUGeLCTVy082qXxcH+AOXvgj+NbnVTBYC3LJ5hUCQ+wTNRw7LtCTfFgtISoI+mNDfUCWG1+7shJtUYGu8ntR5xqCfUF09U0kuVSRIUPGE8OjyTIxbLFJbBfd20i6VRLC3jIuzZqrzxqkjCpMlp8eJm4I5cyc73BT/Jsbae0IY/M7MuWwVUtybmF0+PjwQMxbSpQohX3Hg89GiSf9gAAAABJRU5ErkJggg==;" vertex="1" parent="eBVV9pK7qPTeHkyAM80o-7">
          <mxGeometry x="19.080000000000013" y="10" width="41.83" height="50" as="geometry" />
        </mxCell>
        <mxCell id="eBVV9pK7qPTeHkyAM80o-10" value="" style="group" vertex="1" connectable="0" parent="eBVV9pK7qPTeHkyAM80o-1">
          <mxGeometry x="333.44" y="210" width="80" height="80" as="geometry" />
        </mxCell>
        <mxCell id="eBVV9pK7qPTeHkyAM80o-11" value="&lt;b&gt;&lt;br&gt;&lt;br&gt;&lt;br&gt;&lt;br&gt;Dask Worker&lt;/b&gt;" style="rounded=1;whiteSpace=wrap;html=1;" vertex="1" parent="eBVV9pK7qPTeHkyAM80o-10">
          <mxGeometry width="80" height="80" as="geometry" />
        </mxCell>
        <mxCell id="eBVV9pK7qPTeHkyAM80o-12" value="" style="shape=image;verticalLabelPosition=bottom;labelBackgroundColor=default;verticalAlign=top;aspect=fixed;imageAspect=0;image=data:image/png,iVBORw0KGgoAAAANSUhEUgAAAPsAAAEsCAMAAAAy4DW3AAADAFBMVEVHcEz/whj/whj/whj/whj/whj/whj/whj/whj/whj/whj/whj/whj/whj/whj/whj/whj/whj/whj/whj/whj/whj/whj/whj/whj/whj/whj/whj/whj/whj/whj/whj/whj/whj/whj/whj/whj/whj/whj/whj/whj/whj/whj7ek3/whj/whj/whj/whj/whj/whj/whj/whj/whj/whj/whj/whj/whj/whj/whj/whj/whj/whj/whj/whj/whj/whj/whj/whj/whj/whj/whj/whj/whj/whj/whj/whj/whj8bmv8bmv8bmv8bmv8bmv8bmv8bmv8bmv8bmv8bmv8bmv8bmv8bmv8bmv8bmv8bmv8bmv8bmv8bmv8bmv8bmv8bmv8bmv8bmv8bmv8bmv8bmv8bmv8bmv8bmv8bmv8bmv/whj8bmv8bmv8bmv8bmv8bmv/whj8bmv8bmv8bmv8bmv8bmv8bmv/whj0MWT8bmv8bmv8bmv8bmv8bmv8bmv8bmv/whj8bmv8bmv8bmv8bmv8bmv8bmv/whj8bmv8bmv8bmv/whj8bmv8bmv8bmv/whj8bmv8bmv8bmv8bmv8bmv8bmv8bmv8bmv8bmv8bmv8bmv/whj8bmv/whjvCWHvCWHvCWHvCWH8bmvvCWHvCWHvCWHvCWHvCWHvCWHvCWHvCWHvCWHvCWHvCWHvCWHvCWHvCWHvCWHvCWHvCWH8bmvvCWHvCWHvCWHvCWHvCWH8bmv8bmvvCWHvCWHvCWHvCWHvCWHvCWHvCWHvCWHvCWH8bmvvCWHvCWH8bmvvCWHvCWHvCWHvCWHvCWHvCWHvCWHvCWHvCWH8bmvvCWHvCWHvCWHvCWH8bmvvCWHvCWHvCWHvCWH8bmvvCWHvCWHvCWHvCWHvCWHvCWH8bmvvCWHvCWHvCWHvCWHvCWHvCWHvCWHvCWHvCWH8bmvvCWH8bmvvCWHvCWHvCWHvCWHvCWH8bmvvCWHvCWHvCWHvCWHvCWHvCWHvCWHLF/0PAAABAHRSTlMAAi1posrYz6hzNwaO1fr//d2dPQQZeP7nexAOWsL38fuaKor2cBYJUb2CAe4g4OpHE0qykzGYBxxex0Cu9BgMVMA6I4dNujVgzCfkbQQgSmBiWTYMEU+j2O338+bFfC4KRbH1//7cdhWZ+a0lZBx62v22tV6pEwdBbx4CK4/NF9X7Z0NRwPCG30hX0FVp0jKdyYCS6Rlz+j6J1LuDZo0Q3gkZFwgaHlqcvcuTTxt50fn+//fIaRQ7EWD7tTiM4z6w9NdHLOl1v579fn8EqPDUKInmcmuWDEw1ng4ghOBlKAZKLpbt3TkPQ6uPVKMi47lsM6baDsNuztY72SUHiyaa7NV2tAAADSZJREFUeAHk1wOSQ2EABOEkz5zYtm2uef/zrM3i4p++wVduz6/k9UmyoqqabpiWhyqvz3Zc3OUPBENhInokqvrxVCyeSLLIU+lMFq/KyhEKuRXSc3hbvpAioBdL8RjeV64IL69Kjh8fpvrEltfqDRef1WwJLA+bchufp1WFlbc6zS6+qtcXlT6QND++LGaIKa8NR1l81zgsoNw7mfbwfYWZePR5NOAHpT21WOYBRnt4td4AjHZvcRwHKO1bQ42B0r7b288CjHbrQM8BlPbDo7gflPatpOUBRnvt+CQLMNq9p8EeQGm/O1VKe/LsPA9Ke60/2gCM9pZv3AMo7fOo6gelfZfO+AFGe3il5wBGu/fCvgQo7dVr5s1ByZIgiKIx9jQWY9u2bfNZObZt47219alrb64nq+r8QMeJ6NuVt6uq1U+W2Lm3tXd0dnV19/Sm8A96ItJU6dz7+gcGNVqtVqc3GE1tfIPegG+1ELmbLVYbfGJoeGSUa1NtCZCYuaeYxjRD8BXjE5O8zLOm8KZK5D49MzsH3zI0P8mpqS7EShIz995Fwxz8yNIyh6DnRaUGSMzcV1aXdIAxvsZcfT1Iwc1J3Dc2t/SAA9vtjLdaGov9JYmZ+87a7hz8jL19pkE/KC2TKKhNQYN+eDQOv2B+hV1Tjc7NCKAwl6vysCmuZ+AYfsngJCv1G17uskRBenIa8rjJk1P4DZozRgPseVUkhXhAhOrthAyw+xdD8Dtsl0z62jVPmqD719dVIOtax7wN/gA7g6A3x7SQmEc6WuORoN+6rYE/Yo1NUyUgIDCmBvm+t88MD4EY7hV19TSve4Qndn58ufPOOAB7d7KmiuAfdo4FfXXCBiCGe9rddJLXXXb3wk6Om+7dBxDDPWuqiSjouc7Iuvbg4eAciOF+PbM0XKKgLOcAuSZj7jY8AuDljhwKJMDfrTEYWdceLx0DCOGeUnhTITEPUIIKkcdNPtEDiOEeElrsT6KequYhQR9dezoHYrgXlJRG0AR9ITsBaar9z7QAYrhH+waSmMsOl2C0qWoAxHAv9/Ijaqq1NU4/Br39+ekciOGeUJlEFHTXaiToyy+2cXP27terXWmCHp5UiQR95WxeCyCEu9P7rRYCZL9WZIDdMI1pAMRwz3Jx0AywGS+jU7CtltMhEMM9Ibs+lqipliD/n191402Vg7tTnkrUVItDf99Uubq/Id8cgGTngyD+/2zb5rNt2zZOz7Zt42w7c7Zt27bvs7HZu53nnWxV0mXXr1Jd051OBl4zprlrT7+NBFh24OANtbUqYDcxNTUz7/TQh4yiuWs9+j6OGN3iFh5gadn3W1pZ29ja2trY2ZvuZzKNo2ktH/fpiRh994WTRxEIanYHRydnDv4W5+Lq5s7+0/GniZpqLyTAeiBTCz27p5erN/By8fHt8q/XP6K46N2/38cUtH+Dnz/OQMpuHhAYBB0VHMIYY13ee5WiqU7A3sBePL91rfDsoXZhHHRWcABjbPIlpZN/OX4cEmBX4k2Vmt00PJgDRBGWjD3xsrJj3KWpiNG7XI7EjU7LbmIVEQWooqIZG6pk9Clj0aklBp9aaNljA+Li4U5KCGXdlbupPjsaMfq8WXhTpWXfn5iUDHeWcwp7VZl3bdRILMCuWo1/K0TLbpbq5A13kw9T6tQyHLnoK9LwqYWWPT3DxgXurjDlsfd48XOGTC0aNEa/+/6+PzMrHu4lTlnsw4ZiTTV79rJ1awl1YxXDlJObx8G9pRz2jwcP+gCdWtaspdQpnZVYgM23jQIQiP2d194eiNy1Ar+lapTk605eQNALi3yCAIRi7/FZvzfv8lEgkY4e2XsTuejFJaUAQrF/uR1rqitP6N2mJFe7cXBDF6yplnEgFPurz2zEmmo531RJtGT9nt1MQRVWrs4AArG/0/37MQyZWk77k5LfXjZ7LmL0yqp4AKHYP3kSa6qaxw4dpSRXU9+8iSkqsToZQCj2L7/7dgRi9LPb1tAaPQ37TcgsJSEKhGJ/9aWvMKNf5qcWEq3ZdhYhT6+JcAYQin3Ki58/hjTV5Wdo79pVg13IXfOtjQcQiv3TUccRoxvtuEpKvvaMPvKfRJe6pHoAwdiH9R2INlXiABs5ZxoSYN1woxOxf/LeCOSvlutLSckX681fiRi9qCEIQDj2T6YOQJrqwq2U5Ft1GzGjN2WVAgjI/uW1bxSa6gXaprrWXwcLsHXRZVEgJPs7n32g0FSbT9Eafac2YnR3fmoRin1w5xBboEPbVG+fvIAE2NjKQBcAYdm7fss6SLPxPK3RF97ahDVVuzAAodlfH9Dhrp3QW0cbYK+v6IJNLS0cCM4+5Xkmp4JI4gC7eg9y11qt2lwABGPHH7vHVVqjX51phE0tVUEAKmDvOo7xKj9PG2CXY00VmVoEYh/cS663nKQkX3Tl8n7E6O1OHKiIfSzf3ab5qdGRr9t2djeyqdrbeAOoiP1luQOn7U/XVM8f00SbaimAytiN+8k9drKL7q+/AftKKjcPQIXsg9/i374fogqwC9Cmmv+DN6iUfTv/wmLOKaKmigVY8xBkahGYfSiTafZiAnK1H/ciRu/ShEwtgrP3ZTIZrFM++dKDBfvvPrWokN2Qkn0J2lQrrPCmKib2o8tmZ2NTC/9RoFjZt27RwJpqaHUYgMjZF6XhTTU4CkTOvmb12ZV3n1rEyn77ENpUf8KnFjGxq/01tWBvYJOSORA5+40rWIA1c3OKAhA3+zq9+UhTNbdvcAYQN/vWQxexptpkXQogbna1pTpIU2WWuWUAImdf0uyBNVUvW28QOfs6dGoxCcEDrKjY/TcfZgraH1pSyoHI2bfq7ZmGGD385ygAkbOv09qETi3eAGJnP5q26+5Ti3jZ12lpKv7VUl0PIAH2nQro7u3BHEiB/eoBhaZq4wIgBfZTJ/CmKgV2rY7V5ZfcegCJsKtfZnKqwKcWkbL7dXjotUEAkmG/Uc54JTYASIh9p1x/cfABKbHfbmQy/fpblKTYl85hMlWGgaTYr/KbU2wWSIu9mT/uv7dIjD2mC/tfXi4SY29kMuWCxNj5LF/4h8TY1WbwF876T/boQAgAAIBBoL/1BGbQZ/BX2N77zs7+Y2dnZ2dnZ2dnZ2dnZ2dnZ2dnZ2dnZ2dnZ2dnZ2dnZ2dnZ2dnZ2dnZ2dnZ2dnZ2dnZ2dnZ2dnZ2dnZ2dnZ2dnZ2dnZ2cfefWMWFEUBGD4j23btm1nL6lul5Spwh2EXbrbxlYdbSDcQOxnv37Ov4PvYCZPXXvmsLL2qrxURe0dWm0YStqTRsZSQUV7UmVpHwi0R3qlZ8UO+SDSHuhFnl9S3AUy7f4e5dnzfoUg035OS4cHevLiqA9S7XdUBLj/6MFx8SDW/gQh2a7l0RnTRSDXrl9CguZyrwUmNoNk+8s30BvoLK+qzwXR9o0T/qt2xHfUTTYh3L62yn9loVqmjTyytSUVhNsPdjFV4xeQmWSAJ0XOu/7osux3N1aLT0JxfUnAyEhJTvq4D9Lt+unbBHYVFSYkuN5qsuznv+Xbg3rnTBTH8d/95FpeY23brG3bNrO1jXRT27ZtG1O3k2dnvnfw+SPJeU5mvMAb5Fi3dwS2yeDSnpHU6gXwaJcimuIBHu1iY8OgCri0Fw0kk+XM2yOD+r0AHu1S8ZQPwKW9rK8E4NJeVJi2AC7tkdEBE4CS9ndGCtnncsMEKGu/qqqIPae9jSCnan/kbCooYI9Kz5IBZe2pTi8FULdLwQnxgLJ2/U9xvwG07VJjQT2grP253t//AtTtHbWjMpS1v7v6xA+gbs8YDvUClLXbqt1RAXW7NB0TCyhrf3D/3heAun2odEmAsnYtqz/rANp2sWhgVsal9v+D4+iGt18LoG5PzOuvwiXXbHvMH93S4jeAtj0xs9wbl95/LkfJr783+gLQtos5fSUCKPTk3eH3NRPtzwB1e0Z6TwuodOftQ3KPUl1fAtTtiYRJ9bIS3miRH2Cv/PMbqNvFzvAw0Ovp/UeEO7qLaR1A2y7mtI/KoNkdqwN/9JlvTwHq9qikrAVQ7s59h72TqlqzCqjbE6ebYkE/jduG77a/c/1Pjr8BtO3iUEM9FOm3Oz/1bFf5j244W/5fB1C3Fw3UyFAsjX90tc0+Or78DaBujwoKrcKvFdl++asWduxDiyUq4NJe1JtGljNvj5wMqAJ4tEurqxaAR7vYEdImgH07eVL1Ani0JxJWLZzYOwv8Afbt5FWLCri0Rw63+gI82hMjyJMq+3ZpqGEe4NJeNJDcAi7tUUHkVQv7drG4PBbg0l4WUqIC9u3kSVUGeLCTVy082qXxcH+AOXvgj+NbnVTBYC3LJ5hUCQ+wTNRw7LtCTfFgtISoI+mNDfUCWG1+7shJtUYGu8ntR5xqCfUF09U0kuVSRIUPGE8OjyTIxbLFJbBfd20i6VRLC3jIuzZqrzxqkjCpMlp8eJm4I5cyc73BT/Jsbae0IY/M7MuWwVUtybmF0+PjwQMxbSpQohX3Hg89GiSf9gAAAABJRU5ErkJggg==;" vertex="1" parent="eBVV9pK7qPTeHkyAM80o-10">
          <mxGeometry x="19.080000000000013" y="10" width="41.83" height="50" as="geometry" />
        </mxCell>
        <mxCell id="eBVV9pK7qPTeHkyAM80o-13" value="" style="group" vertex="1" connectable="0" parent="eBVV9pK7qPTeHkyAM80o-1">
          <mxGeometry x="230" y="210" width="80" height="80" as="geometry" />
        </mxCell>
        <mxCell id="eBVV9pK7qPTeHkyAM80o-14" value="&lt;b&gt;&lt;br&gt;&lt;br&gt;&lt;br&gt;&lt;br&gt;Dask Worker&lt;/b&gt;" style="rounded=1;whiteSpace=wrap;html=1;" vertex="1" parent="eBVV9pK7qPTeHkyAM80o-13">
          <mxGeometry width="80" height="80" as="geometry" />
        </mxCell>
        <mxCell id="eBVV9pK7qPTeHkyAM80o-15" value="" style="shape=image;verticalLabelPosition=bottom;labelBackgroundColor=default;verticalAlign=top;aspect=fixed;imageAspect=0;image=data:image/png,iVBORw0KGgoAAAANSUhEUgAAAPsAAAEsCAMAAAAy4DW3AAADAFBMVEVHcEz/whj/whj/whj/whj/whj/whj/whj/whj/whj/whj/whj/whj/whj/whj/whj/whj/whj/whj/whj/whj/whj/whj/whj/whj/whj/whj/whj/whj/whj/whj/whj/whj/whj/whj/whj/whj/whj/whj/whj/whj/whj/whj7ek3/whj/whj/whj/whj/whj/whj/whj/whj/whj/whj/whj/whj/whj/whj/whj/whj/whj/whj/whj/whj/whj/whj/whj/whj/whj/whj/whj/whj/whj/whj/whj/whj/whj8bmv8bmv8bmv8bmv8bmv8bmv8bmv8bmv8bmv8bmv8bmv8bmv8bmv8bmv8bmv8bmv8bmv8bmv8bmv8bmv8bmv8bmv8bmv8bmv8bmv8bmv8bmv8bmv8bmv8bmv8bmv8bmv/whj8bmv8bmv8bmv8bmv8bmv/whj8bmv8bmv8bmv8bmv8bmv8bmv/whj0MWT8bmv8bmv8bmv8bmv8bmv8bmv8bmv/whj8bmv8bmv8bmv8bmv8bmv8bmv/whj8bmv8bmv8bmv/whj8bmv8bmv8bmv/whj8bmv8bmv8bmv8bmv8bmv8bmv8bmv8bmv8bmv8bmv8bmv/whj8bmv/whjvCWHvCWHvCWHvCWH8bmvvCWHvCWHvCWHvCWHvCWHvCWHvCWHvCWHvCWHvCWHvCWHvCWHvCWHvCWHvCWHvCWHvCWH8bmvvCWHvCWHvCWHvCWHvCWH8bmv8bmvvCWHvCWHvCWHvCWHvCWHvCWHvCWHvCWHvCWH8bmvvCWHvCWH8bmvvCWHvCWHvCWHvCWHvCWHvCWHvCWHvCWHvCWH8bmvvCWHvCWHvCWHvCWH8bmvvCWHvCWHvCWHvCWH8bmvvCWHvCWHvCWHvCWHvCWHvCWH8bmvvCWHvCWHvCWHvCWHvCWHvCWHvCWHvCWHvCWH8bmvvCWH8bmvvCWHvCWHvCWHvCWHvCWH8bmvvCWHvCWHvCWHvCWHvCWHvCWHvCWHLF/0PAAABAHRSTlMAAi1posrYz6hzNwaO1fr//d2dPQQZeP7nexAOWsL38fuaKor2cBYJUb2CAe4g4OpHE0qykzGYBxxex0Cu9BgMVMA6I4dNujVgzCfkbQQgSmBiWTYMEU+j2O338+bFfC4KRbH1//7cdhWZ+a0lZBx62v22tV6pEwdBbx4CK4/NF9X7Z0NRwPCG30hX0FVp0jKdyYCS6Rlz+j6J1LuDZo0Q3gkZFwgaHlqcvcuTTxt50fn+//fIaRQ7EWD7tTiM4z6w9NdHLOl1v579fn8EqPDUKInmcmuWDEw1ng4ghOBlKAZKLpbt3TkPQ6uPVKMi47lsM6baDsNuztY72SUHiyaa7NV2tAAADSZJREFUeAHk1wOSQ2EABOEkz5zYtm2uef/zrM3i4p++wVduz6/k9UmyoqqabpiWhyqvz3Zc3OUPBENhInokqvrxVCyeSLLIU+lMFq/KyhEKuRXSc3hbvpAioBdL8RjeV64IL69Kjh8fpvrEltfqDRef1WwJLA+bchufp1WFlbc6zS6+qtcXlT6QND++LGaIKa8NR1l81zgsoNw7mfbwfYWZePR5NOAHpT21WOYBRnt4td4AjHZvcRwHKO1bQ42B0r7b288CjHbrQM8BlPbDo7gflPatpOUBRnvt+CQLMNq9p8EeQGm/O1VKe/LsPA9Ke60/2gCM9pZv3AMo7fOo6gelfZfO+AFGe3il5wBGu/fCvgQo7dVr5s1ByZIgiKIx9jQWY9u2bfNZObZt47219alrb64nq+r8QMeJ6NuVt6uq1U+W2Lm3tXd0dnV19/Sm8A96ItJU6dz7+gcGNVqtVqc3GE1tfIPegG+1ELmbLVYbfGJoeGSUa1NtCZCYuaeYxjRD8BXjE5O8zLOm8KZK5D49MzsH3zI0P8mpqS7EShIz995Fwxz8yNIyh6DnRaUGSMzcV1aXdIAxvsZcfT1Iwc1J3Dc2t/SAA9vtjLdaGov9JYmZ+87a7hz8jL19pkE/KC2TKKhNQYN+eDQOv2B+hV1Tjc7NCKAwl6vysCmuZ+AYfsngJCv1G17uskRBenIa8rjJk1P4DZozRgPseVUkhXhAhOrthAyw+xdD8Dtsl0z62jVPmqD719dVIOtax7wN/gA7g6A3x7SQmEc6WuORoN+6rYE/Yo1NUyUgIDCmBvm+t88MD4EY7hV19TSve4Qndn58ufPOOAB7d7KmiuAfdo4FfXXCBiCGe9rddJLXXXb3wk6Om+7dBxDDPWuqiSjouc7Iuvbg4eAciOF+PbM0XKKgLOcAuSZj7jY8AuDljhwKJMDfrTEYWdceLx0DCOGeUnhTITEPUIIKkcdNPtEDiOEeElrsT6KequYhQR9dezoHYrgXlJRG0AR9ITsBaar9z7QAYrhH+waSmMsOl2C0qWoAxHAv9/Ijaqq1NU4/Br39+ekciOGeUJlEFHTXaiToyy+2cXP27terXWmCHp5UiQR95WxeCyCEu9P7rRYCZL9WZIDdMI1pAMRwz3Jx0AywGS+jU7CtltMhEMM9Ibs+lqipliD/n191402Vg7tTnkrUVItDf99Uubq/Id8cgGTngyD+/2zb5rNt2zZOz7Zt42w7c7Zt27bvs7HZu53nnWxV0mXXr1Jd051OBl4zprlrT7+NBFh24OANtbUqYDcxNTUz7/TQh4yiuWs9+j6OGN3iFh5gadn3W1pZ29ja2trY2ZvuZzKNo2ktH/fpiRh994WTRxEIanYHRydnDv4W5+Lq5s7+0/GniZpqLyTAeiBTCz27p5erN/By8fHt8q/XP6K46N2/38cUtH+Dnz/OQMpuHhAYBB0VHMIYY13ee5WiqU7A3sBePL91rfDsoXZhHHRWcABjbPIlpZN/OX4cEmBX4k2Vmt00PJgDRBGWjD3xsrJj3KWpiNG7XI7EjU7LbmIVEQWooqIZG6pk9Clj0aklBp9aaNljA+Li4U5KCGXdlbupPjsaMfq8WXhTpWXfn5iUDHeWcwp7VZl3bdRILMCuWo1/K0TLbpbq5A13kw9T6tQyHLnoK9LwqYWWPT3DxgXurjDlsfd48XOGTC0aNEa/+/6+PzMrHu4lTlnsw4ZiTTV79rJ1awl1YxXDlJObx8G9pRz2jwcP+gCdWtaspdQpnZVYgM23jQIQiP2d194eiNy1Ar+lapTk605eQNALi3yCAIRi7/FZvzfv8lEgkY4e2XsTuejFJaUAQrF/uR1rqitP6N2mJFe7cXBDF6yplnEgFPurz2zEmmo531RJtGT9nt1MQRVWrs4AArG/0/37MQyZWk77k5LfXjZ7LmL0yqp4AKHYP3kSa6qaxw4dpSRXU9+8iSkqsToZQCj2L7/7dgRi9LPb1tAaPQ37TcgsJSEKhGJ/9aWvMKNf5qcWEq3ZdhYhT6+JcAYQin3Ki58/hjTV5Wdo79pVg13IXfOtjQcQiv3TUccRoxvtuEpKvvaMPvKfRJe6pHoAwdiH9R2INlXiABs5ZxoSYN1woxOxf/LeCOSvlutLSckX681fiRi9qCEIQDj2T6YOQJrqwq2U5Ft1GzGjN2WVAgjI/uW1bxSa6gXaprrWXwcLsHXRZVEgJPs7n32g0FSbT9Eafac2YnR3fmoRin1w5xBboEPbVG+fvIAE2NjKQBcAYdm7fss6SLPxPK3RF97ahDVVuzAAodlfH9Dhrp3QW0cbYK+v6IJNLS0cCM4+5Xkmp4JI4gC7eg9y11qt2lwABGPHH7vHVVqjX51phE0tVUEAKmDvOo7xKj9PG2CXY00VmVoEYh/cS663nKQkX3Tl8n7E6O1OHKiIfSzf3ab5qdGRr9t2djeyqdrbeAOoiP1luQOn7U/XVM8f00SbaimAytiN+8k9drKL7q+/AftKKjcPQIXsg9/i374fogqwC9Cmmv+DN6iUfTv/wmLOKaKmigVY8xBkahGYfSiTafZiAnK1H/ciRu/ShEwtgrP3ZTIZrFM++dKDBfvvPrWokN2Qkn0J2lQrrPCmKib2o8tmZ2NTC/9RoFjZt27RwJpqaHUYgMjZF6XhTTU4CkTOvmb12ZV3n1rEyn77ENpUf8KnFjGxq/01tWBvYJOSORA5+40rWIA1c3OKAhA3+zq9+UhTNbdvcAYQN/vWQxexptpkXQogbna1pTpIU2WWuWUAImdf0uyBNVUvW28QOfs6dGoxCcEDrKjY/TcfZgraH1pSyoHI2bfq7ZmGGD385ygAkbOv09qETi3eAGJnP5q26+5Ti3jZ12lpKv7VUl0PIAH2nQro7u3BHEiB/eoBhaZq4wIgBfZTJ/CmKgV2rY7V5ZfcegCJsKtfZnKqwKcWkbL7dXjotUEAkmG/Uc54JTYASIh9p1x/cfABKbHfbmQy/fpblKTYl85hMlWGgaTYr/KbU2wWSIu9mT/uv7dIjD2mC/tfXi4SY29kMuWCxNj5LF/4h8TY1WbwF876T/boQAgAAIBBoL/1BGbQZ/BX2N77zs7+Y2dnZ2dnZ2dnZ2dnZ2dnZ2dnZ2dnZ2dnZ2dnZ2dnZ2dnZ2dnZ2dnZ2dnZ2dnZ2dnZ2dnZ2dnZ2dnZ2dnZ2dnZ2dnZ2cfefWMWFEUBGD4j23btm1nL6lul5Spwh2EXbrbxlYdbSDcQOxnv37Ov4PvYCZPXXvmsLL2qrxURe0dWm0YStqTRsZSQUV7UmVpHwi0R3qlZ8UO+SDSHuhFnl9S3AUy7f4e5dnzfoUg035OS4cHevLiqA9S7XdUBLj/6MFx8SDW/gQh2a7l0RnTRSDXrl9CguZyrwUmNoNk+8s30BvoLK+qzwXR9o0T/qt2xHfUTTYh3L62yn9loVqmjTyytSUVhNsPdjFV4xeQmWSAJ0XOu/7osux3N1aLT0JxfUnAyEhJTvq4D9Lt+unbBHYVFSYkuN5qsuznv+Xbg3rnTBTH8d/95FpeY23brG3bNrO1jXRT27ZtG1O3k2dnvnfw+SPJeU5mvMAb5Fi3dwS2yeDSnpHU6gXwaJcimuIBHu1iY8OgCri0Fw0kk+XM2yOD+r0AHu1S8ZQPwKW9rK8E4NJeVJi2AC7tkdEBE4CS9ndGCtnncsMEKGu/qqqIPae9jSCnan/kbCooYI9Kz5IBZe2pTi8FULdLwQnxgLJ2/U9xvwG07VJjQT2grP253t//AtTtHbWjMpS1v7v6xA+gbs8YDvUClLXbqt1RAXW7NB0TCyhrf3D/3heAun2odEmAsnYtqz/rANp2sWhgVsal9v+D4+iGt18LoG5PzOuvwiXXbHvMH93S4jeAtj0xs9wbl95/LkfJr783+gLQtos5fSUCKPTk3eH3NRPtzwB1e0Z6TwuodOftQ3KPUl1fAtTtiYRJ9bIS3miRH2Cv/PMbqNvFzvAw0Ovp/UeEO7qLaR1A2y7mtI/KoNkdqwN/9JlvTwHq9qikrAVQ7s59h72TqlqzCqjbE6ebYkE/jduG77a/c/1Pjr8BtO3iUEM9FOm3Oz/1bFf5j244W/5fB1C3Fw3UyFAsjX90tc0+Or78DaBujwoKrcKvFdl++asWduxDiyUq4NJe1JtGljNvj5wMqAJ4tEurqxaAR7vYEdImgH07eVL1Ani0JxJWLZzYOwv8Afbt5FWLCri0Rw63+gI82hMjyJMq+3ZpqGEe4NJeNJDcAi7tUUHkVQv7drG4PBbg0l4WUqIC9u3kSVUGeLCTVy082qXxcH+AOXvgj+NbnVTBYC3LJ5hUCQ+wTNRw7LtCTfFgtISoI+mNDfUCWG1+7shJtUYGu8ntR5xqCfUF09U0kuVSRIUPGE8OjyTIxbLFJbBfd20i6VRLC3jIuzZqrzxqkjCpMlp8eJm4I5cyc73BT/Jsbae0IY/M7MuWwVUtybmF0+PjwQMxbSpQohX3Hg89GiSf9gAAAABJRU5ErkJggg==;" vertex="1" parent="eBVV9pK7qPTeHkyAM80o-13">
          <mxGeometry x="19.080000000000013" y="10" width="41.83" height="50" as="geometry" />
        </mxCell>
        <mxCell id="eBVV9pK7qPTeHkyAM80o-22" value="" style="group" vertex="1" connectable="0" parent="eBVV9pK7qPTeHkyAM80o-1">
          <mxGeometry x="250" y="-90" width="123.44" height="140" as="geometry" />
        </mxCell>
        <mxCell id="eBVV9pK7qPTeHkyAM80o-4" value="" style="rounded=1;whiteSpace=wrap;html=1;" vertex="1" parent="eBVV9pK7qPTeHkyAM80o-22">
          <mxGeometry y="20" width="123.44" height="120" as="geometry" />
        </mxCell>
        <mxCell id="eBVV9pK7qPTeHkyAM80o-5" value="" style="shape=image;verticalLabelPosition=bottom;labelBackgroundColor=default;verticalAlign=top;aspect=fixed;imageAspect=0;image=data:image/png,iVBORw0KGgoAAAANSUhEUgAAAgYAAAKVCAYAAAC0zSNNAAAABmJLR0QA/wD/AP+gvaeTAAAACXBIWXMAAA6OAAAOjgExfoCeAAAAB3RJTUUH4gkKFwQLHyI7RQAAIABJREFUeNrs3Xd81PXhx/H393J3yWVPskgISYAwZIiKCC7cq8Uq2ipqXXW01lGttdpqtdWqHfbn1lpHh7b6s62zrdsqCiIIIpswAiEBMsm+5O73xwV+zHDf743ceD37uEclue+4z/ebu/d9pqG/HS8gcIZ0zluhPcTfTpDkpaiBaHLO25RBlLFRBAAAgGAAAAAIBgAAgGAAAAAIBgAAgGAAAAAIBgAAgGAAAAAIBgAAgGAAAAAIBgAAgGAAIMYZMigEIILYKQIA4VaZXKTZxcfqkPSRmpheLq+8mtu8Qg+vf1XvNS6mgACCAYB4cX7RsfpN1eVy2HZ/+5mRM0EzciboDxv/o1tWPiO3p5fCAgYBTQkAwhoKHhxz1V6hYFeXDD1RN5SdSWEBBAMAsSzN7tLtlef79dxry76uUlcehQYQDADEqm8Xn6BcZ7pfz02yOXXNsK9RaADBAECsmp411tTzp2WNodAAggGAWFWclGPq+aNShirbkUbBAQQDALEm0ebQqJShprYxZGhSegWFBxAMAMSa4a4CJRjm326GuYZQeADBAECsqUwptLTd0KRcCg8gGACIuWCQXEQwAAgGAEAwAAgGALBnMLDYlFCSxCRHAMEAQOwFA4s1BgWJWbIbCRQgQDAAECtynOmW5yNIMGwqTMymEAGCAYBYUZlcGND2R2aP1fSssdQcAGHCsssAQhwMigLa/t5RlyglIUl13U26deWz+nv9HAoVoMYAQLQakRJYMEhJSJLk62/w1EHX6arS0yhUgGAAIGqDQXJxUPd354gLNC5tGAULEAwARKORKcENBgmGTdcOm0nBAgQDANHGabOHZL2D04ccpgx7CgUMEAwARJNyV2FIRhMk2hw6JGMEBQwQDABEk0A7Hg7k4IxKChggGACImjcXw9CUzFEh2//EtHIKGQgB5jEAEHQZ9hQ9Pf56HZM9PmTHCHanRgAEAwAhkJyQqJcPvk2T0itCepzSpDw5bHa5Pb0UOhBENCUACKoflZ8T8lAgSQ6bXaWsvggEPxicnDeZUgAQFAWJWbqs5KSwHa88uYBCB4IdDJ4bf6POKphGSQAI2Jn5RyjJ5gzb8QJdhwHAPoKB3UjQI2O+qxk5EygNAAGZnjU2rMejxgAIQTCQfG11Tx10nUpdtNcBsCbBsGlq5uiwHpMaAyBEwUDyDS96eMx3ZcigVACYNia1VJmO8E5TTI0BEMJgIEnTssbonMIjKRUApo1OLQn7MYsTc5Voc1D4QBDtNY/BfaMu1eGZVfJ4vZROBLtpxe+5Rogog1GtbzMMlScXaFlbDRcACFUwSLO7dFHx8ZRMhPvRyqfl8TKxCyLHYM1EONxFMACCGrgpAgDRWmMgSWWufAofIBgAiKg3EsNQRXLhoBx7eDLBACAYAIgoQ5MGrxPgcBcjE4BgYhElAAGrcBUO2rGHuYaYDxPJBRqXOkxeefV+w5dq6+vkIgIEAwDBUpkyeBMNlSblKcGwqc/rGfB5aXaXriubqXMKjlJxUs7On7f1dereNS/qkQ2vyytG+gAEAwCB1xhY6F9Q292gosScgI/tsNk1NClX6zu37Pc5Za58vXzwbfvsqJia4NJdIy/UMFe+frjiKS4m4h59DAAEXmNgYUTCw+tfC9rxBxqZkGhz6JnxNxxw9MJlJSfp9CGHcTFBMKAIAAxGjcELmz/Qxq5tIQ8GFxUfr/Fpw/3az88qZ8tmMC08CAYAYFmizaGSJHMLsG3raVWTu003LHsyKO36+xuy6LDZdV3ZTBP7KdBRWQdxUUEwAADLH8quAtPfsqs7N0uS3m5YqJ+s/GPA4WB/QxZPzp2sgsQsU/tivRgQDAAgACMsjEhY0755538/suE1Tf3kBv2j/hNt6Wm2dA77a0r49tATTO/rxNyDZTcSuLCIW4xKABCQsanDzAeDzs27/Xtl+yZd8uVvJUkFiVlaeuTjAQeDMle+jrbQLJDtSNPUrNH6b+MSLi6oMQAAs8alWQgG7Zv3+7u67iZt7Wkxtb80u0u5zvQ9aguOt9yR8JTcQ7iwIBgAgKVgkFpmepvqzroBf7+us970PnetNXDZnLqg6DjLr+nUvEO5sCAYAIBZ6fZklbhyTW3jlVfVHQMHg7Ud5oPBrh0Qv1l0tLIcqZZfV6krT2NSS7nAiEt79TGY37JKd6z+EyUT4Xo9fRQCBt2UzFEyZK66vq67Se19XQMHgwPUKOwzGPQPWbQZhq4oOTXg1zYjZ4KWtm3gIiO+g0Gvt0/XL3tCX7Wtp2QADMhmGLqy9DTT263p2HzA51gJBsOSfIspnZU/XSNTioMSDB5a/yoXGvH3t73rP3637p+EAgB+uXH4WTo2e7zp7Q7UjCBZbEpILlByQqJuq/xmUF7f1MzRctmcXGjEbzD4tHm57q1+kRIBcEBHZY/TTcPPtrStPzUGVjofDk8u0J0jLjA9C+P+JNocmpY1louN+AwGazvqdNHiX6vXS7s1gAO8aRiGfl11uRIMa32X/QkGW3tatL2309R+hzgzdLGFCY0GcmzOeC444u9vfHVHrWYuuMv0uGEA8en4nEmWFk0yEwys1BoY/f8LpuNyJnLBEX/B4JT5P1VN11ZKAoBfrii13uO/x9Pr9we+lQ6IwTYypVhFiTlcdMRXMGjoaaUUAPilMDFbx2RbX31wbvNydXvcfj3Xn06K4XBU9jguPOIrGFAEAPx1eGZVQNX1D294ze/n+tvkEGpH0gERBAMA2LepmaMtb/v4hjf0n20Loi8YUGMAggEA7L/GwIo/176nW1c9a2qbSAkGQ5NyVZ5cwMUHwQAAduWyOTU6tcT0dn+pfV/XLntMHq/X1HZWhiyGrNYgi1oDEAwAYDdjUktNz13Q0det65c/YToURFqtAR0QQTAAgD2MSyszvc2C1tVye3otH7O6MzKCwfSssUGfIwEgGACI8mAwzPQ285pXBnTMNe3BDwaftZg/pzxnhqpSh3ITgGAAADscZKHGYNH26oCOWR2CSY4e3/CmNnU1mN7usIxR3AQgGACA5FsfYUxqqentAl2tNRR9DD5u+krvNy42vd2hGSO5EUAwAABJKknKU2qCy9Q27X1dllZJ3K3GIMizH67rrFd9T7M+bV5uvsYgk2AAggEASJJGpZhvX1/WVmN5NMIOje7tanK3Be11zG1eIUmWgkFFcqGyHWncDCAYAICVYBBoM8LOWoMg9jPYEQyqO+pMryhryLDUzwIgGACIOVWDGAxWt9cG7XXMa/EFA6+8mt+yyvT2lclF3AwgGABAlYUZD5e11QTl2Eu2rwvKflp7O7S8/f/P6UsL+61MLuRmAMEAQHwzZGhkSrHp7Va0bwxOMAhSzcOC1tW79XlY0mYhGKRQYwCCAYA4V+LKVUpCkqltGnpata2nNSjH/zJINQZ7Tra0tG2DhRoDggEIBgDinJWOhyvaNwXt+I3u7drYtS3g/ew54+HGrm2mR00MTcqV3UjgpgDBAADBwFww2BjUcwi01sDj9erz1t07G/Z4elXf02RqPwmGTXnODG4KEAwAxK+qFPMdD4MdDBZvXxvQ9qs6NqnZ3b7Xz63URBQkZnFTIKbZ4+WFDnFmanrWWI1LG6aK5EJl2lOUZk9Wp6dbbb1dqu7YrOXtGzWnaalWddRyZwA7gkHq4NcYBNoBcX8LJ9V0bTU91THBAASDKOayOXVu4dH6VtHRfvzxT9r5X+s66/XXzR/quU3vaHN3I3cJ4pqVDnfBDgbzm1eqy9OjJJvTWjDYzyqPVmoM8p0EA8S2mGxKcNjs+t6wM7Ro+iP6zejLTX8jKHPl6+byWVow7UH9uupy5TrTuVMQl/KcGUq3J5vapqW3XXXdTUE9j/qeZv189QuWt5/XErxgQI0BCAZRZmJ6uT6ccp/uHHFBwB/oiTaHLh56guZOfUCzCo7kbkHcqbAwoU+wawt2eKzmdb3bsMj0dms76vZ7TjWdBAMgpoPBhcXH6c1D7rLUi3ogWY5UPT7uGj0w+go5bHbuGhAMBrAyiEMVd+XxenXeonv159r3TG33q3Uv7/d3m7otNCUkZnJjgGAQDW4qP1sPjL5CiTZHSIPHn8bfZLmdE4g2VvoXhCoYSL4hhtcsfVQnzPux3mn44oDPf2rjv/V87fv7/f3W7hbT5zDESTAAwSDifafkFN1Sfk5YjnVC7iQ9Pf56JjlBXChPLjC9TXVHXcjP6/PW1Zq18G6d+NmtembTW3utlLius17XLH1UNy1/asD9NPa2yStzkxzR5wixLurrxU/Knax7Rn077Me8fcT5+snK57iDQI3BHtZ0bA7b+c1vWaX5Lav0g2W/V0VyoYqTcrSxa5uqO+r8+sB3e3rV7G5XliPVRDBggiNQYxCx8p2Zenjs1TJkhP3YV5eepuNyJnIHIXbfHAxDw5PzTW3j8Xq1rrM+7OfqlVerO2r1QeOXWtOx2VQtQIPb3JoOLptTyQmJ3CAgGESin4+8SNmOtEE5tiFDvx39Hd4gELOGJuWa7k9T07VV3R53VL1OK4s90ZyAWGaP1m+9FcmFOqtg2qC/cf5y1MX6Z/2nYT/2uw2LTLeNAmaUu8yPSKjurIu617ln/wR/5DjStaFza9jP9bCMUbqs5CRNzRytlIQk1fU06s2t8/XIhtfVEKTVLAH7i5N+TCkEYHbRDM0umhH24+a/e57cnl4uAEIavs1a3R5904mbbUqQFPaFlEamFOuOytk6OW/ybj/PdKSoKqVEFxQdp/MW3av5Lau4cREwFlECELRgEI01BqFuSgikD5QhQ1eXnq4Ppty3VyjY83yen3Azky8hODUGFAGAfTHb8VCS1rRvjrrX2eDebnqbHMeBg4HdSNC9oy5RiStXw1z5eqH2Az264XV1eXr8Dh9PjrtWR2cf5N85OdP1i5EX6dIvH+DmBcEAQPAVJ+ZaqDGIvmBgZZKjgWoMpmaO1pWlp2pq5mjlOtPllVeGDP2k8luaVThdZy+4W7XdDQPuP92erJcm3arxacNNndfM/Kl6aP2rWti6hhsYltGUAGCfipKyTT2/x9M7KB3yAq8xMN+UsK8aA0OGbq88X68dcofOGDJlZ3jYtSmhKqVEf5xw4wFnaL1v1KWmQ8GOY91ReT43LwgGAIIryeY0PRR4Q9cW9Xr7ou61BquPwZWlp+rasq8fsE/BpPQK/Xzkhfv9/fi04ZpVON3y6zkyexxzrIBgACC4ipNyTG8TzhkPgxsMAm9KGOLM1C0V/k/LfsnQEzU9a+w+f3dWwbSAJ237YfnZ3MQgGAAIniILwSAcaySEgpX1EvZsSril4hylJrj83t6Qod+MvnyfTQqT00cE/JoOzRjpd6dFYE90PgSgienlmpk/VTmOdBky5LCZXyQsWmsM3J5etbg7lOlIsVRjUJVSYmkuk8rkIl1XNlP3Vr+428+rUoOzbPxVpafpg8YvublBMADgv+KkHD005uqgfLuM1mAg+TogmgkGKQlJSrQ51O1x64bhZyrBsFb5en3Zmdre26njcydqXGqZJAVtmvfjciaqJClPNV1budFBMADg37feNw65UyVJeUHZX7Q2JewIBhUyN6FTjiNdTptdM/OnWj6u02YfsCNiIBIMmy4qPl4/X/M8NztMoY8BEKd+UPaNoIWCbo9bm7q3RW1ZWB2Z8J2SU2Q3EiL2dX2j4AhudJhmNDY2mtog++1zKDUguv7MpT0612U6UvTl9EeVkpAUlCNkv33uXscAEOHOeZsaAwA+Z+VPD1ooABBbCAZAHBpoQR4ABAMAcWZkSjGFAGCf7I9seI1SAOJIks1paYEkAHESDG5b+RylAMSR4cn5shlG0PbX7XFTqEAMoSkBiDMFzqyg7m9ZWw2FChAMAESrIYmZQd3fkrZ1FCpAMAAQtcHAGdxg8F7DYgoVIBgAiNpgEMQag4+avtI/6j+hUAGCAYBolROkRXq6PW79YNmTppcsBkAwABBBshypQdnPz1b/Was6ailQIMawuiJAMDDF4/Xqhyue0h82/ofCBAgGAKI/GFhvStje26nrlj2uv9fPoSABggGAWJBpTzG9TUdft95qWKjbVj6rTV0NFCJAMAAQCwwZpoPBgtbVmr3oftV1N1GAQByg8yEQR1ISkuSwmfs+sL5zC6EAIBgAiEVWOh629LZTcADBAADBoD8YuDsoOIBgAIBg4NPaSzAACAYAYpKVEQk0JQAEAwAxysocBtQYAAQDADEq00GNAfxnyKAQ4hDzGABxhM6HOJDK5CLNLj5Wh6SP1MT0cnnl1dzmFXp4/at6r5EltgkGAOI+GNCUED/OLzpWv6m6fK+5LmbkTNCMnAn6w8b/6JaVz8jt6aWwYhhNCUAcybQzjwH2HwoeHHPVgBNgXTL0RN1QdiaFRTAAEM81BgSD2Jdmd+n2yvP9eu61ZV9XqSuPQiMYAIjHYOD29Kqjr5uCi3HfLj5Buc50v56bZHPqmmFfo9AIBgBiQbbJ4Yr0L4gP07PGmnr+tKwxFFoM87fzoZeiAqKJsVHylgRaY9AyYDAwaiTvUN4iot+5X9xDIcTRmwM1BgAkSS6bU4k2BzUGAAgGAKzNekjHQ4BgACBmg4H5EQlN7jYKDiAYACAY+DS4Wyk4gGAAgGDg09iznYID4i0Y2AwWyQDigZUllxt7aUoA4i4YPH3QDaZ7KgOIPtlO850PqTEA4jAYnDFkip4Y930lGLQqALHMUlOCm2AAxF0wkKQzhkzRXSMupDSAGHV4ZpWOzjqIYADAv2AgSVeWnqozhkyhRIAY9MYhd2pCejnBAID/wUCSflV1mTIdKZQKAElSA30MgPgOBnnODN00/GxKBYB6PL1q6+ukIIA4s9ciSleVnqZLh560288K3j2PkgLiTBNDFQGCwQ5Om52SAeJcQw+zHgLxiDGKAPaJjocAwQAACAYAwQAACAYACAYABgoGPXQ+BAgGANCPJZcBggEA7NTkpsYAIBgAQD9qDACCAQDsVNfdRCHEIUMGhRDnmMkIwD5t7m6kEOJEZXKRZhcfq0PSR2pierm88mpu8wo9vP5Vvde4mAIiGACId90eNwsoxYnzi47Vb6oul2OPGW9n5EzQjJwJ+sPG/+iWlc/I7emlsOIETQkA9lLX3SSvvBREHISCB8dctVco2NUlQ0/UDWVnUlgEAwDxbF1nPYUQ49LsLt1eeb5fz7227OsqdeVRaAQDAPHq46alFEKM+3bxCcp1pvv13CSbU9cM+xqFRjAAEI+29rToyZp/URAxbnrWWFPPn5Y1hkKLE3s1LHm8XtV0bZXH66F0gDh04/Lfq6W3nYKIccVJOaaePyplqLIdaayhEY/B4L61L+q+6pcoGSAO1XRt1etb51EQMS7R5tColKGmtjFkaFJ6hd5p+IICjHG2Pd8UHlz3CqUCxKFG93bdtPwpebyMRoh1w10FSjDMtyQPcw2h8OKpxqDP69E1Sx9Vp6eHUgFi3K/XvqwjskarMDFbnX09mteyQg+tf1VrOjZTOHGgMqXQ0nZDk3IpvHgKBneu/os+bFxCiQAxbkX7Rv1izQsURDwHg+QiggH2yyZJT9S8qQfX04QAxIN/bf2cQiAYEAyw/xqDxze8oR+vfJaSAOLEa1vmUgjxHgwsNiWUJDHJUVzUGNyy8hmmPgXiRG13gxa0rqEgqDGwtF1BYpbsRgIFGOvBgCIA4sfrWz7ji0Ccy3GmK9uRZmnbBMOmwsRsCpFgACBmggFzFFBbkFwY0PZHZo/V9Kyx1BzEMJZdBuLE1p4WzWlaRkHEfTAoCmj7e0ddopSEJNV1N+nWlc/q7/VzKFRqDABEo6c3vqVebx8FEedGpAQWDFISkiT5+hs8ddB1uqr0NAqVYAAg2jS52/TUxn9TENCI5OKg7u/OERdoXNowCpZgACCaXL/sCW3taaEgoJEpwQ0GCYZN1w6bScESDABEk1e2fEohQE6bPSTrHZw+5DBl2FMoYIIBACCalLsKQzKaINHm0CEZIyhgggEGkprgUp4zQznOdCXZnBQIgEEXaMfDgRycUUkBxwiGKwZBks2pE3In6ajscTo4vVKVyUVKs7t2e05DT6tWdmzSvOaVer9xsT5q+kp9Xg+FByA83wINQ1MyR4Vs/xPTyilkggEqkgv1vWFn6Bv50/YKAnvKcaZrqjNdUzNH69qyr6u+p1l/2vSuHq95Q9t6WilMACGTYU/R0+Ov1zHZ40N2jGB3agTBIKpkO9L008rzdH7RsUowrLXG5Dsz9YPh39BVpafpgXX/0IPrX1G3x03hAgiq5IREvXzwbZqUXhHS45Qm5clhs8vt6aXQoxx9DEyakTNBn0z9jS4sPs5yKNjzj/bHFefq/Sn3qiqlhAIGEFQ/Kj8n5KFAkhw2u0pZfZFgEG++P+zr+tvEHyvPmRH0fY9KGap3ptyjk/MmU9AAgqIgMUuXlZwUtuOVJxdQ6ASD+PGTym/pjhHny2YYITuGy+bUc+Nv1FkF0yhwAAE7M/+IsI6KCnQdBhAMosZ3S0/X9WVnhuVYdiNBj4z5rmbkTKDgAQRketbYsB6PGgOCQVyYljVGd4yYHdZjOmx2PXXQdSp10V4HwJoEw6apmaPDekxqDAgGMS/N7tKT464NSidDszLsKXp4zHdlyOBCADBtTGqpMh3hnaaYGgOCQcy7pfxcFSRmDdrxp2WN0TmFR3IhAJg2OjX8o5yKE3OVaHNQ+FEuKucxyHGm68fl54b0GCkJiTqrYPqgv9b7Rl2qwzOr5PF6uVsj2E0rfs81QkQZjGp9m2GoPLlAy9pquAAEg/BKS3Dp4qEnxMUFSrO7dFHx8dypEe5HK5+Wx8vELogcgzUT4XAXwSDa0ZQAANQYBE2ZK5/CJxgAACLqjd0wVJFcOCjHHp5MMCAYAAAiytCkwesEONzFyIRoxyJKABBjKlyFg3bsYa4h5sNEcoHGpQ6TV1693/Cl2vo6uYgEAwBAsFSmDN5EQ6VJeUowbOrzegZ8XprdpevKZuqcgqNUnJSz8+dtfZ26d82LemTD6/KKkT4EAwBA4DUGFvoX1HY3qCgxJ+BjO2x2DU3K1frOLft9TpkrXy8ffNs+OyqmJrh018gLNcyVrx+ueIqLOQjoYwAAsVZjYGFEwsPrXwva8QcamZBoc+iZ8TcccPTCZSUn6fQhh3ExCQYAgMGoMXhh8wfa2LUt5MHgouLjNT5tuF/7+Vnl7JCuaAuCAQDEvESbQyVJ5hZg29bTqiZ3m25Y9mRQ2vX3N2TRYbPrurKZJvZToKOyDuKiEgwAAJY/lF0Fpr9lV3duliS93bBQP1n5x4DDwf6GLJ6cO9n0+jOsF0MwAAAEYISFEQlr2jfv/O9HNrymqZ/coH/Uf6ItPc2WzmF/TQnftjCV/Ym5B8tuJHBhw4hRCQAQQ8amDjMfDDo37/bvle2bdMmXv5UkFSRmaemRjwccDMpc+TraQrNAtiNNU7NG67+NS7i41BgAAMwal2YhGLRv3u/v6rqbtLWnxdT+0uwu5TrT96gtON5yR8JTcg/hwhIMAACWgkFqmeltqjvrBvz9us560/vctdbAZXPqgqLjLL+mU/MO5cISDAAAZqXbk1XiyjW1jVdeVXcMHAzWdpgPBrt2QPxm0dHKcqRafl2lrjyNSS3lAodJVPYx2NzdqNM/vz2kx3DYEvTk2GuV68wY1Nc6v2WV7lj9J+7UCNfr6aMQMOimZI6SIXPV9XXdTWrv6xo4GBygRmGfwaB/yKLNMHRFyakBv7YZORO0tG0DF5lgsG/dHrfmNC0L+XFuWfmMnhx37eB92Hj7dP2yJ/RV23ruVAADshmGriw9zfR2azo2H/A5VoLBsCTfYkpn5U/XyJTioASDh9a/yoUOx71EEezf/9Z9rLcbFg7a8X+37p+EAgB+uXH4WTo2e7zp7Q7UjCBZbEpILlByQqJuq/xmUF7f1MzRctmcXGiCweC7+quHtbm7MezH/bR5ue6tfpELAOCAjsoep5uGn21pW39qDKx0PhyeXKA7R1xgehbG/Um0OTQtaywXm2Aw+Lb1tGrWwrvV7G4P2zHXdtTposW/Vq+XdmsAB3gTNwz9uupyJRjW3s79CQZbe1q0vbfT1H6HODN0sYUJjQZybM54LjjBIDIsbdugb37xy7CEg9UdtZq54C7T44YBxKfjcyZZWjTJTDCwUmtg9P8vmI7LmcgFJxhEjnktK3Tq/J/6/UdkxcdNS3XK/J+qpmsrBQ7AL1eUWu/x3+Pp9fsD30oHxGAbmVKsosQcLjrBIHIsb6/RjHk/0vO17wdlBbIduj1u3Vv9omYuuFMNPa0UNAC/FCZm65hs66sPzm1erm6P26/n+tNJMRyOyh7HhScYRJbtvZ367tJHdMbnd2hey4qA9uXxevXqlrma/umNurf6RfV5PRQwAL8dnlkVUHX9wxte8/u5oawtNeNIOiCGHIsoWTSnaZlO/uwnOiJrtM4rPFZnDJmiNLvLr23rupv09/o5em7TO1rRvpHCBGDJ1MzRlrd9fMMb+s+2BdEXDKgxIBhEQ0CY07RM1y17XAenV2pyRqUqk4uUn5iplIQkSVJrb4c2dTVoVccmfdq8XMvbNga1KQJA/NYYWPHn2vd066pnTW0TKcFgaFKuypMLIqZpg2CA/er19mley4qAmxcAwB8um1OjU0tMb/eX2vd17bLH5PGa+3KyY8iivzWjIa01yBpHMAgh+hgAQBQak1pqeu6Cjr5uXb/8CdOhINJqDeiAGPJg4NWBHwCimzcEDwymcWllprdZ0Lpabk+v5WNWd0ZGMJieNTbocyTg/9l1zjsHftbfjqekgGjmz9+5WX87gXId1GAwzPQ285pXBnTMNe3BDwaftazUoRkjTW2T58xQVepQLWur4UYITY0BACDaHGShxmDR9uqAjlkdgkmOHt/wpjZ1NZje7rCMUdwEBAMAgORbH2FMaqnp7QJdrTW1UFMdAAAgAElEQVQUfQw+bvpK7zcuNr2d2VoGEAwAIGaVJOUpNcHc6ID2vi5LqyTuVmMQ5JEA6zrrVd/TrE+bl5uvMcgkGBAMAACSpFEpQ01vs6ytxvJohB0a3dvV5G4L2uuY2+wb3m0lGFQkFyrbkcbNQDAAAFgJBoE2I+ysNQhiP4MdwaC6o870irKGDEv9LEAwAICYUzWIwWB1e23QXseOCeG88mp+yyrT21cmF3EzEAwAAFUWZjwM1tC+JdvXBWU/rb0dWt7+/+f0pYX9ViYXcjMQDAAgvhkyNDKl2PR2wVqwbUmQah4WtK7erc/DkjYLwSCFGgOCAQDEuRJX7s4F2vzV0NOqbT2tQTn+l0GqMdhzsqWlbRss1BgQDAgGABDnrHQ8XNG+KWjHb3Rv18aubQHv57OW3YPBxq5tpkdNDE3Kld1I4KYgGAAAwcBcMNgY1HMItNbA4/Xq89bdOxv2eHpV39Nkaj8Jhk15zgxuCoIBAMSvqhTzHQ+DHQwWb18b0ParOjap2d2+18+t1EQUJGZxUwSZnSLAYBjizNT0rLEalzZMFcmFyrSnKM2erE5Pt9p6u1TdsVnL2zdqTtNSreqopcCAHcEgdfBrDALtgLhnM8IONV1bTU91TDAgGCCKuWxOnVt4tL5VdLQff/yTdv7Xus56/XXzh3pu0zva3N1IQSKuWelwF+xgML95pbo8PUqyOa0Fg/2s8milxiDfSTAINpoSEHIOm13fG3aGFk1/RL8ZfbnpbwRlrnzdXD5LC6Y9qF9XXa5cZzqFiriU58xQuj3Z1DYtve2q624K6nnU9zTr56tfsLz9vJbgBQNqDAgGiDIT08v14ZT7dOeICwL+QE+0OXTx0BM0d+oDmlVwJIWLuFNhYUKfYNcW7PBYzet6t2GR6e3WdtTt95xqOgkGBAPEtAuLj9Obh9xlqRf1QLIcqXp83DV6YPQVcthoDQPBYCArgzhUcVcer1fnLbpXf659z9R2v1r38n5/t6nbQlNCYiY3BsEA0eCm8rP1wOgrlGhzhDR4/Gn8TZbbOYFoY6V/QaiCgeQbYnjN0kd1wrwf652GLw74/Kc2/lvP176/399v7W4xfQ5DnAQDggEi3ndKTtEt5eeE5Vgn5E7S0+OvZ5ITxIXy5ALT21R31IX8vD5vXa1ZC+/WiZ/dqmc2vbXXSonrOut1zdJHddPypwbcT2Nvm7wyN8kRfY6Cj3pYBNVJuZN1z6hvh/2Yt484Xz9Z+RwXANQY7GFNx+awnd/8llWa37JKP1j2e1UkF6o4KUcbu7apuqPOrw98t6dXze52ZTlSTQQDJjiixgARK9+ZqYfHXi1DRtiPfXXpaTouZyIXAbH7Zm0YGp6cb2obj9erdZ31YT9Xr7xa3VGrDxq/1JqOzaZqARrc5tZ0cNmcSk5I5AYhGCAS/XzkRcp2pA3KsQ0Z+u3o7/AGgZg1NCnXdH+amq6t6va4o+p1WlnsieaE4IrKpoQkm1PTssZw9SJIRXKhziqYNuhvnL8cdbH+Wf9p2I/9bsMi022jgBnlLvMjEqo766Lude7ZP8EfOY50bejcGvZzPSxjlC4rOUlTM0crJSFJdT2NenPrfD2y4XU1BGk1S4KBnwoSs/TipB/zToG9zC6aodlFM8J+3Px3z5Pb08sFQEjDt1mr26NvOnGzTQmSwr6Q0siUYt1ROVsn503e7eeZjhRVpZTogqLjdN6iezW/ZVVU3ms0JQBAjAaDaKwxCHVTQiB9oAwZurr0dH0w5b69QsGe5/P8hJujdvIlRiUAQBQw2/FQkta0b46619ng3m56mxzHgYOB3UjQvaMuUYkrV8Nc+Xqh9gM9uuF1dXl6/A4fT467VkdnH+TfOTnT9YuRF+nSLx8gGAAAgq84MddCjUH0BQMrkxwNVGMwNXO0riw9VVMzRyvXmS6vvDJk6CeV39Kswuk6e8Hdqu1uGHD/6fZkvTTpVo1PG27qvGbmT9VD61/VwtY1UXUNaEoAgChQlJRt6vk9nt5B6ZAXeI2B+aaEfdUYGDJ0e+X5eu2QO3TGkCk7w8OuTQlVKSX644QbDzhD632jLjUdCnYc647K86PuGhAMACDCJdmcpocCb+jaol5vX9S91mD1Mbiy9FRdW/b1A/YpmJReoZ+PvHC/vx+fNlyzCqdbfj1HZo+LujlWCAYAEOGKk3JMbxPOGQ+DGwwCb0oY4szULRX+T8t+ydATNT1r7D5/d1bBtIAnbfth+dkEAwBA8BRZCAbhWCMhFKysl7BnU8ItFecoNcHl9/aGDP1m9OX7bFKYnD4i4Nd0aMZIvzstRgI6HwJAhJmYXq6Z+VOV40iXIUMOm/lFwqK1xsDt6VWLu0OZjhRLNQZVKSWW5jKpTC7SdWUzdW/1i7v9vCo1OMvGX1V6mj5o/JJgAADwX3FSjh4ac3VQvl1GazCQfB0QzQSDlIQkJdoc6va4dcPwM5VgWKsMv77sTG3v7dTxuRM1LrVMkoI2zftxORNVkpSnmq7I7xBKMACACJDrTNcbh9ypkqS8oOwvWpsSdgSDCpmb0CnHkS6nza6Z+VMtH9dpsw/YETEQCYZNFxUfr5+veT7iy58+BgAQAX5Q9o2ghYJuj1uburdFbVlYHZnwnZJTZDcSIvZ1faPgiKgof4IBAAyyTEeKZhcHb42PtZ118nijd1EvK7MfDnFmDvpCbgdS5srXhPRyggEAYGBn5U9XSkJS0PYXjVMh7xYMLNQYzMyfGvbFlKz42pApBAMAwMAGWpDHimhcPGlXVpoSIr224P+DweEEAwDAwEamFAd1f8vbN0Z3jYGFaZEPNK1xpKhILtTY1GERfY5ROSqhpbddj2x4jXeTCLvZT8qdPOjnsWT7On3YtCTsx+2LwqlnERmSbE5LCyQNZHHr2rirMYgmXxsyRV+1rScYBFOTu023rXyOd5QIYjMMvXXo3ZqUXjFo59De16Vzv/ilNnc3ckEQNYYn58tmGEHbX7fHrZUdm6K6TBotdD6MJqfkHap7qv8Wue/n/FkiGDxer25c/vtBXbTll2v+RihA1ClwZgV1f8vaauT29FJjEMHGppUOuFQ0wQAxY2HrGt1X/dKgHPu/jUv0WM0bXAREnSGJmUHd35K2dVFfJlYWUoomhoz9LtpEMEDM+c26l/XqlrlhPeaajs26dMkD6vN6uACIvmDgDG4weK9hcdSXSaenR52enpi+7kdljyMYID54vF59Z8n/6L3G8Lw5bezaplkL7475qkdQY+CPj5q+0j/qP4mJcon1WoOjsiJ3tUWCAYKu2+PWt774pV6q+yikx/mqbb1O+uw2reusp9ARtXKCtEhPt8etHyx70vSSxZEbDGI77JcnF2hoUm5EnhvBACHR4+nVd5b8j3604ml1e9xB3/+fat/VifNupbMhol6WIzUo+/nZ6j9rVUdtzJRLKEcmzG9ZFRFNFcFYRZNggKjzRM2bmvbpD/TWtoVB2d+K9o06c8Fd+v7Sx2K+DRIEA3/sGBH02IbY6nwbyhqDx2ve0Nc//9mg10ocmRWZ/QxYdhkhV91Rp3O/uEeT0yv1vbKv6eTcyaZmKfPKq7nNK/REzZt6ZcunUb04DLB3MLDelLC9t1PXLXtcf6+fE3PlYmX2Q3/NbV6hjV3bNHnONbps6Mm6svTUgNdZWNi6xvQ8LlMyRxEMEN8+b12tixf/Rhn2FB2XM1FHZY/TQWllqkguVLo9eefzuj1ure2s0/K2jfqo6Su93bBQGzq3UoCISZn2FNPbdPR1662Ghbpt5bPa1NUQk+USqm/ztd0N2ti1bWew+u26v+u36/6uEclF+vSI38qQtcmmntr4bz005mpT2wxzDVGuMz3i+lMQDBB2Lb3tern+Y71c//HOnyUYNqXZXers6wlJnwQgEhkyTAeDBa2rNXvR/arrborpsmkI0YflZy2r9vnzVR21WtZWozGppab32e1x6+W6Obq/6jK5bE5T2x6cXqn/bFsQUWVPHwNEhD6vR83udkIB4kpKQpIcNnPfz9Z3bon5UCBJDSHqfLiwZc1+f/dho7V1VtZ0bFaXp0dzm5eb3vbg9MqIK3uCAQAMEisdD1t62+OibEJVvf7F9v0Hg4+avrK0z5XtvrUp/ttofvvJGQQDAEAgwcDdERdls6FrS9D36ZVXiwZYefLjpqWWZlBdtL1akvRZy0rT205Kr7Dcr4FgAAAEA7X2xkcwqOtuCnqTydqO+gFrXFp627V4u/klqz/tb0L4orXa9KipbEeaypLzCQYAAGsjEuKlKUGS5jQvDer+BmpG2MFsR8Buj1tftPpqDNr6OrWyY6Pp8zp4EJerJxgAQETVGJifwyBeagwk6emNbwU3GPR/gA/k5bqPTYaXZbt1mv68ZbWFYBBZ/QwIBgAwWDUGDmoMBvJx01ItaF0dtP0t8qOZYFVHrT5o/NLvff5h4392+7eV8yUYAAD6awzofHgg31/6mHo8vQHvx9fxsNqv5/501R/l9uOYHzct1b+2zt/tZwtb15g+t/Hpw2U3EggGAEAwoPPhgSxt26DbVj0b8H5Wtdf6XXZfbl+nH674w4AdCVd11OqKJQ/uNYrhq7YNpudjcdmcqkodSjAAgHiXaWceA3/8vubf+sWaFwLax6tb5pp6/rOb3tashb/Q0rYNkqSu/kXbNnU16P7ql3Ts3JtV2733dNRuT6+lkQ0T0yKnAyJTIgNAFNUYxGMwkKRfr31Z6zu36IHRVyg5IdHUtvU9zXp0w+umj/le42JN//RGVSYXyWFLULO73a+l3ue3rNKhGSNNHevgjAr9qfZdggEA7E9BYpYKErO0vbdTazvrYnJVTbPBwO3pVUdfd9zeEy/VfaTPW1fr1opzdWb+EX5NDLStp1Xf+uKXagxgiuXVHbWmnm9lZMIkagwAYN+Oz5mkWyvO1YT08p0/a3K36YmaN/Xg+ldi6oMx2+RwxXjrX7AvazvqdNmXv9O9a17UzIIjdFLuwSpN8q1SuGctwd/r5ui36/6urT0tYT3Hz1tXmd5mTGqpXDanOvubLAgGACDpu6Wn686RF+z1TTDLkaqby2fp5NzJmrngrpipTjdbY9BCMNhpVUet7q9+SfdXvyRJSrQ55ErwrWzY5/Voe2/noJ3b+s4t2trTojxnht/bOGx2HZY5ytRQyVCh8yGAiHBIxgjdMWL2gNXDE9LL9T9jroyJ1+uyOZVoc1BjECTdHrea3e1qdrcPaijYWWtgoTlhauboiChLagyCWZhGgqpSh6rCVaj8xKyd6XV7b6c2dTVoVccmVXfUUVDAPlwy9EQlGAf+rnL6kMNUkVyoNR2bo7y2wPysh/Ha8TAafd66SifnTTa1zbSsMQSDWJCSkKSv5R+umUOm6ois0UpJSBrw+Vt7WvR+42K9VPeR3mtYrF5vH4WIuGczDJ2QM8mv5xoydEHxDN2x6s9RHgzMj0hocrdxs0SJ+S3m+xkckjFCiTaH6XkQCAYRItuRpu8OO12XDj1J6fZkv7fLc2ZoVsGRmlVwpDZ0btWD61/Rc7Xv+DXLFhCrhrsKlLNH57GBfKvwGP1izV+j+u/GSjBocLdys0SJec0r1O1xm2ouSrQ5dHB6pT5pXja4QZ3LZ975Rcdq3hEP6PqyM02Fgj2VuvJ0f9Wl+nDKfRHTtgQMBrPj0vOcGTo+Z2Lc1Rg09mznZokSnZ4efday0vR2x+cO/n1NMDAhze7SM+Nv0INjrjI9zGggo1KG6pXJt+vm8lmyGQYFjbhT07XV9DbHRXkwsLLkcmMvTQnRxMoIg5NyJw/6eRMMTHxDeXXyHfrakMNDsv8Ew6aby2fp6YNuMN1TGYh2ze520x3rjs4+KKpfc7bT/JcLagxiPxiMSS1VqSuPYBDxf8CONL0y+XaNTxse8mOdMWSKnhj3fb96ZwOxZG1HvannVyQXqiQpL2pfr6WmBDfBIJp80VptaYjpBUXHEQwimcNm118m/lCjUsK38tUZQ6borhEXUviIK0va1pne5qjscVH5Wg/PrNLRWeZrPAgG0aXX26ePmr4yvd3Vw0431RmXYBBmP608T4dljAr7ca8sPVVnDJnCBUBcfbsy65js8VH3ReN3Y67UG4fcuduUzwSD2PVew2LT27hsTn09RM3WBIMATUqv0FUlpw3a8X9VdZkyHSlcCBAM9mN69tioeo33jrpYFxTNsLx9A30Mos5rW+ZaWgBsMGvDCAYDuL/q0kEdJZDnzNBNw8/mQiAufNW23vS8BPnOTA1PLoiK1zc5vVLfLj7B8vY9nl619XVyo0SZ+p5mzWtZYen9f7BE5QRHw1xDNHfqAyE9hiFDDlvCoL/Wq0pP06VDT+KvK8INfe8CZrEMULfHra/aNmiiySr2wzOrtDYKphq/rmxmQNs3MVQxar26Za4Oz6wytU2mPXXQzjcqg4EhQ05b/EzaGE+vNVoZhiF5KYdAfday0nQwmJIxSs/Xvh/Rr6syuUin5B0a0D4aepj1MJqDwc9HXjjgAmF7ah7EIEhTAoCICgZmmf0mNhi+O+z0gJsl6XgYvTZ2bTO92uKWnhaCAQBYCQYjUoqCOhNpsOU5M/TNwqMD3g/BILo9UfOmqed/2rycYAAA6zu3aEtPs6ltDBmakjkqYl/TtwqPCcpspgSD6PbPLZ9qfeeW3X7m8Xr15fZ1ez232+PWK/WfEgwAQJI+azZfaxCpwcCQodnFxwZlX409dD6MZm5Pry5f8rvdRt7YDEMHpZXt9dzbVj6nzd2NBAMAkKTPLKxjH0n9DPKcGSpz5Ss5IVFTs6pUmVwUlP2y5HL0m9+yStctf0J9Xs8+f9/W16nrlj2upzb+e1DPk+7uACIsGJivMZiQVq5Em0PdHvegnHOmI0Wzi2ZoRs4ETc0cLbuRILe3V/XdzUE7RpObGoNY8Hzt+1rVvkm3VnxTR2WPU3tfl95v+FIfNH6pf2z5JCJGnxAMAESUha1r5Pb0ymFimG6izaFJ6RWD0mHriKzRevqgG/aakCbBcGqYa0jQjkONQWzVHJy54C6lJrhkt9nU7G6PqPOjKQFAROny9GhJ23rT2w3GmibFSTn668RbwjJLXV13EzdHjGnr64y4UEAwABCRrDQnDEYHxN+NvlIpCUlhOdZgdkZDfCEYAIiJYHBYxkhTM8sFqjK5SMfmhGd1x26PmwWUQDAAEL+s9BXIcaarMrkwbOd4XtExYQsidd1N8jLnNggGAOLVpq6GvSaD8avWIIzNCcflTAzbsdZ11nNTgGAAIL590rzM9Dbhms8gz5mhcWnDwlYWHzct5YYAwQBAfJvTZD4YhKsD4jHZ48PWjLC1p0VP1vyLGwJhE5XzGLi9vSFffz3R5lBRUs6gv1aP16uarq3y7GemLEQGr5f230ioMahILtTLB9+mJdvX6/nN72tZW01Izi1cnQ4l6cblv1dLbzs3BAgGA9nU1aDJc74f8uO8NOlWzciZMKiv9b61L+q+6pe4UxF31nRsVn1Ps/KdmX5vY8jQMdnjdUz2eH1v2Bn6sHGJvrf0EW3s2ha08zJk6NgwvS/UdG3V61vncTMgrGhKGMDNK/4waFOs7nhTeHDdK1wIxG+tgYXmhF0dlT1OH065XzeXz1JVSklQzqkyudBUWLGq0b1dNy1/Sh5qo0CNQWR9Y7l7zV/1sxGzw37sPq9H1yx9VJ2eHi4E4jcYNC/TzPypAe0j05Gim8tn6ebyWdra06Ivt6/T6o5a36N9s5a315iaVXB69tigv85fr31ZR2SNVmFitjr7ejSvZYUeWv+q1nRs5iYAwSDSPLT+VR2WMVKnDTksrMe9c/Vf9GHjEi4A4tqcAGsM9pTnzNCMnAl7NRHOb1mln63+s1+9/6dnBTcYrGjfqF+seYGLjYhBU8IBeOXV5Uv+x1JHKKueqHlTD66nCQFY1r4hLHPJH5IxQv88+HZdVHz8gM8zZGha1pigHvtfWz/nQoNgEG26PD2atfBuvd2wMOTHenzDG7plxTMUOiDfqJxwrZhoMwzdX3WpJqVX7Pc5I1OKNSTI/Qte2zKXCw2CQTTq6OvW+Yvu14PrXwnJ1KQdfd26+quHdcvKZ5j6FNjFx01fhe1YdiNBN5Sdud/fHx/k2Q5ruxu0oHUNFxkEg2jl9vTq9lV/0pkL7tLqjtqg7ff9xsU6eu4P9cLmDyhkYA8fNoW3r82M3Ily2Pbd/erE3IODeqzXt3zGFwEQDGLijapxiaZ/eqOuX/ZEQBMtzW1eoXMW3qNvLPg5vY+B/Viyfb229rSE7Xgum1NjUkv3+nmGPSXoUy4zRwEiEaMSLOrx9OrZTW/rj7XvaGrmaM3Mn6qjsw9SZXLRfrfp83q0aHu13m1YpP+t+1gr2jdSkMABeOXVh41LdFbBtLAdc2JauRa1Vu/2s+Ny9l+TYMXWnpagj7oACAYRwOP16uOmpTuHOWXYU1SRXKjCpGylJCSq1+NRe1+XNnZt0+qO2kGdMAmIVu82LgprMDg4o1LPbnp7t5/NKpwe1GM8vfEt9Xr7uLggGMS6lt52LWhdLbVSFkCw/LP+E90z8ttKtyeHrcZgV3nOjKAus9zkbtNTG//NhUVEoo8BgIjX0det52vfD9vxqlKGKsOesvPf5xUdI7uREJR9e+XV9cueCGu/CYAaAwAx5+lNb+k7paeEZbljh82uNUf/Qes76zWvZWXQFlNr6GnVTSue0itbPuWCgmAAAIFY2b5Jd6z6s26vPF82I/ThwGYYGp5coOHJBZa2X91Rq3xnltr7uvTvbZ9rTtMyvbH1M7X3dXExQTAAgGB4cP0rWttZp19XXa48Z8Zuv2t2t+vhDa+q0b1dN5R9Q8VJOYN6rrMX3a9V7bUyDLFCIggGABAqr22Zp3cbFunUvEM1Kb1CNhma17JS7zYsUkuvb12Fv9S+ryMyR+vwzCodljlKxUk5Aw4lDraFrWu0sn2TJIlMAIIBAIRYR1+3Xqr7SC/VfbTP33d73HqvcbHea1wsSSpJytOi6Q+H7fxerPsvFwlRi1EJAGJeTddWbesJzxjiXm+f/rfuYwodBAMAiGRfbA/PYkWvb/2MoYggGABApFvYEp5g8Mj61yhsEAwAINLNb10V+mO0rNJnLSspbBAMACDig0HLqpAvcXz3mr9S0CAYAEA0aHK3hXR58/9sW6D3+0dBAAQDAIgC85pDU83f7G7XrSufpYBBMACAaDK/Jfj9DNr6OjVr4S9CWhsBEAwAIAT+s21BUKcnbult17kLf6nPW1dTuIgZzHwIxKz+D0CDOXl3qO1u0JzmpZqeNTbgQPDYhjf02IY3dk7DDETV+wLBAIhD57xDGezD/9Z9bCoYdHvcerzmDXm9UqN7uxZvX6vPW1arra+TwkRMvi8QDADElVe2fKpfjrpYiTaH30HijlV/puAQN+hjACCuNLnbdOfqv/j13K09LX4/FyAYAECUemzDG/pz7XsDPqfZ3a7Zi+7Xlp5mCgwEAwCIZV55dc3SR3Xzij9oXWf9Xr//tHm5vrbgDqY3RlyijwGAuPVkzb/0+5p/6+D0ClWllkiSlrSt16LWagoHBAMAiNfag89bVzMXAdCPpgQAAEAwAAAABAMAAEAwAAAABAMAAEAwAAAABAMAAEAwAAAABAMAAEAwAAAABAMAAEAwAAAABAMAAEAwAAAABAMAAEAwAAAABAMAAEAwAAAABAMAAEAwAAAABAMAABDV7P49zXsiRQVEEcPbFfpjeM6TV0kUNgAAAAAAAAAAAAAAAAAAAAAAAAAAAAAAAAAAAAAAAAAAAAAAAAAAAAAAAAAAAAAAAAAAAAAAAAAAAAAAAAAAAAAAAAAAAAAAAAAAAAAAAAAAAAAAAAAAAAAAAAAAAAAAAAAAAAAAAAAAAAAAAAAAAAAAAAAAAAAAAAAAAAAAAAAAAAAAAAAAAAAAAAAAAAAAAAAAAAAAAAAAAAAAAAAAAAAAAAAAAAAAAAAAAAAAAAAAAAAAAAAAAAAAAAAAAAAAAAAAAAAAAAAAAAAAAAAAAAAAAAAAAAAAAAAAAAAAAAAAAAAAAAAAAAAAAAAAAAAAAAAAAAAAAAAAAAAAAAAAAAAAAAAAAAAAAAAAAAAAAAAAAAAAAAAAAAAAAAAAAAAAAAAAAAAAAAAAAAAAAAAAAAAAAAAAAAAAAAAA4WVQBAAAhJRDUoWkMZKqJBVI+j7BAACA2OaUNKI/AJRLGtv/32MkuXZ53mZJRZH6IuxcRwAATMmQVLnHh/9YSaMkJUT7iyMYAACwb1m7fPDvGgKGK4Zr3AkGAIB4V7SPD/+DJOVTNAAAxI9nJbVL8ob5URvJhWLjvgAAxKlySckUA8EAAAAQDAAAAMEAAAAQDAAAAMEAAAAQDAAAAMEAAAAQDAAAQGjEy5TImfLNa52o/5/MwiEpdZeAlNH/3y2SPP3/3SzfLFWS1CSpU1IXtw0AgGAwuJySciXlyTd3dV7/v9N3eWTt8e8dj4wgn0u7pMb+R8MujzpJayVV9/9/7S6hAgAAgoEJefKtYV0uqWSXR6mkoZKyI6jMUvofJQd4Xrekdf0h4StJC/ofK3epkQAAIG6DgU2+pSonSBonqUq+9axHyFfVH2sS5Vube5Skk3f5eZukRf0hYa6ktyXVcysCAOLFbZI+lbRd4V/BKhoeHklfSLpf0omSXNwyABAW/x2k9/3aeC/4T/jwN/XolPSKpHMJCQBAMAg3hitGniRJZ0h6Qb5OjX/r/7edogEAEAzim0vSrP4ahGpJP5CURrEAAAgGKJH0K0kbJf1OUjFFAgAgGCBd0vclrZb0kHzzOQAAQDCIc0mSvivfvAjXij4IAACCAeSb8fEBSfMlHUlxAAAIBpB8E0d9IOkx+WZmBACAYBDnDElXyDer4iSKAwBAMIAkjZQ0R9JFFAUAgGAAydc58Rn5pqQGAIBgAEnSXZJ+I18zAwAABAPoekl3UwwAAIIBdisc5+8AABhTSURBVPiRfFMqAwBAMIAk6T5Jp1EMAACCAXZc7z9JGk5RAAAIBpCkTEl/lJRAUQAACAaQpGnydUgEAIBgAEnSzyQNoxgAAAQDSFKypHsoBgAAwQA7fFO+xZcAACAYQIak2ykGAADBADvMlG/RJQAAZI+D17hY0gpJDZIad3m0SeqQ1C3J3f9vr6Tm/m/SmZIcklLla49PlJQuqUC+eQDK+h+l/c+L5lqDKyXdwJ8DACAegsFdkl4K4f4TJBVLGiNfe/0kSTMk5UVRGV0k35TJPfxJAADBAIHpk7Sh//Gv/p/ZJE2WdLakb0saEuGvIVvSKZL+yeUEgPhGH4PQ8Ej6TNLNkkokXSCpOsLP+ZtcNgAAwSD0euRbn2C0pBsltUfoeZ4sapAAgGBAEYQ1IPxa0jhJ70Tg+WVKmhoF5eiQlNX/yOn//0RuLyBof1vZ/e8HiFN8Qwy/df3fzh+UbzRAJDlO0n/DeDxDUn7/Y6h8Iz6K5eu4uePnef2PdElOP8JXu3yjTLZI2iSpXlKtpLr+f38laZWkXm5F04b0X5NMSRn9j/T+/8+UlLbLe0pC/+921dZ/bbb3l39r//Wq2eVRRzGH7L1+nHxDkysljeh/lPRft7T9fB7sGLHVIWlz//vXro8lktZTvAQDBK5X0lWSuiRdF0HnFaoagyHyNaWM3OUxSlK5gjvU07lLeBjS/0a4L139AWGxpC/7w9AC+fqGxKtESRW7fHCU7hLWhvYHAmcYzqOrPyBUS5q3y2MLbxumJEk6VNLRkqZLOqL/w99qLUJWf2g/ZB/P2SzpU0mf9P//PPmGgQP79Yl88wMM1uPsCC4bm3wjAbwR8mhWYM1LiZIOl3StpKf6r31jBL2+gR718vUFOV/RNdTUrAz5Vte8QtJDkt6StFa+0TWRfH3WSnpe0sUxfn0CDXdnSHquvzZmsK5Vu6RXJV0oKSXCy+y/g1RGtQQDgsFAciRtjaA3YDMrLhZLmiXpt/3XuStKQsCBHr2SXpP09SiuVUuUb06N2ZLulfS6fFW+sXB9+iS9L99Q4FTygI6W9Ex/sI+0a9XSH7iPIBgQDAgG5lweQX/Ixw1wnrnyDWt8Wr72RW8cPDZKurO/Sj1SOftraq6T9IKkpfK1DcfD9WmV9IB8zVLxxNZfOzAniq7V/P5ahEgK2wQDgkHEcvRXlUbCH+8VA5znijj5sNnXo02+WTQzIuB+SZZ0oqT7+j8YuuL4uuxay/O/8rWnxzKHfJ2WV0fxtVot32yrBsGAYEAwGNg1EfJHe/8A5/gKH0DaJt+6EoPxredwSe8SBA74eF2+DpSx5hj5OszGynX6TNIUgkFkVkchMvxVkdErvmKA3y3nMilHvvko5ij8q1KOk3SsmLfhQE6Vrznld4qNPgglkv4m6T1JB8XQdTpE0seSHpZv1AMIBtjDFklzI+A8ygkGfjlU0hfyjcBA5HFI+r58w1GPjOLX8R1Jy+Tr5BuLEiRd3f+3dDi3LcEAe/swAs5hoBnPlnGJduOSr+PbH/rf4BB5yuRrfvmRIqNN21/pkv4i6XFF/pC/YCiVr1r/5ii7TgQDhFwkfCNPIRiYdrGkl+WbVAaRxy7pHvnmQYiGa3SopIWSvhWH1+mXkl6StcmYQDCISZHwwTtQMGgWU9buz9fkm9QlhaKIWOfKN6GYK4LP8TxJHyn+hl/u6huS3pZvzQYQDOJeQwScQ5IGrhann8H+HS9fJzGaFSLXiZL+ofBM72zWNZL+GKHnFm6Hyde0UERREAzi3fYIOAfjAN+oCAYDO1W+6lBEdjh4VpHTlm1IukPS//CevJsx8vUPKaEoCAbxrD1CzmOgIV70MziwGyVdRjFEtG9K+kGEhILHJd3OJdmnUaJZgWAQ5yKl7bObGoOAPSTfipKIXHdr8CfYuUe+KdGxfyMVuc0/BAMM6jf1cGonGAQsUdJjYuhVJHPIt8DPYPWAv0q+4Xk4sCP7/55AMIg76RFwDm5JPQP8vka+dQNwYEdp4LUnMPgqJf1qEI47S75aJfjvYvma6UAwiCuRMETpQP0cvNQamHKPBp40CoPvMkmTw3i8KfKNPuD917y75VtOHASDuDEiAs7Bn9qAFVwqv2VK+i7FEPHvg+GqNUiV9JxY78Iqh6Rn+v8fBIO4MD4KagxEjYFp1ys2FvOJZcdIOiMMx3lU4V98KxbfJ39EMRAM4oEhaUYEnIc/y4Eu5XKZkiOGL0aDuxXazqKz+x8I3G3yrTYKgkHMp+DCCDiPNX48h6YE8+iEGPnG9dcchMJw+ZYXRnA4NTidRgkGCKuLI+Q8/AkGqyT1cslMqeIbTlQIVX+Q3yoyRh3FkpMU3UtqEwwwoGRJF0bIuaz24zk9kqq5bKbNoggi3tclDQ3yPo/r3y+C7ycUQfDZKYKIcJOkrCgKBpJvauRgdaLqllQvaaOkJkkt8q3kuF2+URLufWyTIV/bfb58c6mPUuSvbHiOmPo2Gt4TL5Z0VxD397sIfa29kuZJWiRfh+LN/X933j3+xkbKV9s1PQL/xk7oP6+PuHUJBrFkuCJn9jOv/GtKUP8biZlvQU3y9U1Y3h8+VsvXJLFB0rYgnLvRX5bTJB3df265EXatqySV9r/mWOCVtEXS1v5gV9//3139Hzrb5RtWlirfdN9lkobJN1V0JE9vOzOIweBqSWMj7PV9KN/oiDf7Q7i/nP1/W1fJt8x4pKwi+hP5mhUQRT7pfwMZrMfZEVw2SZLmDnL57PowM9rgogH2Uy3pBfkWqTlW0pBBCr2nybc6mzeCHt8K4DVdNojn/fv+b9KnSTpYvuVw7QHc99Pkm/xpXYRdH68kj4LTnJAhqTGCXtOrCt5ETqPkW78gEl5bX3/otOK/g3TOtYpzBIP9f3D9NcLeEJ8ycf5Tdtlui3yTtlwkqTgCy/q4/tqJSCjjQKbBHcxg8H/t3XmQlMUZx/Hvsst9gwgoyApyKIoRFS2NBxpFjZLEA+9YKQnmjySa0tJoosFIYijRGOMVg1pGxShGY+IZL9QCIhIQBFRQjuWUezl2gb3yx9NbbsjuMDP7vtP9zvw+VW/hsWz32z3vO8/bb/fTcT2RFblrdEFg18KPIji3GwM5l2XYkHscznMjRb7PcbwCAwUGSQ8MOgCvBPiklMnKiM5uOPK0gIYUU2kPvBBAG89VYNCollgegepAroVXmnk+rd3N3/d5vEz8qyF6A7MDCH6ymUyvwECBQRCOD/DpqH6o8cA8/yy2wHbT89nO1WSfDjefA4N6Y7BVL76vh600b9XW2ADOYXIOg/YOwHuezzebBHEKDJq4UUpulGLbhk4nvMlIAJ8Aq/O8D2rdqMj7HutQjFLipvIcNrnNt87Ye/Rs76s3BNCO47D377mwA5u0udDjOV+py0eBQRIUYVvvPgUsxrLfhdrmLxZIn1QBl2OrJHwZoksjpUeBKQHUY0SWf290M4KKKMx3AXBtjsvdAnwP2ObpvEcRb0prBQaStZbYkp47sSV577kvotB3A5tSQH20CrhdgUHQbiC9Db3idGyWf8/nvhi7gUuACk/lL8HfbqK9gSN06SgwCEFfbAnX7cDrwCZgGrb7V/+EnMMsbESjkDzoAgQfBuuy2ae1ro98OiaLv9MLv2vq78SSj/n0NPCup7LP0KXTfIWQ4Kg9mWUVbIMlY8H9vU7u6IJNzuvl/uyPvStulwdt9FABfvar3BfPbz2UfYBuPWl5GMuF4esBJpu5IJd4vK+uA+4KoN/qsN0Pp3sKDO7WpRM+36sSdKQ+NrhgqBCVYu9hc93m2U7QKoRVCXt71/P1kWn2zGke63pdYNfXDA9tUJHh/UyrEhqhVwlyL5bCthAtx8+wa0997NL2D8/lH5LBz3bHMjr6sAN4PLC+e9pDmW3RLqYKDKRZNgH3FXgb/NtDmd0IfzJqKF71XH4mrxNG4e81wvNktu9BLtQnFMu1YbpsFBhI9iZgG90UsgUeyiwinN00Q7cYe93ly8EZ/OxIj/X8Z4B9t5bM9l9RYKDAQDxbBDygZmCFp3LbqunTUodtNOZLJhuAneqpjlXA24H2n496KTBQYCBZqMWyy1WpKbwlOmqtpk/bPI9l90jz53qS2XyEKE0nvNcI9d5RYKDAQJLhHvymBQ6Jr0QwbdT0afvcY9nprkoYXmBfvuma5aHM7mhJcLOUqAkKzlzg1oTVuaO7QRdhOez3Dmi3YkPOldjs7EzmTdR4OicFBskIDNIdMTjaYx1nB9x367BVT7n+vB+EdjBUYCBp2YztNhnS8sQiYACWJri/++cBQB8XDOxH5sPuldjEp3XYXvGrgDJ3rACW4ndCG2hVQibKPJbdPc2f87lEbk7AfVcHrAQG5rhcjRgoMJA07AYucF+KPvUFTsLSzQ4HjiL6/eLbuiAjVUrqFVjyrQ36aARvPTYfxkcwle4k0VJPbbPSBb+hB3YKDBQYSGBqgCuwrGw+nrhGY0u5Tgb6BdIm/QKqi6RW6778+ngoO93RKl+BQW9sJDBk7T21iygwkCZUA1dhCVBypQs2OnERcBoaNpfm87WVbzqBQVsyW9YY9T1cOTE0YqDAQNK2C7iY3KWVHQj8GLja01OC5K9KT+W2cPfJ6hQ/0w+bKyMKDBQYSNA2YBMNc7Es8VjgDuBM3SAlJhUey26DrXZpSqm6Jzid1AQKDOR/zcSG8VfHXE5fbHvVsSgnhsTL50qa4n38f81VCY8yizaDbub5pRbbFOmUmIOCYuAWYAkwTp8jyYHKgOumd/zhUWZRjRgI8BHwU+LfLbAUeAJbYSCiwEBPpyFSAjGNGBS0Ndiqg+NyEBSMBuYrKBAPKgKuWzt1jwIDjRhICLYBfwAmAjtzUN5VwGR9ZsSTWgUGosBAgYE07ivgYRcU5GpnwF9gqw604kBEgUESaI6BAoOCsBCYBEwB9uSw3B8CE9T8IgoMEmS3mkCBQb7ajGUsfBLbc70ux+WfDTyobhBJSZMPw1OpJlBgkE+2Ay+5kYE3SZ1xLU7DgOf0GRHZpxo1gQIDBQYS9U3lY+Atd3yA/2GwEuAxoIO6R2SfdqkJ1CcKDKQ5yl0gMBdLV/yO+28huQ04Wl0loqdT9YkCA4nObmAF8AUwzwUCc4Cl5H6uQCa+Adys7hNJW4WaQH2iwKCwVWOTAuuPTe7P5e5Lf5k71hD22uumjNfnQiQjGrYOzyY1gQKDVO4h/YyAdcDWBgHA9gZP/ztdAFCex201BDhPl4VIRnaqCYKzWU2gwCCVmdiSP9m3mwg/TfZ2oMwdK7GETzvdU1ulC+hK3NER2+CmJ7A/0Ac4BK07l2h9pSYIzkY1gQIDab7OwGWB1akKm5w5E5uj8bELCJqjyAUIg4CBwAnAlep+aYZVagKNGCgwkHw0CmgVSF3KsJTPjxN92uc6N9KwEngbmK3AQBQY5B3NMVBgIBE4N4A67MH2ZJiEJnSJAoN0LAWOURf8H837UGAgzVQMnOO5DuuxbZ0/VHdIwmzAJij72LjnIGxpnvYGkMi0UBMIthqhu8fyNwMjFRRIQtVhOUt8Pdwdpi5I5MOYAgMJ2lDP5V8FLFI3SIJ97LHskWr+xGmjwEAUGDTtb8DL6gJJuHkeyz5TzZ84QS+ZVmAg4HcocpKaX/KAzxGD04ED1AWJUkI4q8AUGEijDvZUbhmaVyAKDKL4kvmBuiBxuikwkJB18lTuh4S9oZRIutbgNwPidVimT9EDmQIDiUR7T+V+qaaXPDLNY9n7AderCxKlvwIDCZmvJ41tanrJI296Lv9m4Ah1Q0b2eCx7gAIDCVUR/kYM9BpB8skbnstvBTyBNgnLRJXHsoPNWKnAQOqAGk9ld1DzSx5Zhf98HEcBT+renjafGSNPJtCVCfrwCFhKVR8OUtNLnvlXAHU4H3hI9/e0+HyV0Bk4S4GBhGqHp3IPV9NLnpkaSD3GAX/Bz/4NSbLFc/nXKjCQUPnaiexIAl7LK5KFGcDCQOpyuatPqbqlSb63Zz4NOFuBgYRom8fP3yVqfskzfw6oLsOB2cD3E96mrYAx7ojSxgDO7RGgrwIDCc0yj2X/jIBTg4pk4SlgV0D16Y6tVngLODpB7dgCOAm4F5vY+WwMgcGGAM6zj+ubASE1vMgXHss+BLhFXSB5ZBPwQoD1Oh34CHgRmxEfou7AhcCfgNXA+9h7+B7u/0e9r0tZIOc9CMsEOyaEyigwEN+BAcCtoVwQIhG5mzDzdBQB3wXew5ZW3gQM9lifvu7a/z32ymM9NoFzHNCriQeJKEcYlwYWFD2LJco6wWdFSnT9SgCBQQtgCpY7/C6gVl0iCTfHjRpcEHAdDwV+547PsZTOM4FZ7p4QVfKfEvclP8AFIYNd2cOAAzP8XS2BgUQ3wXM1tmQxpNeZ33LHHOy11OvApwoMxMdNrMpddL4UuxvU1cADwGT8rZYQicJt7um8OAF1rf/Cvsb9exU292gJ9h5+HbAVKHeBe8P7RQmWVr0t0AXo6o793YhAz4jb4LAIA4MaN2owJMA+Ge6Oe4C1wFxggeuTte7PxQoMJC473FPCiQHUZSA22ehXwGvYsNpb2OSjOHRR90tMFgHPAFcksO4tsffegwKsW9TzDOYGGhg01Nsd5zT4b1OJ6RWsAgOp904ggUG9rsBl7sA9sXzhjmXYEsuKBk8w9To1eDrpgr1TbYFlGeuK5U3o5i6yUveUIxKX8cBFKNFQlIZG/Pv+A1yawHaILV+GAgNpGBjcGnD9ernjm+oqSZAvgTuACWqKyBwaQ2CQRAvi+sValSD1PgBWqBlEIjcRm3Ev0RhMtPOhZpHM+UyxjRgoMJB6NcDjagaRyFVjk2r3qCki0RJbthiVCuCVhLXBbmJcTabAQBp61N3ERCRa87FVNxKNqCcgPpew8/8sznu1AgNpaBWWFU1EoncH8LaaIcjA4FX8b6iUiVg36lJgIHv7OTZMJSLRqsaWly1RUwQXGFQCf0zQ+S+I85crMJC9LcUSDIlI9DYDo7FkQRJOYACWP6VcgYECA2ncBMLYdUwkH32G5eeoUVNkbTDRL7cvB+5LyPnrVYLk3BZs/3btWSASj9ewfRR2qSmy0hroH8Pv/Q2WsTJkO4HlCgzEh9exDY1EJB4vYSlut6kpsjI0ht+5Gxgb+EPRorjrp8BAUvkltj2riMTjXeB09OouG4fF9HtnApMCPu+FcRegwEBSqcYmSs1SU4jEZjZwMrb1sfgPDABuBv4e6HkviLsABQayL9uAM1FKV5E4fQYcRXImv+V7YFCL7Yo5RyMGIo0rB87Chj1FJB6VwLXYboxazrhvQ/h6J9U47AROJbx0yRoxkGBsAs7ANoQRkfg8D4wAZqgpUmpDPCsTGtoOfCeg+145sFqBgYSkBsuMeBnJSh8qkjRLsC3GxwBlao4mHZqDMurve5cC6wMYLahTYCAhegYYiL0PVZIWkXjUAVPdl9/tKOdBY4bmsKy/YomVHsnFl3OKwCB2CgwkW1uw96EjsA1I6tQkIrGoAMYDhwOPob1MwFZMTcXyreTSVuAabDTnDQ/nvTAXhSgwkOaaA3wbOBJ4Em3b3JjtwHRshOUa4CTgIzWLZOhL4GrsvfpEkpPXP0qfYqMnB2OvWeZ6qscMbEL28djkxFwlRFqYLx050z1N+jou1P0kp/oCNwLzPPe7r2OZG0GZCFyMvXIpiqhtx3o8r1GeP1eTPZ5750CvtU7A9dh8hHy9nmrcw8ev3YhJqA4EbgIWx9we+yswUGCQdIe76H46UJVnN6wybBhzknuKGwF0jLk9FRgoMGjKCdiuqGsSfl1VAZ8A9wPnA90Sds8rAk7ENqKbEfF9b30uTyIXkVRrjx31FbYeVfzqiK0JPgV77XAk0CPwOle6p7GGx6dYrvJyT23oq83WuvbwpUcOAq+mLCc5G4oVAccA52Kplo8FWgVa1x0uCJiHvRKYi02uqyR/dHT3vBPdg9JQoDTL795pwMh8CQxEmtIbGAYMAvq5C6Yf9jpiP+JLXrIVe++/BVsTvN598a1zxxr3ZbAKTaqUZGsHHOcChOFYdsX+RL9lcSpbsFdsS90X/3x3LC3Q66sDlrVxiLsHNjx6uXtf+0YCuvuBnygwkELXGeiODSd2wSbL1g/rFmPvWHft9YSxh69HiOpcELDNPZ3scAGBSCErxkZyGwbj/YA+7kurrXvSbemuu1bui6rKXUNgI2a17lrbiG0CtQHLb7LRBdzL3KEsjtnrio24t3P3sY1qEhEREREREREREREREREREREREREREREREREREREREREREREREREREREREREREREREREREclb/wWMMUNlltTqCgAAAABJRU5ErkJggg==;" vertex="1" parent="eBVV9pK7qPTeHkyAM80o-22">
          <mxGeometry x="9.060000000000006" width="101.88" height="130" as="geometry" />
        </mxCell>
        <mxCell id="eBVV9pK7qPTeHkyAM80o-23" value="" style="group" vertex="1" connectable="0" parent="eBVV9pK7qPTeHkyAM80o-1">
          <mxGeometry x="263.28" y="80" width="123.44" height="120" as="geometry" />
        </mxCell>
        <mxCell id="eBVV9pK7qPTeHkyAM80o-3" value="&lt;br&gt;&lt;br&gt;&lt;br&gt;&lt;br&gt;&lt;br&gt;&lt;br&gt;&lt;b&gt;&lt;font style=&quot;font-size: 14px;&quot;&gt;Dask Scheduler&lt;/font&gt;&lt;/b&gt;" style="rounded=1;whiteSpace=wrap;html=1;" vertex="1" parent="eBVV9pK7qPTeHkyAM80o-23">
          <mxGeometry width="123.44" height="120" as="geometry" />
        </mxCell>
        <mxCell id="eBVV9pK7qPTeHkyAM80o-6" value="" style="shape=image;verticalLabelPosition=bottom;labelBackgroundColor=default;verticalAlign=top;aspect=fixed;imageAspect=0;image=data:image/png,iVBORw0KGgoAAAANSUhEUgAAAPsAAAEsCAMAAAAy4DW3AAADAFBMVEVHcEz/whj/whj/whj/whj/whj/whj/whj/whj/whj/whj/whj/whj/whj/whj/whj/whj/whj/whj/whj/whj/whj/whj/whj/whj/whj/whj/whj/whj/whj/whj/whj/whj/whj/whj/whj/whj/whj/whj/whj/whj/whj/whj7ek3/whj/whj/whj/whj/whj/whj/whj/whj/whj/whj/whj/whj/whj/whj/whj/whj/whj/whj/whj/whj/whj/whj/whj/whj/whj/whj/whj/whj/whj/whj/whj/whj/whj8bmv8bmv8bmv8bmv8bmv8bmv8bmv8bmv8bmv8bmv8bmv8bmv8bmv8bmv8bmv8bmv8bmv8bmv8bmv8bmv8bmv8bmv8bmv8bmv8bmv8bmv8bmv8bmv8bmv8bmv8bmv8bmv/whj8bmv8bmv8bmv8bmv8bmv/whj8bmv8bmv8bmv8bmv8bmv8bmv/whj0MWT8bmv8bmv8bmv8bmv8bmv8bmv8bmv/whj8bmv8bmv8bmv8bmv8bmv8bmv/whj8bmv8bmv8bmv/whj8bmv8bmv8bmv/whj8bmv8bmv8bmv8bmv8bmv8bmv8bmv8bmv8bmv8bmv8bmv/whj8bmv/whjvCWHvCWHvCWHvCWH8bmvvCWHvCWHvCWHvCWHvCWHvCWHvCWHvCWHvCWHvCWHvCWHvCWHvCWHvCWHvCWHvCWHvCWH8bmvvCWHvCWHvCWHvCWHvCWH8bmv8bmvvCWHvCWHvCWHvCWHvCWHvCWHvCWHvCWHvCWH8bmvvCWHvCWH8bmvvCWHvCWHvCWHvCWHvCWHvCWHvCWHvCWHvCWH8bmvvCWHvCWHvCWHvCWH8bmvvCWHvCWHvCWHvCWH8bmvvCWHvCWHvCWHvCWHvCWHvCWH8bmvvCWHvCWHvCWHvCWHvCWHvCWHvCWHvCWHvCWH8bmvvCWH8bmvvCWHvCWHvCWHvCWHvCWH8bmvvCWHvCWHvCWHvCWHvCWHvCWHvCWHLF/0PAAABAHRSTlMAAi1posrYz6hzNwaO1fr//d2dPQQZeP7nexAOWsL38fuaKor2cBYJUb2CAe4g4OpHE0qykzGYBxxex0Cu9BgMVMA6I4dNujVgzCfkbQQgSmBiWTYMEU+j2O338+bFfC4KRbH1//7cdhWZ+a0lZBx62v22tV6pEwdBbx4CK4/NF9X7Z0NRwPCG30hX0FVp0jKdyYCS6Rlz+j6J1LuDZo0Q3gkZFwgaHlqcvcuTTxt50fn+//fIaRQ7EWD7tTiM4z6w9NdHLOl1v579fn8EqPDUKInmcmuWDEw1ng4ghOBlKAZKLpbt3TkPQ6uPVKMi47lsM6baDsNuztY72SUHiyaa7NV2tAAADSZJREFUeAHk1wOSQ2EABOEkz5zYtm2uef/zrM3i4p++wVduz6/k9UmyoqqabpiWhyqvz3Zc3OUPBENhInokqvrxVCyeSLLIU+lMFq/KyhEKuRXSc3hbvpAioBdL8RjeV64IL69Kjh8fpvrEltfqDRef1WwJLA+bchufp1WFlbc6zS6+qtcXlT6QND++LGaIKa8NR1l81zgsoNw7mfbwfYWZePR5NOAHpT21WOYBRnt4td4AjHZvcRwHKO1bQ42B0r7b288CjHbrQM8BlPbDo7gflPatpOUBRnvt+CQLMNq9p8EeQGm/O1VKe/LsPA9Ke60/2gCM9pZv3AMo7fOo6gelfZfO+AFGe3il5wBGu/fCvgQo7dVr5s1ByZIgiKIx9jQWY9u2bfNZObZt47219alrb64nq+r8QMeJ6NuVt6uq1U+W2Lm3tXd0dnV19/Sm8A96ItJU6dz7+gcGNVqtVqc3GE1tfIPegG+1ELmbLVYbfGJoeGSUa1NtCZCYuaeYxjRD8BXjE5O8zLOm8KZK5D49MzsH3zI0P8mpqS7EShIz995Fwxz8yNIyh6DnRaUGSMzcV1aXdIAxvsZcfT1Iwc1J3Dc2t/SAA9vtjLdaGov9JYmZ+87a7hz8jL19pkE/KC2TKKhNQYN+eDQOv2B+hV1Tjc7NCKAwl6vysCmuZ+AYfsngJCv1G17uskRBenIa8rjJk1P4DZozRgPseVUkhXhAhOrthAyw+xdD8Dtsl0z62jVPmqD719dVIOtax7wN/gA7g6A3x7SQmEc6WuORoN+6rYE/Yo1NUyUgIDCmBvm+t88MD4EY7hV19TSve4Qndn58ufPOOAB7d7KmiuAfdo4FfXXCBiCGe9rddJLXXXb3wk6Om+7dBxDDPWuqiSjouc7Iuvbg4eAciOF+PbM0XKKgLOcAuSZj7jY8AuDljhwKJMDfrTEYWdceLx0DCOGeUnhTITEPUIIKkcdNPtEDiOEeElrsT6KequYhQR9dezoHYrgXlJRG0AR9ITsBaar9z7QAYrhH+waSmMsOl2C0qWoAxHAv9/Ijaqq1NU4/Br39+ekciOGeUJlEFHTXaiToyy+2cXP27terXWmCHp5UiQR95WxeCyCEu9P7rRYCZL9WZIDdMI1pAMRwz3Jx0AywGS+jU7CtltMhEMM9Ibs+lqipliD/n191402Vg7tTnkrUVItDf99Uubq/Id8cgGTngyD+/2zb5rNt2zZOz7Zt42w7c7Zt27bvs7HZu53nnWxV0mXXr1Jd051OBl4zprlrT7+NBFh24OANtbUqYDcxNTUz7/TQh4yiuWs9+j6OGN3iFh5gadn3W1pZ29ja2trY2ZvuZzKNo2ktH/fpiRh994WTRxEIanYHRydnDv4W5+Lq5s7+0/GniZpqLyTAeiBTCz27p5erN/By8fHt8q/XP6K46N2/38cUtH+Dnz/OQMpuHhAYBB0VHMIYY13ee5WiqU7A3sBePL91rfDsoXZhHHRWcABjbPIlpZN/OX4cEmBX4k2Vmt00PJgDRBGWjD3xsrJj3KWpiNG7XI7EjU7LbmIVEQWooqIZG6pk9Clj0aklBp9aaNljA+Li4U5KCGXdlbupPjsaMfq8WXhTpWXfn5iUDHeWcwp7VZl3bdRILMCuWo1/K0TLbpbq5A13kw9T6tQyHLnoK9LwqYWWPT3DxgXurjDlsfd48XOGTC0aNEa/+/6+PzMrHu4lTlnsw4ZiTTV79rJ1awl1YxXDlJObx8G9pRz2jwcP+gCdWtaspdQpnZVYgM23jQIQiP2d194eiNy1Ar+lapTk605eQNALi3yCAIRi7/FZvzfv8lEgkY4e2XsTuejFJaUAQrF/uR1rqitP6N2mJFe7cXBDF6yplnEgFPurz2zEmmo531RJtGT9nt1MQRVWrs4AArG/0/37MQyZWk77k5LfXjZ7LmL0yqp4AKHYP3kSa6qaxw4dpSRXU9+8iSkqsToZQCj2L7/7dgRi9LPb1tAaPQ37TcgsJSEKhGJ/9aWvMKNf5qcWEq3ZdhYhT6+JcAYQin3Ki58/hjTV5Wdo79pVg13IXfOtjQcQiv3TUccRoxvtuEpKvvaMPvKfRJe6pHoAwdiH9R2INlXiABs5ZxoSYN1woxOxf/LeCOSvlutLSckX681fiRi9qCEIQDj2T6YOQJrqwq2U5Ft1GzGjN2WVAgjI/uW1bxSa6gXaprrWXwcLsHXRZVEgJPs7n32g0FSbT9Eafac2YnR3fmoRin1w5xBboEPbVG+fvIAE2NjKQBcAYdm7fss6SLPxPK3RF97ahDVVuzAAodlfH9Dhrp3QW0cbYK+v6IJNLS0cCM4+5Xkmp4JI4gC7eg9y11qt2lwABGPHH7vHVVqjX51phE0tVUEAKmDvOo7xKj9PG2CXY00VmVoEYh/cS663nKQkX3Tl8n7E6O1OHKiIfSzf3ab5qdGRr9t2djeyqdrbeAOoiP1luQOn7U/XVM8f00SbaimAytiN+8k9drKL7q+/AftKKjcPQIXsg9/i374fogqwC9Cmmv+DN6iUfTv/wmLOKaKmigVY8xBkahGYfSiTafZiAnK1H/ciRu/ShEwtgrP3ZTIZrFM++dKDBfvvPrWokN2Qkn0J2lQrrPCmKib2o8tmZ2NTC/9RoFjZt27RwJpqaHUYgMjZF6XhTTU4CkTOvmb12ZV3n1rEyn77ENpUf8KnFjGxq/01tWBvYJOSORA5+40rWIA1c3OKAhA3+zq9+UhTNbdvcAYQN/vWQxexptpkXQogbna1pTpIU2WWuWUAImdf0uyBNVUvW28QOfs6dGoxCcEDrKjY/TcfZgraH1pSyoHI2bfq7ZmGGD385ygAkbOv09qETi3eAGJnP5q26+5Ti3jZ12lpKv7VUl0PIAH2nQro7u3BHEiB/eoBhaZq4wIgBfZTJ/CmKgV2rY7V5ZfcegCJsKtfZnKqwKcWkbL7dXjotUEAkmG/Uc54JTYASIh9p1x/cfABKbHfbmQy/fpblKTYl85hMlWGgaTYr/KbU2wWSIu9mT/uv7dIjD2mC/tfXi4SY29kMuWCxNj5LF/4h8TY1WbwF876T/boQAgAAIBBoL/1BGbQZ/BX2N77zs7+Y2dnZ2dnZ2dnZ2dnZ2dnZ2dnZ2dnZ2dnZ2dnZ2dnZ2dnZ2dnZ2dnZ2dnZ2dnZ2dnZ2dnZ2dnZ2dnZ2dnZ2dnZ2dnZ2cfefWMWFEUBGD4j23btm1nL6lul5Spwh2EXbrbxlYdbSDcQOxnv37Ov4PvYCZPXXvmsLL2qrxURe0dWm0YStqTRsZSQUV7UmVpHwi0R3qlZ8UO+SDSHuhFnl9S3AUy7f4e5dnzfoUg035OS4cHevLiqA9S7XdUBLj/6MFx8SDW/gQh2a7l0RnTRSDXrl9CguZyrwUmNoNk+8s30BvoLK+qzwXR9o0T/qt2xHfUTTYh3L62yn9loVqmjTyytSUVhNsPdjFV4xeQmWSAJ0XOu/7osux3N1aLT0JxfUnAyEhJTvq4D9Lt+unbBHYVFSYkuN5qsuznv+Xbg3rnTBTH8d/95FpeY23brG3bNrO1jXRT27ZtG1O3k2dnvnfw+SPJeU5mvMAb5Fi3dwS2yeDSnpHU6gXwaJcimuIBHu1iY8OgCri0Fw0kk+XM2yOD+r0AHu1S8ZQPwKW9rK8E4NJeVJi2AC7tkdEBE4CS9ndGCtnncsMEKGu/qqqIPae9jSCnan/kbCooYI9Kz5IBZe2pTi8FULdLwQnxgLJ2/U9xvwG07VJjQT2grP253t//AtTtHbWjMpS1v7v6xA+gbs8YDvUClLXbqt1RAXW7NB0TCyhrf3D/3heAun2odEmAsnYtqz/rANp2sWhgVsal9v+D4+iGt18LoG5PzOuvwiXXbHvMH93S4jeAtj0xs9wbl95/LkfJr783+gLQtos5fSUCKPTk3eH3NRPtzwB1e0Z6TwuodOftQ3KPUl1fAtTtiYRJ9bIS3miRH2Cv/PMbqNvFzvAw0Ovp/UeEO7qLaR1A2y7mtI/KoNkdqwN/9JlvTwHq9qikrAVQ7s59h72TqlqzCqjbE6ebYkE/jduG77a/c/1Pjr8BtO3iUEM9FOm3Oz/1bFf5j244W/5fB1C3Fw3UyFAsjX90tc0+Or78DaBujwoKrcKvFdl++asWduxDiyUq4NJe1JtGljNvj5wMqAJ4tEurqxaAR7vYEdImgH07eVL1Ani0JxJWLZzYOwv8Afbt5FWLCri0Rw63+gI82hMjyJMq+3ZpqGEe4NJeNJDcAi7tUUHkVQv7drG4PBbg0l4WUqIC9u3kSVUGeLCTVy082qXxcH+AOXvgj+NbnVTBYC3LJ5hUCQ+wTNRw7LtCTfFgtISoI+mNDfUCWG1+7shJtUYGu8ntR5xqCfUF09U0kuVSRIUPGE8OjyTIxbLFJbBfd20i6VRLC3jIuzZqrzxqkjCpMlp8eJm4I5cyc73BT/Jsbae0IY/M7MuWwVUtybmF0+PjwQMxbSpQohX3Hg89GiSf9gAAAABJRU5ErkJggg==;" vertex="1" parent="eBVV9pK7qPTeHkyAM80o-23">
          <mxGeometry x="26.53" y="10" width="66.93" height="80" as="geometry" />
        </mxCell>
        <mxCell id="eBVV9pK7qPTeHkyAM80o-24" value="" style="group" vertex="1" connectable="0" parent="eBVV9pK7qPTeHkyAM80o-1">
          <mxGeometry x="150" y="110" width="80" height="80" as="geometry" />
        </mxCell>
        <mxCell id="eBVV9pK7qPTeHkyAM80o-25" value="&lt;b&gt;&lt;br&gt;&lt;br&gt;&lt;br&gt;&lt;br&gt;Dask Worker&lt;/b&gt;" style="rounded=1;whiteSpace=wrap;html=1;" vertex="1" parent="eBVV9pK7qPTeHkyAM80o-24">
          <mxGeometry width="80" height="80" as="geometry" />
        </mxCell>
        <mxCell id="eBVV9pK7qPTeHkyAM80o-26" value="" style="shape=image;verticalLabelPosition=bottom;labelBackgroundColor=default;verticalAlign=top;aspect=fixed;imageAspect=0;image=data:image/png,iVBORw0KGgoAAAANSUhEUgAAAPsAAAEsCAMAAAAy4DW3AAADAFBMVEVHcEz/whj/whj/whj/whj/whj/whj/whj/whj/whj/whj/whj/whj/whj/whj/whj/whj/whj/whj/whj/whj/whj/whj/whj/whj/whj/whj/whj/whj/whj/whj/whj/whj/whj/whj/whj/whj/whj/whj/whj/whj/whj/whj7ek3/whj/whj/whj/whj/whj/whj/whj/whj/whj/whj/whj/whj/whj/whj/whj/whj/whj/whj/whj/whj/whj/whj/whj/whj/whj/whj/whj/whj/whj/whj/whj/whj/whj8bmv8bmv8bmv8bmv8bmv8bmv8bmv8bmv8bmv8bmv8bmv8bmv8bmv8bmv8bmv8bmv8bmv8bmv8bmv8bmv8bmv8bmv8bmv8bmv8bmv8bmv8bmv8bmv8bmv8bmv8bmv8bmv/whj8bmv8bmv8bmv8bmv8bmv/whj8bmv8bmv8bmv8bmv8bmv8bmv/whj0MWT8bmv8bmv8bmv8bmv8bmv8bmv8bmv/whj8bmv8bmv8bmv8bmv8bmv8bmv/whj8bmv8bmv8bmv/whj8bmv8bmv8bmv/whj8bmv8bmv8bmv8bmv8bmv8bmv8bmv8bmv8bmv8bmv8bmv/whj8bmv/whjvCWHvCWHvCWHvCWH8bmvvCWHvCWHvCWHvCWHvCWHvCWHvCWHvCWHvCWHvCWHvCWHvCWHvCWHvCWHvCWHvCWHvCWH8bmvvCWHvCWHvCWHvCWHvCWH8bmv8bmvvCWHvCWHvCWHvCWHvCWHvCWHvCWHvCWHvCWH8bmvvCWHvCWH8bmvvCWHvCWHvCWHvCWHvCWHvCWHvCWHvCWHvCWH8bmvvCWHvCWHvCWHvCWH8bmvvCWHvCWHvCWHvCWH8bmvvCWHvCWHvCWHvCWHvCWHvCWH8bmvvCWHvCWHvCWHvCWHvCWHvCWHvCWHvCWHvCWH8bmvvCWH8bmvvCWHvCWHvCWHvCWHvCWH8bmvvCWHvCWHvCWHvCWHvCWHvCWHvCWHLF/0PAAABAHRSTlMAAi1posrYz6hzNwaO1fr//d2dPQQZeP7nexAOWsL38fuaKor2cBYJUb2CAe4g4OpHE0qykzGYBxxex0Cu9BgMVMA6I4dNujVgzCfkbQQgSmBiWTYMEU+j2O338+bFfC4KRbH1//7cdhWZ+a0lZBx62v22tV6pEwdBbx4CK4/NF9X7Z0NRwPCG30hX0FVp0jKdyYCS6Rlz+j6J1LuDZo0Q3gkZFwgaHlqcvcuTTxt50fn+//fIaRQ7EWD7tTiM4z6w9NdHLOl1v579fn8EqPDUKInmcmuWDEw1ng4ghOBlKAZKLpbt3TkPQ6uPVKMi47lsM6baDsNuztY72SUHiyaa7NV2tAAADSZJREFUeAHk1wOSQ2EABOEkz5zYtm2uef/zrM3i4p++wVduz6/k9UmyoqqabpiWhyqvz3Zc3OUPBENhInokqvrxVCyeSLLIU+lMFq/KyhEKuRXSc3hbvpAioBdL8RjeV64IL69Kjh8fpvrEltfqDRef1WwJLA+bchufp1WFlbc6zS6+qtcXlT6QND++LGaIKa8NR1l81zgsoNw7mfbwfYWZePR5NOAHpT21WOYBRnt4td4AjHZvcRwHKO1bQ42B0r7b288CjHbrQM8BlPbDo7gflPatpOUBRnvt+CQLMNq9p8EeQGm/O1VKe/LsPA9Ke60/2gCM9pZv3AMo7fOo6gelfZfO+AFGe3il5wBGu/fCvgQo7dVr5s1ByZIgiKIx9jQWY9u2bfNZObZt47219alrb64nq+r8QMeJ6NuVt6uq1U+W2Lm3tXd0dnV19/Sm8A96ItJU6dz7+gcGNVqtVqc3GE1tfIPegG+1ELmbLVYbfGJoeGSUa1NtCZCYuaeYxjRD8BXjE5O8zLOm8KZK5D49MzsH3zI0P8mpqS7EShIz995Fwxz8yNIyh6DnRaUGSMzcV1aXdIAxvsZcfT1Iwc1J3Dc2t/SAA9vtjLdaGov9JYmZ+87a7hz8jL19pkE/KC2TKKhNQYN+eDQOv2B+hV1Tjc7NCKAwl6vysCmuZ+AYfsngJCv1G17uskRBenIa8rjJk1P4DZozRgPseVUkhXhAhOrthAyw+xdD8Dtsl0z62jVPmqD719dVIOtax7wN/gA7g6A3x7SQmEc6WuORoN+6rYE/Yo1NUyUgIDCmBvm+t88MD4EY7hV19TSve4Qndn58ufPOOAB7d7KmiuAfdo4FfXXCBiCGe9rddJLXXXb3wk6Om+7dBxDDPWuqiSjouc7Iuvbg4eAciOF+PbM0XKKgLOcAuSZj7jY8AuDljhwKJMDfrTEYWdceLx0DCOGeUnhTITEPUIIKkcdNPtEDiOEeElrsT6KequYhQR9dezoHYrgXlJRG0AR9ITsBaar9z7QAYrhH+waSmMsOl2C0qWoAxHAv9/Ijaqq1NU4/Br39+ekciOGeUJlEFHTXaiToyy+2cXP27terXWmCHp5UiQR95WxeCyCEu9P7rRYCZL9WZIDdMI1pAMRwz3Jx0AywGS+jU7CtltMhEMM9Ibs+lqipliD/n191402Vg7tTnkrUVItDf99Uubq/Id8cgGTngyD+/2zb5rNt2zZOz7Zt42w7c7Zt27bvs7HZu53nnWxV0mXXr1Jd051OBl4zprlrT7+NBFh24OANtbUqYDcxNTUz7/TQh4yiuWs9+j6OGN3iFh5gadn3W1pZ29ja2trY2ZvuZzKNo2ktH/fpiRh994WTRxEIanYHRydnDv4W5+Lq5s7+0/GniZpqLyTAeiBTCz27p5erN/By8fHt8q/XP6K46N2/38cUtH+Dnz/OQMpuHhAYBB0VHMIYY13ee5WiqU7A3sBePL91rfDsoXZhHHRWcABjbPIlpZN/OX4cEmBX4k2Vmt00PJgDRBGWjD3xsrJj3KWpiNG7XI7EjU7LbmIVEQWooqIZG6pk9Clj0aklBp9aaNljA+Li4U5KCGXdlbupPjsaMfq8WXhTpWXfn5iUDHeWcwp7VZl3bdRILMCuWo1/K0TLbpbq5A13kw9T6tQyHLnoK9LwqYWWPT3DxgXurjDlsfd48XOGTC0aNEa/+/6+PzMrHu4lTlnsw4ZiTTV79rJ1awl1YxXDlJObx8G9pRz2jwcP+gCdWtaspdQpnZVYgM23jQIQiP2d194eiNy1Ar+lapTk605eQNALi3yCAIRi7/FZvzfv8lEgkY4e2XsTuejFJaUAQrF/uR1rqitP6N2mJFe7cXBDF6yplnEgFPurz2zEmmo531RJtGT9nt1MQRVWrs4AArG/0/37MQyZWk77k5LfXjZ7LmL0yqp4AKHYP3kSa6qaxw4dpSRXU9+8iSkqsToZQCj2L7/7dgRi9LPb1tAaPQ37TcgsJSEKhGJ/9aWvMKNf5qcWEq3ZdhYhT6+JcAYQin3Ki58/hjTV5Wdo79pVg13IXfOtjQcQiv3TUccRoxvtuEpKvvaMPvKfRJe6pHoAwdiH9R2INlXiABs5ZxoSYN1woxOxf/LeCOSvlutLSckX681fiRi9qCEIQDj2T6YOQJrqwq2U5Ft1GzGjN2WVAgjI/uW1bxSa6gXaprrWXwcLsHXRZVEgJPs7n32g0FSbT9Eafac2YnR3fmoRin1w5xBboEPbVG+fvIAE2NjKQBcAYdm7fss6SLPxPK3RF97ahDVVuzAAodlfH9Dhrp3QW0cbYK+v6IJNLS0cCM4+5Xkmp4JI4gC7eg9y11qt2lwABGPHH7vHVVqjX51phE0tVUEAKmDvOo7xKj9PG2CXY00VmVoEYh/cS663nKQkX3Tl8n7E6O1OHKiIfSzf3ab5qdGRr9t2djeyqdrbeAOoiP1luQOn7U/XVM8f00SbaimAytiN+8k9drKL7q+/AftKKjcPQIXsg9/i374fogqwC9Cmmv+DN6iUfTv/wmLOKaKmigVY8xBkahGYfSiTafZiAnK1H/ciRu/ShEwtgrP3ZTIZrFM++dKDBfvvPrWokN2Qkn0J2lQrrPCmKib2o8tmZ2NTC/9RoFjZt27RwJpqaHUYgMjZF6XhTTU4CkTOvmb12ZV3n1rEyn77ENpUf8KnFjGxq/01tWBvYJOSORA5+40rWIA1c3OKAhA3+zq9+UhTNbdvcAYQN/vWQxexptpkXQogbna1pTpIU2WWuWUAImdf0uyBNVUvW28QOfs6dGoxCcEDrKjY/TcfZgraH1pSyoHI2bfq7ZmGGD385ygAkbOv09qETi3eAGJnP5q26+5Ti3jZ12lpKv7VUl0PIAH2nQro7u3BHEiB/eoBhaZq4wIgBfZTJ/CmKgV2rY7V5ZfcegCJsKtfZnKqwKcWkbL7dXjotUEAkmG/Uc54JTYASIh9p1x/cfABKbHfbmQy/fpblKTYl85hMlWGgaTYr/KbU2wWSIu9mT/uv7dIjD2mC/tfXi4SY29kMuWCxNj5LF/4h8TY1WbwF876T/boQAgAAIBBoL/1BGbQZ/BX2N77zs7+Y2dnZ2dnZ2dnZ2dnZ2dnZ2dnZ2dnZ2dnZ2dnZ2dnZ2dnZ2dnZ2dnZ2dnZ2dnZ2dnZ2dnZ2dnZ2dnZ2dnZ2dnZ2dnZ2cfefWMWFEUBGD4j23btm1nL6lul5Spwh2EXbrbxlYdbSDcQOxnv37Ov4PvYCZPXXvmsLL2qrxURe0dWm0YStqTRsZSQUV7UmVpHwi0R3qlZ8UO+SDSHuhFnl9S3AUy7f4e5dnzfoUg035OS4cHevLiqA9S7XdUBLj/6MFx8SDW/gQh2a7l0RnTRSDXrl9CguZyrwUmNoNk+8s30BvoLK+qzwXR9o0T/qt2xHfUTTYh3L62yn9loVqmjTyytSUVhNsPdjFV4xeQmWSAJ0XOu/7osux3N1aLT0JxfUnAyEhJTvq4D9Lt+unbBHYVFSYkuN5qsuznv+Xbg3rnTBTH8d/95FpeY23brG3bNrO1jXRT27ZtG1O3k2dnvnfw+SPJeU5mvMAb5Fi3dwS2yeDSnpHU6gXwaJcimuIBHu1iY8OgCri0Fw0kk+XM2yOD+r0AHu1S8ZQPwKW9rK8E4NJeVJi2AC7tkdEBE4CS9ndGCtnncsMEKGu/qqqIPae9jSCnan/kbCooYI9Kz5IBZe2pTi8FULdLwQnxgLJ2/U9xvwG07VJjQT2grP253t//AtTtHbWjMpS1v7v6xA+gbs8YDvUClLXbqt1RAXW7NB0TCyhrf3D/3heAun2odEmAsnYtqz/rANp2sWhgVsal9v+D4+iGt18LoG5PzOuvwiXXbHvMH93S4jeAtj0xs9wbl95/LkfJr783+gLQtos5fSUCKPTk3eH3NRPtzwB1e0Z6TwuodOftQ3KPUl1fAtTtiYRJ9bIS3miRH2Cv/PMbqNvFzvAw0Ovp/UeEO7qLaR1A2y7mtI/KoNkdqwN/9JlvTwHq9qikrAVQ7s59h72TqlqzCqjbE6ebYkE/jduG77a/c/1Pjr8BtO3iUEM9FOm3Oz/1bFf5j244W/5fB1C3Fw3UyFAsjX90tc0+Or78DaBujwoKrcKvFdl++asWduxDiyUq4NJe1JtGljNvj5wMqAJ4tEurqxaAR7vYEdImgH07eVL1Ani0JxJWLZzYOwv8Afbt5FWLCri0Rw63+gI82hMjyJMq+3ZpqGEe4NJeNJDcAi7tUUHkVQv7drG4PBbg0l4WUqIC9u3kSVUGeLCTVy082qXxcH+AOXvgj+NbnVTBYC3LJ5hUCQ+wTNRw7LtCTfFgtISoI+mNDfUCWG1+7shJtUYGu8ntR5xqCfUF09U0kuVSRIUPGE8OjyTIxbLFJbBfd20i6VRLC3jIuzZqrzxqkjCpMlp8eJm4I5cyc73BT/Jsbae0IY/M7MuWwVUtybmF0+PjwQMxbSpQohX3Hg89GiSf9gAAAABJRU5ErkJggg==;" vertex="1" parent="eBVV9pK7qPTeHkyAM80o-24">
          <mxGeometry x="19.080000000000013" y="10" width="41.83" height="50" as="geometry" />
        </mxCell>
        <mxCell id="eBVV9pK7qPTeHkyAM80o-16" value="" style="dashed=0;outlineConnect=0;html=1;align=center;labelPosition=center;verticalLabelPosition=bottom;verticalAlign=top;shape=mxgraph.weblogos.github" vertex="1" parent="1">
          <mxGeometry x="70" y="50" width="160" height="150" as="geometry" />
        </mxCell>
        <mxCell id="eBVV9pK7qPTeHkyAM80o-17" value="" style="shape=image;verticalLabelPosition=bottom;labelBackgroundColor=default;verticalAlign=top;aspect=fixed;imageAspect=0;image=https://helm.sh/img/helm.svg;" vertex="1" parent="1">
          <mxGeometry x="290" y="-10.090000000000032" width="234" height="270.18" as="geometry" />
        </mxCell>
        <mxCell id="eBVV9pK7qPTeHkyAM80o-19" value="" style="group" vertex="1" connectable="0" parent="1">
          <mxGeometry x="810" y="490" width="150" height="170" as="geometry" />
        </mxCell>
        <mxCell id="eBVV9pK7qPTeHkyAM80o-20" value="&lt;br&gt;&lt;br&gt;&lt;br&gt;&lt;br&gt;&lt;br&gt;&lt;br&gt;&lt;br&gt;&lt;br&gt;&lt;b&gt;Argo CD&lt;br&gt;Continuous Deployment&lt;/b&gt;" style="rounded=1;whiteSpace=wrap;html=1;labelBackgroundColor=none;fillColor=#012169;opacity=40;" vertex="1" parent="eBVV9pK7qPTeHkyAM80o-19">
          <mxGeometry y="10" width="150" height="160" as="geometry" />
        </mxCell>
        <mxCell id="eBVV9pK7qPTeHkyAM80o-21" value="" style="shape=image;verticalLabelPosition=bottom;labelBackgroundColor=default;verticalAlign=top;aspect=fixed;imageAspect=0;image=data:image/png,iVBORw0KGgoAAAANSUhEUgAAAQwAAAEMCAYAAAAxjIiTAAABhWlDQ1BJQ0MgcHJvZmlsZQAAKJF9kT1Iw0AcxV9bpSr1Ayyi4pChOtlFRRxLFYtgobQVWnUwufQLmjQkKS6OgmvBwY/FqoOLs64OroIg+AHi6uKk6CIl/i8ptIjx4Lgf7+497t4B3nqZKUZHBFBUU0/GokImuyr4X9GNEQxhAH0iM7R4ajEN1/F1Dw9f78I8y/3cn6NXzhkM8AjEEabpJvEG8eymqXHeJw6yoigTnxNP6nRB4keuSw6/cS7Y7OWZQT2dnCcOEguFNpbamBV1hXiGOCQrKuV7Mw7LnLc4K+Uqa96TvzCQU1dSXKc5hhiWEEcCAiRUUUIZJsK0qqQYSNJ+1MU/avsT5JLIVQIjxwIqUCDafvA/+N2tkZ+ecpICUaDzxbI+xgH/LtCoWdb3sWU1TgDfM3CltvyVOjD3SXqtpYWOgP5t4OK6pUl7wOUOMPykibpoSz6a3nweeD+jb8oCg7dAz5rTW3Mfpw9AmrpavgEODoGJAmWvu7y7q723f880+/sBkolys87A/lUAAAAGYktHRADyAM4Azixa7L8AAAAJcEhZcwAACxMAAAsTAQCanBgAAAAHdElNRQfnCRkWEB3W+1q0AAAgAElEQVR42uy9d5Qk133f+/ndquo0eWYzclzkDBIkSAQGgABEElagKVKSadE6epRkP9kWjxLN8+wj0vKz/Y5sPdnke480KUaIpAiCRCQCAZAAkbFY5LBY7C42T57pVHXv7/1R3buzO92zO9PV0z1Afc+ZM8Bsh6pb937v7/e9vwApUqRIkSJFihQpUqRIkSJFihQpUqRIkSJFihQpUqRIkSJFihQpUqRIkSJFihQpUqRIkSJFihQpUqRIkSJFihQpUqRIkSJFihQpUqRIkSJFihQpUqRIkSJFihQpUqRIkSJFihQpUqRIkSJFihQpUqRIkSJFihQpUqRIkSJFihQpUqRIkSJFihQpUqRIkSJFihQpUqRIkSJFihQpUqRIkSJFihQpugySDsHbB3c+MiXVoOJ7Ynxj1A89l1G8rG81Z9GcqGSBrEEzBjyQAEQUEFQVDRGJjFJ1hqpTKkApslrxVcqIVD2PyOJsNnLRBy5eq+mop4SRosvxo827slkb9KoyBAyJ6CqQtSqsAVYLjADDCAMKvSgFICeQBXzAq80N78AMiZe+BVz8WyNFKkAFmBWYVmVShHFgFHQvsBfYK8o+VRkPxUyEyMyvXjBUTZ9SShgplhm3PrLLI5/N4dygim7wlROd6MkicpIox4GsBYaAfqCHmBDMMl2erZMJMAWMAXsU3YaY19XpFie61ajs9GEqsn75+osHXfpUU8JIkRDu2rzHs9YfUvRYxJ0iKmeKyJkKpwlsAAaAXM1K6GaEQBl0QpAdCq8qPK/KC4puMcjOCfrHf/OCTEogKWGkOFrc/PikIVPu9THHek7OEeEihHNRTgHWAX1HazHoQbdi/gxQkAYzYe7ftMF7VefMIJ3/uYucXE5hUmAXwmsom1T1KQfPBrBLxt3MB69ONZGUMFIcgh88Ou7nstFaEdkoyqXAOwTOBdYDhaMhiLnkIAJGQETwjGCM4HngmYP/f+BHwIggdbKovQ9VVOOPVAVVxSlYpzinOFWs1dr/x3+3TlEXv24u2cjRzzgbuzP6JspmxPzSOXnCqXt598yOff/iigtsOltSwnhb4ieP7Q084602nl6g8F6EdwIbgTULuRcHFmJtNzcieJ7ge0LgGzKBkPENvi/4nolJwhOMxORwgBAWt5APsJLOuQ6tkYpTrREGRJEjso4wVKqRI4wcYaQHiOZwYjsKN2Y38CLwsIMHVaPNmTDY/8FLR1LySAnjrY3P3z4j79pQXAtyriBXK1whcCYwuJAVoXrQavA8QyYwZANDNhP/zgQGr0YOIk0Wojb2ThKZUNL4mlXBOY0JJHJUQqVStVRCRzV0RLZGInpU5GEVxgSeQ/mZiD4gjs3PXbBq9F/Hp8ApUsJ4a+DOTeMFq9FGT3ifQz4ocB6wthFJHNiBawQR+DEp5LMeuaxHNjAEvjngTtSfpmqXTzg5SFrOaY1AHJWKpVSxlKsxqcx1ZxYgEQvsAp7C8VM1eq8iW64/f1UpnW0pYaxI/J8vjco5RV0vRi8DuUHgSuA4ILOQFeF7EhNEzqeQ88hlDhKESPuthWWbhHPuxakSRrH1USxbihVLpeqIagRyBOujAmwF7lXlVpw8ft1FI3vSGZgSxorAzZt2Bh7BSb7KtQIfRriIOGiqoSVRJ4l81qM375OvkYTnGWra49tnYtbu1zqlGjqKpYjZsqVYjoiiWEw9guWxF3hUndzijN7tqmz78KWrUq0jJYzuw22bRnMYPddYPoLor4CcQRwfMY8ohDkkUfDpzXtkAg/PyCGm+9t6ktZmqauRx2zJMlOKKJUt1cgdSfcogj6nyM2K3mqde+HDF65NI01TwugConhyLI/R8w36MYTrgVM47JSjbk14RshlDX0Fn95CQC5z0NXQVLY7InlYp1SrjplSxPRsRKli46Pc5uQRKryI8hNVflDydfOvnbs6JY6UMJYfP356LO+rXiSiH1fhVwSO5zARsz6RM76hp+DR3xNQyHn4b0N3I1HyUIicUipbpmZDZkoR1arDNZ/cFnhNlZsVvq/qNt1w4ZqUOFLCaD9ufXo0MHCuMXxSVT8CnNyIKIyBbMZjoMenr+egNZGSRLLk4RxUQ8t0MWJyJqRccVinzSwOC7ysqj8QlZtc6L1w/TuGUo0jJYzk8YNXxkzPrJ6O6MeBfwqcRpzheQhReJ5QyHoM9gb09vgEfmpNLJvVYZWZYsjETMRsOSKy2myyR8DzKN9SlR+MToxv+a2rT02fUEoYyeCOp0bXYvRXgX8GXMhhR6N1oujJeQz1BfQUfALPHNQvUizr5LZOmS1FTMyETBcXJI4y8AgqX1Vrbr3u4qHRdARTwlgy7npiosf69n2C/h7wPuJ08XlE0Zv3DxCFbyQlia5xV5TZsmV8qnok4phUlbtE+LIKD1133kgaAJYSxtHjHzbvlEGXOcupfBrRjwHHzCMKA4W8z3BfQG8hwPdSouhW4qhbHONTscVhbVONYyvItyPhq5kKW665dCR9pClhLIwfP7tvOLByowh/oMoFc3UKrU3AQtZjuD9Df09KFCuKOKwyU4wYm6oyU4riKNL5Lw2BR0D/hzrv1usuHJ5KCSPFfKvioadNT37DBZ4xfwTcSFy16hBkAsNwf4bB3oBMYFKiWKGTP7SOqZmQ0amQcsWijRfFPuAmVfel/Ozq56+6/O2b4JYSxuFaxVOjg87wG6j+EcK5c8dIAd8IA70BIwMZclmvHoyZYoUvgkroGJuqMjFdpRo11DecCo/j3H+zVn78Kxevnk4J422OO5/Zf5Yq/5L4qHToEPcD6Ml5jAxm6Sv4eKmg+ZZbCE5hthQxOllhutjMTdG9KvJN4O+uO2/VlpQw3oa47am9eWPMtcBngcuYE3ylCkFgGO4LGB7IkPFT9+Otrm9EkTIxXWV0qkql2rCsaAg8YJ3+l0xk7v3gpSPVlDDeJrh98/7VOPk9QT8DHHu4VdGb91k9lKU376ej9TZDqWzZP1FhajbENhZFX1PlvxvRb1x7/urxlDDe6i7I0/vPc8JnBX6VuF7mAbIIPGF4IMNIf4YgtSrettaGtcr4dJX9E1UqoWu0YKaA76rlv1x30apXUsJ4C+IHT435BePeD3xO4F0cFtZdyHmsGcrSWwgw0n5RU6gV5a2RlVXFpgzVVSiWIvZOVJiejZq5KPd5Kl+Y8uXnv3bOsEsJ4y2COzaN9QrukxrrFafMtSo8Iwz2+awezJINvGWxKgIj9PhC1hNM7XFEqpSsUqxVmVpOzM9zmX/QKG/DbUYEwkgZnagwOlVtFin6vEO/ULWVH9540bGllDBWOG57cnSN8dwfgvwBsGruksj4wurBLEP9GYxZnmEJjDCYMQRNvq8YOabCZEgjbhFQbxdQL/+vuPrfa2ShR6rYIyDUCgwTVx039d+1KuT1v78VJ5cqTM1U2TNeoVyd76Io7AT330KR/+cj562eSAljheInT+4+2fP8vxT4+Fy9ou6CrB2OXZDlghEYzHjkPFlwkU9XHTPR4ixcV+sbEv9WbO13/e9aMyO0DROpThxxKwPBEznw3/W/vxVQqlj2jpWZauyiTCF8VcT7r9eeO7QjJYwVhts37T9fkP8D9AYgmHv3Az0Ba4ez5DLesgqbWSMMZT2OZMxUrDJetU2tjLrlYFWJnGKdw9bIom45dIM5L9QJBDxj8E1MJivVEhGBaujYN15hfCrE6jwXpYzq91X03193/ppXU8JYCS7IC1NGw8q7PJUvAFfMvV9jhJGBDKsHs/j+8hez6fENA5kjdzm0qoxVHOEcxnBzCCJycZEY1yXksJiJZ0Ri4phDICvJApHasxidrLJvvEI0X6m2KHeoep+/7sKhJ1PC6GJ8b9NW6aP3A8BfAZfW71UVAl9YM5RleCCDkc5EbC6GMEYrlkqtFWHkYvKouxhvFdTdlsAIfo1AVgp5xLpGyJ6xMuX5R68OeMA578+3Z8cf+f2zTtaUMLoMP3p6lx+od50x5ovAOYe4AoFh3UiO/t6go9eY9YShzJFdkpJ17JoNKVt7sL3gWxz1Y+bAGAITd3FbCeQxW4rYPVpmtmwbiaGPKfz5xHTlvk+85xiXEkaX4M7HRz313UcR/grkzLm+fiHrsW4kR2/B74IdFYYyHtkjiJ57iiH7Sm/fGrUC+MYQeIZMjTy6+VpLFcuu0TIzxYZi6FM4/tSWS/fc8K7jXEoYHcYdT+4P1HCjCF8ETp278HrzHutH8hRyXtfs0llPGMgY/Ca752TFsqtYOUS/eDvDiJCpkUdg5EAj6W5bUJXQsnu0wuRM2Oglz6jyp5VqeNeN71jvUsLoEO55bLcJA++fIPIfiYvyHkBvwWfDqtyynYTUTWpDnAEZLaA1+AJ5X8j7Bq/2OEKnTIUR+0sRoXMpUzSxOrJeTB7d6K6EkWP3aJmJ6YaksUkdn512k3d/7OJTNCWMZcYPHtvj92T860H/M3D63H/r7/FZvyrXgchNc0BFL1llJnSHfL9VpWodFWtBIevFQh9AxTqqdsHeGikOEHNMHJkuI464OI+yZ7TM+HS10Snc0xb32aGo/553X5xbMaThr/RJc9OmihSYej/oF+aRRa/P+pE82WWoiGUECr6h4MshLoYRobfWg2Qmcrg5RBHNcTVmIzuPxVOyWBgKRM4ROUfFdhdxKHELzLUjOURgbLJ6+By8wGC+MOHNzAIPpxbGMuDnz26XGZd/Dyp/A3rRPMtidZ5smzNNpaZF9PhmQQGz6pRdsyHFKDqEKFIkvAMaQ65GHN2gcQhxj5Q9o2XGpqqN5uKDqvKvr7tg5IkVoSOt5MkxbQsXovwV6IVzmb2/4LN+VfvJwhPoCwyDRzjtqKNibSpgthmRc8yGETNhRNW6jgvcStx+Ys1IjsH+TKOXXC6i/+H2TftPSwmjjbjlqX2nCvofgPfWLSUF+vJ1zaK9ZJH14tDu3sBwNCd9YS3wKnUzlmeRVq1jJgwpht1h0QWesG4kx2Bf0GgNXgv8+9ue3nt8ShhtwI+f2b/ON/wlcM1csujJeTFZtPE0xAj01qyKzFHGBDiFyWq04GlJijYQh0I5ssxUQ8qRPZB010lNY91Ijv6eoJGx+k88zL+9/cmxoZQwEsRtT+3r85R/Y5CPMyeRLJ8xrF+VI59tH1kERhjIePQFBu8oTYWKVXYXq4xXwnQFdwhWNXZTqhFRh4+pM75h/UiW3vy8eZpT4Z+Lcf/bbZt3F1LCSAB3bdqVMUZ/x8CngVx9F8n4cbh3Iee3jSxyXly7Iu8dXXalVWWsHLFtpsxoOSSVLjqPqnNMVyNKUdQxa0OBbMZj3aochaw5/Li1D+FfGev/2g+feNOkhNEC/ucDFXH414P5LDBc/7vvC2tHsvT1tCc3RDjoggRH6YLMRo4dM1V2FiuUojTwqpvgVCmGlpmwc9ZGnKZQO/Kfn4C4DviLnMlcec8rE5ISxhJxcv/U+SB/DpxwYDFLXCVroDfTlu/0BPozhr6jFDYjp+wrheyYrjBZjVBNYym61tqwjplqRMV2jjR6Cj5rh7N4h7fYFDaKyF9WiuHGlDCWgDs37T9ORf6SOE39AIb74w5k7Thu92t6RY9vjmrRFyPHm7NV9hSrVJx7ixCFzPl5i2ob1fgkpVOlAgZ645osh21IgnCVwGdv3zw6khLGInDz5j15hd8Hbpg7c/sKcb+QdmQvZmq1NnNHoWw6VUbLEdtnalbFSlleImAMajzUeGC8+P/r7KuKqEVcFP+oi/dFAYyJX+/5B98rZkVWB1agFFlmwwjbAaHJCIwMZBjqa3RyIr+B1U/9eNPebDdtIV2L254c9YzRjyH8DbCm/oDzGY9j1+Qp5L3EK2VlPaE/MEelV1RrLshEJWpUoq37CEIERRB1SFjBlGcxxWm84iSmOIVXmsaUZ5ByCSplJIoQG4ER1PhokEGDLJorYPN9uJ7++KfQjy30oZkC6ge179BaCfKVo/b6Rij4PoFnln0RVkPHjr0lpovR4bz7hoM/6un1b73ylMGOD2ZX55J4ouer8G/qZAHxWfaa4Wycpp7w8OU8oX+BdPO5mI0ce4tVZkLbpcwr8faFgLOY8ize1H6C0TcJ9m0nGN2FNz2KmZ3EVIpIWEGsBXXUKgij1sX1og5Z9rXPNSYmh0wOzfdi+waJhtYQrTqWcM1xRCMbsL2DaJCN36Maf3YXI3LKTBhRUI+s7y2rlZMJDGuHs1Qjd3jDpBMM/MnMdOUl4JUumFVdal08NbbKGPs3IJ+oX6cIrBnKsnool7j1m/eE/ox3xPgKBSYrEXtKIRXbhVqFSOwe2BB/eoxg7zayb75MsOu1mCRK0xCFoK7WeV7qozvfpVBQp2hcVfiwf9M5vzW2KERQz0MzOezAMNHa46kcexrhhlMJVx+Ly/XG16YOujiITYC875PzvWX1sgQYm6qya3/5cPcoQvmydeYvb7hoeDIljMNw5zPjgVX7GRPX4+yrL9TB3oANq/P4XrKXnfeF/uDIZFHXK/aVQqKuckHiHR91mOIUmV2vkXv9GbI7XsIf2x1bEKqxPiFLEDFVcZFy1O3Yau6IoKjn4/oGCNedQOXEs6icfB7hyDFoJt/VVocAOd8j73vLmsTmXJyotn9yXpW1UeDfFqTvG1ecl+3YoHWlS6LWvcsY/rBOFgC5jGHNUJYg4Qrfee/oyCJyyt5SyFglDsKSbiIKGxLs3U5uy9PkX32CzJ5tSLkYL1gxIAZt5YJFMIGgUnNT9Mivp15cWRUzMUZuYpTsK5tw/XdQOeFMymdcSuX4M7F9w7VeCd1FHHUxVFXJB/6ypcx7Rlg1lKVUtcyUDqkNOgLyv8+6mU3A06mFUcMdT+xfrT7/Q+DX6tdnjLBhVY6h/mTjLXJefHR6JLKoWmVPsXrgFKRbiEKikGDfVgrPP0zu1acIxneDjdp6YqFW0cgtXctUh6ji8gXCY06hdPZllE67GDuwur7Fdt0GlvUMhWUkDQGmiyHb95QID23JaFX5KiJ/et35I+Nve8L4yaaxwFP7ByLyBaCn/vfh/gzrV+USbWGY9YTBoyCLinXsnD0obnYcxiDWEuzZSs9zD5B/6TG8qbF4hzZmeR6pU1x0UBBdGnEoog4NMoQbTqB43hWUzngHtn/VAZfm7UwaAHvHy+wZqxxOzuOq8m9K47m//9Wre5adXbvKJfHFXgjyL+pkoUA+a1g1GMdbJDWFMiY+Oj0SWZStY1e3kIXER33++G56Nt9P4blf4I/vjUdJDIi3jKQlGN/EusZSYxdEUPHARgRvvMrArjfIP/8Isxd/gNJpF6G53pq10R3EEUeERstGGgIM92UolizTh1YgHxLRzxQGy78EXnzbWhi3P7N3QFT+BuSf1a/LM8KG1TkG+5JzReKMU3PE1PRSVCOLyHZ+kIzBlIvkX3qE3ifuIrNna7yYTIfj7pziwoSsgbrFkStQOuNCZt5xPdUNp8VBYV2kbyynpSECM8WI7XuKVKNDXJNQ4W81ks9ff/HI7HLev9cVZPFkRaB6o4j88VzrYrAvYNVgNjGVOs4NOXJ1rJJ17CpWme00WdSOSDN7Xqf/we/R/9ht+BN7uyeqUqR2SqqJ3StRRGbPdrJvPIdoRDSyAc3musZFsbXrWK42B5nA4JwyW7KHr9vjnPE2f/tL/2lZYzO6wsK4Y9O+k1H5CsJVdbLIBYbj1xUSq28hxGTR48sR3ZC6ZtFZsjBIWKLwwi/pe+QnBPt30DBWogvQshDa0HqxEGQon34BM++5kcoxpx+wRLoBed8j7/vL8jjCyLF9T/HwUxOAH1s1v3fDBcN7ls3Y7fTA3/v0hC/KxxDeNcdFZnggQy7BYjg9tYreC6Fqld2zVWY7TRbG4E2PMnD/TQze/fcE+3Z0da6GeIL4CU8l40EUkX/+MYZ+9D8pbL4ficIDWk6nUY4sZbs82lbGN4wMZA+0oZiDqzxxN97x3LR52xBGVaPzFPkdIFu3LnrzPkMJ6hZ5T+gNFs46DV1cGWu60wKnMWR2vsLw7V+m7/E7MZVi57WKoyWNhAPqYmHU4O/ezuCt/4v+B/4BU5zsivGI4zSiuK/MMnxXf4/PQG9w+AbaB/xziaob3xaEceeT+3oQ+W3kYD8R3wgjA5nEojkDI0cs1Gs1DsqarEad1SuA3KtPMnz7/0fu1U0cOAFZIRDfQBuyh9V4SGmW3l/8hMG7vo4/tju2QDpNGgql0BIuQ00NI8LwQIbM/OLWFzr0Y3dtng7e8oRhPS5D9FeZI74O9Ab0FpIptVdvA7BQ5qkq7C9Hna25KXGCWM+zDzB851cIdr++fDEVid4HGE/ac9liILIUnn6Qwdv+X4LdW7qCTK0qxSg6IIa208rIZz2G+zKHD29G4Dedq5z3liaMnzwz2ivIbwHH1Qck4xuG+oPEArQK/pFrWkxUI0ZLHay5KYLYiN5N9zJw37fxJvZ3xe7ZCktLuzqs19Lzcy9vYui2r5B58+WuGKvIKcUwarseK8Qnh/nsvEztU1A+cefmqcJbljBE/SsEruNgriQDfQGFrJ/IwOdq3cgWwkzo2FvsYCJZnSyevIuB+7+LNzO5IvSKo3JN2jigKobM6y8wePtXyW5/sSssjap1lKL2urQKZAPDcH/m8GniI/wTZ6sXvyUJ48dPTg0Zot+kXhRH44EY6gsSOQjw5ci6RT0/pGPl9EQQZ+nZdC/9v/hHTGn2LUEW9a1Q2lyERo1HZvurDNz5NTI7X+kKS6NiLdU26xmxABo0qpB/gqAf+9nm2dxbjjA8L7xc0A8yp87FYH8mkQZEAvQEsmAkZyxydjIwS0Ch8OyDDDz4fUxpZvG75Nx8i3rQU/3v3cAZXvtjRlQMmW0vM3jX1wn2bu24peE0Pjlpt54R+MJwf3B4eUqD8OGyLV3yliKMe56b6DXwMWBtfX7nMh4DvckEwWQ9IX+E3W28EjFRjTonKYqQe+0J+n/+fczs1JImumQymJER/OOPxz/5FPyTT8Y//gTMqlUQBJ0nDiH5Y9aGpOGR2foSA/d+G39yb8ctjcgppTbrGUpc07ZnXtU5OVaFX7/r2cm2aRnLnnxWjaqXCeYDc9YOg30B2aD1knterY3hQq7IbGjZX+pgTQvjkXnzJQZ/9l38iX2Ln+AimMEhvHXrMIUCeIe+33MONzuL3bMHNz7e0TwM8QS10nbyUoTci0/SXxhg4oO/HVf26iBhVq3DN5ZcG8v8+Z5hsC9gthTNFew9gRucDb8DPLLiLYy7n9vXI8ivzrUushlDf08y1kXBXzipLKwV7a12qimyGLzJvQw8+D2CvduWRBbemjX4J56I6eurVdnSQ39EMH19BCeciLd2bWejQ2X5kmjVQf6Zn9P7xJ1x4eIO3rcSR4K2s1GSAr2FgPx8LeMklI/8dPNUsOIJw0bmXJBr6t8rAgM9QaxdtLghZDyhsMCpiAJj5YjpToV9i2CqJfp/+SNyr29evMCpihkcxNtwDHIkl0MVAh9v/XrM0BAdTRE3sjymnAhUq/Q+fDv5lx/teBi9VY0bQLfxO3xPGOoLDs+c9RA+Ym146oomjJ8+M+k71RuAE+sLOBMYBnpbPxkRgR5fFqxvMRs6xiphB5eOUHj+F/Rs/nlt/S7ypoMAb+3aI5PFHNKQIMBfuw4Jsh0z0UWWMWFODGZ6kr6f30yw942OnzpVraMa2TbOKOgt+OTn92g9FfRDN71U9lYsYUQ2PFHQG5gT1dlX8MlmW7cuckbILTA5IqfsL1UJO+WKGENm1yv0PfITpFJc/AJSxfT1YXoW6ZurIj09SF9fZ90Ss3yjrmII3txK30O3LO30KWnXxNq2NUhSIPAbbro5hA/3V2Y2rEjCuP2FXYLR9yNyIEnGN8JAb9DyBRiBQmAWXIMTlahz6epiMMVp+h69FX9s19JUfBGk0LO0HdMYTE9PR010WeYod1XIP/8ohRce6nh0feS0rQlqItDX48c5Jofy0oUe+q6VaWGE/ioRuQEoHBBs8n4itS7y3sJCZ9k6xioRnazZVHjhIfIvP7H0VSOCCYKlL/pM0Fmf3ixzHQ8RpFyk99HbY9ekw/EZFevaJoDGQY9eo4ODQefkw/c+O9Gz8ghDMxegBxspGxH6e/2W+6J6AgVfmi5Dp7HQ2bGGQ2LwR9+k9+l7kLDSuUXbBbFcy71mVTy83W/S++TdSFTpKGE6VcqRa9tjEImjP+dleAvvqUTRWSuKMH701L4Aog9xSKCWoSfvt2wu5r2FM1GLkWWy0qGUdRHEhvRuundpR6iHbSMuDJcuXFarnQ/kWq7TksN2jPyzD5F947mOWxlV1740eNU4k7VB+9BjgA/+7Jkxb8UQRtZwnKBXMScMvK/gE/impTnsSdyxjCNYF2GnFooYMrteo/DCw60vVlV0dgaW4gtbi5ud7ThhSCd2eBHM1CS9T92DKc90NjZD49iMdj0GzxP6e4LDgxYDhPdXnaxbMYQhmHfDwQI5nif0JRColTuCdTEd2s7FXCBIWKHnmZ/hTe5vfXcTwU1P42YWOelFcDMzuJnpLvBJOkMaipB9bTO5157ueGxG5BzVNmoZPXmfTObQAjsC50UaXrgiCOO2zXt7nbr3Ua8ErlDIeuRaDNQ6knVhVRkvh21PAmo+qobMrleTnaRRhN2zG61Wj+4zRdBqiN2zJ3ZJuqLKeIdcw2KRwuYHMMWpjh+zVqzFtWleZgJDb35etseIiLn6lmfGg64nDLXmZETeWZ8qpuaOtCp2Zo9kXVQds1EH09bDCoXnfo43M57cBBXBTU4Sbd+OVo4g4tXJ4s0duMmJ7ikebKRDC1XIbn2hpmV02MqwjrBNcRkicSDXYcWCRUSuMC7a0PWEYeBSgZPq1kXgty52isTFcWQB62KiGnXOuhBDsH87udefacvHu9H9RFtfx01MgHUcaD1Q/3EONzlB9PoW7P593dVysFNrtW5lvPBLpA/v700AACAASURBVFrueJ5J1cZNntvx4YWsRzZzuD6opxqVi5L4irZlq97+3GSBsHolSL7+t0Ku0c0s0uwyC9e6mA1dZ9sEqCP/yuP4E/vbZv66iQl0Zgbp6UV6e5FMrcJ6WMXNzOJmZyAMu64tgSBxF3ntzELNbn2ezO7XqBx/NmjnqsOH1hF6Sibh9H8FfN/Qk/MPb3zUb0SuvGXz2G0fOXe40pWE4SHHOZFL5loGPXkfY2TJhCHE1kUzvnAKkzXromPZqNP7Y+1CXftSNUVQa9HJCZiarBGDxjOmlrHalT1MpEYanWAMMcjUBLlXnoybIolHpwJU6lZG4JnE52mcX+IxOiW4g66PQfTSvPHXA1u70iWxUeUSagV+Ia4SVMh7LT0jz8iCbQ5Lkets42QRsttfJNj/5vKIa3VSUD04rtLllcY7mW1vHbktz+BPjXZMTzlgZTjFtuHERIkLUmXntyM4PQrDloO42jKr735uOivIO6mHgtcCSzK+aYnTsyau19kMU9WocwlmNbEzt3UzUq10/8LtFFl0cFhUDP6+nWR2vUqnk0ycatvqf/q+oSc/z7odFuEdP31+1us6wrAarQMuYk7di55ca6cjRuLYi2aoWu1s17JacZzsjpdTYuhawhKkXCa3ZTPYsOOXU3WuLUesIlDI+XiHblpGlMtEdaDrCEOtPQU45YAQ4wn5nNcSqftGFjxKnQnjis2d3Dcyu1/Hm9zXcXM3dUkWmJsKwY5X8afHOl802GnbjljzGUMQHKoXqnBGNSqf2FWE8dNNO0XRi4BVdacqG5iWT0eyprnYaRWmQtvRjFRsRHb7i0hYZcV1LHs7MYYI/sRegj2vd9xtVOITk6QpQxWCwJDLzPM+Vnvo+V1FGL7XnxfkQuacwOSyHn4LfSqMsOBRasU6SpHtaBVwrzRNZs/rKR+sCLekRGbnFnC24wQWOdeWAjtGhELOO5wT84pcdP+miWzXEEaEXYtyztzFXsh6LZG5L3KEyE5L5DoXoKRi8Md2xlXAU7Gz+2Edwe7XMZXZrqj92ZZaGRIfNBymGwpwTtWYVd1DGFH1VIQDYaieJ+SyrcUjZLyF3BFlts3FVo/GyA72bceUi6k70uUeSUzwgj+6C2+mO8LmQ+cSD8hVjXNLDs8KVzgxtNVju4IwvvszJ4icDfTXLzrb4KIXO7+yC1XUiuLiJJ10R7Ahwb7tsfKeWhgrgrW86Qn88d1dcTWR07akMviekMuaw9fTWkE3LvkzF/uG2zftXyfKBcBaUANiEd0VqWzy3Pi0wNlAUL+6XNbDayEE1jdyeDLNIZiNbOfyRmo3aSpF/PE9dCjqecUZGB0fIxGkWolrrHYBXM0t8RPu2iYi5DMeE3LIEXJORN5xx6b9WwWOU9UMcX7eeGjMsyVnX//Y+Wtcy4Rxy6YZk9Hy+4E/QbgUyB20L6XoCw9h9DsCG3VOdmouY1qaJIFhQXekWHNHpIMrwJRm8KZG0dQdWVE6hj+6C1zUFX5S5ByKl+iViMSNwjwjc4VVAT6u8GtA/5wiJaGv+nIf5m/v3jT2vQ+cP1xqiTACKuch/EegUUv5PPBhhAsU+mq+Ep4ImcBb8rYiQGCaZ6ZWrVKOOr1fCaY4iSlNpe7IioLiT+5Hwioa5Dpu90ROcaqHB1u1jExg8D0hsjp3eo40+Ja8KJcAf2VxU8DNS9Ywbn5pPAD368AFR3jpccBgXV0JfCETtHacutDpSCmKqzFLR6cd+DMTmGo51TtXEl2oYKYnMEvpE9MmtyTp41XVuAdr4C9qDR7n4LfvenGyf8mE0ROaHoGzmNOE6KisEj9mt6VKDJ7IgrkjJes6G6xVH8TZCcR2/kx/xYgYXXIdpjxbO1rtBnuHthyvep6QyZjFDs3pxjGyZMKwWA8kWOy3ZgKDMa0Jns3eHtVKt3d83qnizU6CcykZrDTuqlYwpZmu0Z4iTT7xXyQ+qVyMEaUQWCf+kglDl1DBQFj8hc6zUBa4uqpVqh12R+LBcZjSDJKej6w8UycKMeXZrrki53RuDYvEsJR16DdxC9qWfWNqFkYrlutC7kjFug4fpx4kDKmW0vW3EinDWqRa6hovyWkb4jFqpTG9hBIi20cYRmKxZcn6BQt2Yy9b1xXlKsU5TFhdvMNa/3Fzfub+PdUxlmNLR6rVrhkWhcQJQwHPM/ieSWS9+O26cd8zeN7SDXXPCKaJhWFVqdSy/KTTM18dYqvN71Pjan24+LdawMnBIrA6fyGJCBiNs6+9OAt7uRsad80KIj7RiMdR5v3b/LFTMPWDD114zFSRKOyqW7ZtiMfwTHxiWap0KWGgcVjqUgXPegxHM4/EuljD6J6JrfNJwoJGtd+2RhrabLYf/nY9ZCGI1IjDAxPUylHKW5ckVKVGsHKQJPRo3y6HkocX/44JV+cThou6izBUUdVEmz7F1n4yn9e2IsCBL0uuIxPrF83XRKhKpN0UVyl1OSMmieockkhkAdUslBBcBcQH48fnVu2qM7z87oGgVuIxdNLymB2wTFyNRAyIUcTTmEhkDsF00zDUn7ckvR5NIuEmbSEMkbiu4FJZUmoWRjOE1rVFTV7SjRoPVcFV4ihjtW3WIDQmDhuCVGPSMJmVRByHPletE4WV9o6bO/hdMXE48AX1Ml0Voatai/hMmDF8L7bYW9Ux2mZh+C0knIksXOWu6rTzuqAxSLlI7vnHkTd2YkvL3538gLsT1kgj0/Gqc4tawM6a9hNFI8K1glqDWMGMjyLVMhpkuiKWpi58Bgl+pkisKYpIyw2U2mZheC0wmrCwOxPWCKNT1cEB/F1v0PPgbeQ2P4qUS0tYqdp4oSxht1MLtgQSgZdddIjdsss9GhlcCHFXo85ZOhop+YfuRWZLzF5+LXbNMbUL7Ox21I7CwF6tW2Cr66ZNhCEtl+RrdkLiaoTRKRdEopDsM7+k92e34O/afvRNg+oTsd5oyPMQ3wPPq7U4VHAWjaJ4p5vbkOgoSURDiCIwWfBydJ0wqhHYMmgoi2eZuWN4yH4sh5Kt1C29o2tYbWanKDx0F8EbLzN79UeonH0p6vkdJY12xBd5pnYIYbW1YtztMKnMEWIojoYwZAH2jTphOhoPmZ2i5xe3U/jFXZjZKThS/YL6wvd9pKcXb9UavLUb8FavwwwOY3p6kUw2tk7UoZUKbnYaNz6K3bcbu3sndmwfWpwFa2u+mjniA3DlmFlNvntcFFeNr+uoOxTOIU3JZJBCL6avH+kfRAo9mEwunijO4SpldGYaNz2Jm55ES8W4VaRqPF4LNq6OByjYsYX+H/4vivt2Unz3tbhCf63mZ4esME1WWjFGjjh1OmNhaGxhmJZ6kDQ/UnUa/yzr5mkM3uR+eu/6B/JP/Ly2jXsLT3bADA7jn3gqwcZzCE7eiLdmPVLoQXx/4R1QFY1CtDiD3bOT8NUXCV9+lvCN19CpyQPXdKQFqg68fHyq0kmn3FViy+KotArn4qPk/gH8Y07AP+lU/ONOxl93DGZgCMnlwfMPCOpaf08UoeUidnwUu3sH4dZXiba+it21IybcI42Z8TAzU/Te/UO8sX3MXPMb2MFVHdE1XC0ZQxKc5QtZ7R13ScxRbIQLvn+B5WTbVM5soYnkje2h77Zvk3vmkYO71gKT3VuzjswF7yBz4WUEx56IFHoX7/oEGWRgGDMwTHD6OegV1xBue43Kk7+kuukx3Nj+Iy4CjcAWwSt0iDQ0JgpXOQqysBZ8H2/D8WTOu5jMORfhH3MCpn/wCEoEcQ51kEHyBczQKoKTN5K77Grc5BjhG69RfeZxqs89hRvdt/DzMwasJf/4A0i5xPQNn8SOrFt2S0MTPlqtWyvGdClhxK5ka13OFvLvlo0vxOBN7Kfv1m/GZEETPaH2hM3QCNlLLyf37vfjH3MCidiA9Uvp7Sdz1oVkNp5HePn7Kf/iHqpPPIybGl/Q2lHbIdKok0X5SK9z8TgffxK5d15B9uJ3461a1/rYGYMZWkV2aBXZcy8mevMNKo89SPmxn+P27W2uDdWU+tzmRxBrmfro72CH1y6rpRFnByQr64tIIv212mNhGGnJ/1rorU5ZnhoYxmBmp+j96ffIbX6sOVk4B55PcOZ5FK79KJnTzwW/jSvT8whOOh3/2BOpnnMRpbt+RPjK8wcWXlPSKNVIY5niNVylZlks+CKL9A2Qu+wqcldcg7/hONribHo+/vGn4B97IpkL3knpvtupPvlLtFJuTEy155x94Qn6MlmmP/zb2P6h5SMNVZLW9VeEhbHkSuFHsDDafnAvgoRVCg/cSv6JB5srUM4hvX3kr76e/NXXYwaGlm0XkiBD9oJ3Ehx/MsWf/ojyg3fHYl+TnVkjcDXSwLSfLBbULGoTwz9lI4Xrf4PsOReBvwxnwcYjOOVM/GNOpHL62RTvuhm7680mY1azNDY9jOvpZfq630QzuWU7PWlDZYx4CksXEoZB5oXtJ2VhLNcxefaZX1J4+G6wUeOd21rM6rX0fOTjZN95JeJ3JvjBDK+m58bfwqxeR+nW7+Emxpq6KC4EKu09ctWw5oYsRBbGkL3oXRQ+8nH8Dccv+5hJLk/uimvw1h3L7M3fJHz5+cY7Vc09yT92P9Hq9RQvu7b2Gm0zWbRhjrcoE8zVF9vwRFqbkAvdWNtDMIxH8OYWeu/7EaY43ZgsnMPbcCx9n/x9cpd/oGNkcWC8sjkKV99A7z/9NGbVmgVNZ1epEUc7JrqrxVm4BcjC98lf/SF6P/n7HSGLuZM0OP1s+v7ZvyR78btq81UbW5uVMj0/+wmZLc8lqksdiTQSX5IJbBJtuftW9QtZVlPtsMlRLlJ48Db83Tsa79TW4q1dT+/HPk3mvEvpGoiQvfQ99P76pzBDI82VfV1kPMRiJnkldn0WJIurrqPnI5/A9A10xbB5azfQ809/l+zF7z7EXTpcz/LG99Fz/48x0+PLFNyS/DyXBD62TXfe2gmyLOswHorcs4+Se/bxppqFGRqm59d+h8x5l9B1EEP20vdSuPETSE9f061ebRynkbQrYqsLPDURcu95Pz0f+Xh8bV0Eb3gNvb/xz+Nn2swXEEPm1efIP35/jW3bGwnUDre7e12SlQgTH6HmH7kHqZTmE4Yqks2Rv+ZGshde1tW3krvsKvLvuwG8oOnMc9UFrIElbIa2SvPjK6dkzr2Ywg0fW3xMynI9/pE19Nz4W/gnnNzYpaulBeQfvx9/9/Zlc026bpxWijm1HMhufoTMtlcbTwZVspdeTv7Ka48cEt5pQ8MPyH/gw2TOu7i5oOCOMqDqKODC2MJo/I8W75gT6PnoJ/CGVnX1uPnHnUTho7+JGRxuTBrGw9/7JvknHojF8BUGTcBsMe25sBVGGWLwJkbJb3q4NhFkniviHXM8+Q9+FMkVVsZO0NtP4dobMavXNRVBXZiAlqFxwaCGD1wVyeUpXPNh/BNOWRmbxjmXkHvPB5pbEAq5Zx/H371txVkZeiR/f6W6JLpEfaMV0STz8ib8ndvmC1qqSCZL/qrr8I89MdGvnZiYYNu2bWzdupV9+/YRRcnuWsHJZ5B77wfiQLJGu4u2rmW4qNaetMnOkbngHWQveU/ij2xycpJt27bxetJj53nkr7yW4JSNTayMWADNPftoTViWFcYYLVphbRNsdOn3tDBhJPyARJDSLNnnn0TCynx3wzn8U04ne8m7E/k6ay1PPvUUt912G48/8QR79uzBWsvg4CBnn3UW1157LVe+9wp6+xLw9Y0h986rqD75CNHWVxqGedbrji4pAnQh68I5zNAI+SuvTcwqs9by9KZN3HrrrTz2+OPs2bsXG0UMDg5y1plncs0HP8hVV11FX19roqoZXk3uimuItm+No0EP17OcJfvi05QuuQo7snYZzvoTsvoTcEnaQhhOD2bb6ZJurnkcvUma0MXg795OsO2VBicjsXWRe9f7MP2tR3Hu3buXL335y3z1a19j+/btOHuoP3DvfffxzW99mw//yg189k/+hHPOOaf1DXPVWrKXXUG0/fWGVka9WPFSCKNew7QZMudfSnDKmYk8ptHRUb705S/zla9+lW3bt2MPsyjuve8+vvntb3PDddfx2T/5E84///zWXJPzLqX86IOEzzwR1yyZN2d2ELzxcpyctkLMC1ffjVspPdE+NmuPtbaIejJHPZCZrS/hTU/Od0ecwzvuRDJnXdDyt+zbt4/P/bt/xxf/+q/Ztm0bxhj8IDj0x/eZnJrkG9/6Fp/5wz/kySefTMYvP/dSvHUbmmoZGi3NItSoiaaqivQPkLv0PeD5iZDF5z7/ef7qi19k6xtvxAWaGozd1NQU3/rOd/jMH/4hjz/+eGvzrLc/vv5MprFVGlbIvvostKlNgSRcZzQpC6MthOFaTJ5Z6L0miYD4uQ5OpUTm9RebquKZ8y6JVfMWUKlU+O9/+7d8/RvfIAxDPM9bwIsweJ7Hz3/+cz73+c+zc+fO1q2M1evInH3h4hf+URBG4wfoCE47MxGhM4oi/u+/+zu++tWvUq1Wj2rsHn74Yf7yc59j27ZtLX135szz44S4hkQrBNtexZsaa0sgVzuUkSRy59pmYbRSl3Chd3qS4EUbwZsYxd/7ZgM/1WH6B8hsPKdlk+axxx7ja3//94RhiDlKZd3zfe697z6+e9NNaKtP2vMIzjgP6elp7JYosMjTkgNNmRp9WCZD5qwLkHxPy4/osccf52tf/zrVoxw7EcHzfe67/36+e9NNrU2PwWGCM85raup6k2O1mAzpasKIK0BqIrVC20KNrTaVXeitCzU4WspI+vvexMxMNQzU8tYdi9divoOq8sMf/YgdO3YsuDs2mviVcpkf3nwze/bubflWg+NPxlu9trEpoUvYfWxzd8QMDCeiXURRxC233MK27dsXPXZhtco//vCH7Nq1q4XV4RGcfjZS6Jl/s7UcE3/nG4mLntIOl8SRSGsO0wa+iC2MFjZFx8KE4UlypYi8fbuQaqVBpiL4x5+E6e1v6SvGx8d57LHHlhTrazyPl156ide2bGn9QQ8M4R1zYnPzbZH9VA7t5HbYmK6P65a2isnJSR597DGctYteQMbz2LJlCy+++GJL1+BvOB5veFXj52ct/r4349O1hBd40jaLdcnU2GibhmFbsjC0KWkYE1uALd97LdTXH93bOFHLD/CPO6nlsdi/fz979uxBlhDkY4xhemaGHTt2JPCkvfh+mtXLcIskDLuA1XbsSXHtzRYxNT3Nrt27lzR2IsJssdiyBmQGhzFrNzQdG298P1IuJkoYIpK4hWHrVn9XBm4pRNYteVW7BWpeGBH8RCLs4iI5Znp8/nXW8kaS2CXDMGwpqMg5RzWhDuP+mvVIJtN4cN0ijCBdwAz0PPx1xySz8Vjb8tiFYWunGJLJ4q3d0LScn5mZQkrFRG0CacPCrFsYrV6laRNfEEVLT0TXWkPaZhfsJyEyCVCtYGanG/vhhd5EYi8GBgbo6+tb0pGWqpLJZBgZHk7kuZjBISRfaGxKLDLYTpuFgmeymJHViVxvLpdreewGh1p/ht6qNXEL9AZzyJRmMaXZZN2RpEMHFKzV7s4liezSRQx3BB0jk5AqLVGIVCoNaFfjdgC5XMvfsWrVKk499dQlaRjOOdatXctJJ52UzP3me+Koy2Z8oYsgC21cDFlyOUxvMunrg4ODbDzttCWNnaqyamSEU09p/WjX9A8hDeNJBMKwlt2c3PoxJB5sRGRdIinzbcslCaOln5Soxg2aFiKM1i9c4v4ijZLNFMjlE6kzmcvluO7aa8nl84tmeFXlve99LyeecGIyDyXIINls07ySxduRjUz4HJLJJXK5PT09XHPNNfT09uIWqaKrKu9+97tjsm51phR64gC0BuMmzsaieYIwJtkECK2txyTOctpGGJFd+rmv1nyupvPemESastRaejeeJPUWhgngQx/6EO+5/N3zwpkXHL8o4rjjjuO3P/lJ8oV8ItchxiRT0XzBQBkv0fT/D117Le+9/PJ5YfQLzz3LhvXr+Z3f+i1yCViJ4vvzw8MPjIVDXJRoerZJ2LpwqoSRS+Qa21aiL7IOa3XJTBktkCIfGME3ksD9Jxk12hzHHHMMf/Hnf8HGjRuJjkKEs9bS19fHH/+rf8UVV1yR7FazEIl3YQ7VunXr+PM/+zPOOOMMoig6opVmraW/t5d//cd/zJVXXslKROKE4WILIxl3qU2wLhY+l7oeF2pY5JmEdAxTa4bcYKVoFCYakHPVlVfyX/7zf+bCCy88oP475w4IvKqKtZYoDFm/bh2f+4u/4Pd/7/cWFbB0RL5wDg2j1rlTjjA7Ndn+He9973v5v/7rf+WSiy/GOddw7KLa2K1ds4Y//7M/4w8+8xkyjfJAlrR7Rc1rpIpBvSAxa1Qk2cBRAax1RFYTucS2ddxxTqmEjt4WCKdZ9ycjQsYzELZS/UUhCNAgM58vRNByCcLkCl+KCL9yww2cfPLJfOWrX+XOu+5i+/btFEslUCUIAtauWcNll13G737qU1x99dX4STdEqpYbp2vPmayLm4oNiLZaQRP26UWE6z70IU484QT+19e+xh133skbb7xBqVxGa2O3evVqLnvnO/ndT32K973vfQRBcpXctVw62Az78H/zPDSTTcw8M0iyFobE1oVNaPNrG2GoQjVcujJrVYlcY9dRgJxnWnMmFDTIoPmexhN/dgZXmo0rcCeIs848k7/+4hf4vU9/mhdffJE3d+3EWcfw8DAbTz+djRs3tlzPoSmJF2egNNtw4i8mpy9+beOS/FopobMzbbn+M888ky9+4Qt8+nd/lxdefJGdO3dio4jhkRFOP+00Nm7cSH9/f/LjNj2BNtKfVNEgiyZYhc2IYBJ2k6uhSyQsvK2EAVAJLc7pklq0KRCpkm0yeFnf4BlpgTnjh+36BuavFBG0OBs3BWpD74wgyHDGGWdwxhlnLKtv7Mb248qlJkFIi5NzxDSgWRG0UsGO76ddnVp832fjxo1s3Lhx2cbNju6LLYx5AYOK5gu4fCEx/cczkuiJqipUaht31/YlqaNuCi31OsMFXOGsETKtCJ+qqB8QDa6a7zSKoJUyds9O3kqwu9+EZqKrWcSEWigUMYqwu99C4xaF8TxoVuKwbwDN9STmkniJC55KJUyuCU37CEMgjFyszi5xDKIFEmZ8I+RaFQQ9D7t6Peo3CJe2lmjblmXt2t3uiR82qbpVtxgWa2E0I+Jox9bEdYyOkezURHMCFLDDa9FcPpFGIkYSimKe4zpGVglD1/2EIcSxFJXq0tnNar35cmPk/dZ1jGj1BrRJuHS0/XXc5NhbY+KP7sW+ua254LlI7hWvCcGIYHdtx43te2uM264d2LF9Dcs3YnzCNRsabzhLWoyS+JFqNXKEdvGbtrZCGCYOBF70iDiFSnXpwqdTJVxAoyj4prV4DHXYkXVEw2vmP3Aj2L27CLdteUtM/PD1V3Bj+xsLnmYJhGGaWBkiuPFRwi0vr/xBUyV85Tl0Znq+fqHgcnnshhMTO1L1TMKEoVCpxjriYj+1Ki0QRmBNBRg7SmIqUk8FUSjXLniJ90vodMEArpxnWpoQrtBLePwpDVeEFmcIn98UC14red5XK4TPPYVWmgieSyAMDIjfmDC0UiZ8YdOKd0vc9AThi882KTrksMOrCNcek1hfQz/hPicKlCtuKV71hHoy0wJhBEUVdw8wcYSX7kX1B8Bk3S8ph44wckt2HaoLpF37RigEXmtuiedRPeXs+Gjs8C9SqD73JNHeXSt64kdvvkH1xc1NRQrxWZLOJH5zh7T60rNEO7et6HELX3kh1rGaCDbhCRtxvYOJBKolrV9AnKFaXrwkEAJ3+8r+JRPGey/qVYO7Ffh7YLrJyyaBrziRvwP21nWMKHKxjtFCxOeR3JKWlGVVog0nEa09dr7AaQx2zy6qmx5ZweaFo/LEQ7jx0cbFcwTMEs9AxW9imRiDG9tP5YmH2tNVeDmGrVKi/NiDcdBWg/KNmitQOe2cZHJzAE9Mou6IEMdfVEN3+OVPQGMyAKrArWr4+rVn9Tc8Tjvqu732vHVjP9m8/z8Ezjyj6q7FsBoQFBXY7XncUaqWbva9vAVeAjZCvAaLFUf/EkM+nULVKVmv8WDmPUPWM8xGdmmc5BQ7MExl4/kE219rRNOUf3k/mQveib/u2JVnXWzbQrW+cBtMSOMvsYlRXccImhcDrj7xENGl78E//pQVN27VFzYRvvBM4zht5wg3nEB43KkJuiPJR3iWqpbo0LRvVbjN9/hHa+VDoCcjeDVregrkF0747vXnjrzR9DoXcw2/cu6qUeArdzwz/n2rtmCI8z0CZeYD56+eBrjr6THPiXsK+HDd0C1VLNYqnre0AanWjlcbPTvfCD2BRzFaqs6gYAyVsy4i//j9eGP7Dt2JjcHu3EbloXvwP/rJRPpsLKd2UX7wp9h9e5paF5KhtcY2QZOmzsZg9+2m/PO76fmN45Ags2LGzc1MUX7griZip4LvUznrYlz/UCLH7tIO/cJBqRwdvk9UfZ9ffvDsVT/46abx251GfYCxACqVyDOTHzl3aMGFtKTZ/6HzhiYP6BSH4ZoLhu3tz+x7QlQmgCEkPimpho6C7y2JkCOnRE7JNCGcvsAwXhGipUZ9Oke4/gQqZ15E4Rd3zhPxcI7yL+4lOOM8MmdduHJ2yWceo/zog80nqrd0d+Twz2jYo1WV8qMPEJx5PtkLL1shLKtUHr6P6vObGgvEqkRrNlA++5L43xOwMLxa9nVixoXEx6mlyjwyG7cRTwN88PyhIvEBxeI2iPYMOi8BWw/oGNZRqtolB8PZmlvSDDnfkPdMa7F2XkDposuxw6vm7xpicONjFO/44YqJL7B73qR4183xLtnE1DUtWhcHNJBmnyMGnZqieOcPsft2r4hxC197gdJ9t8WJhw1PlAyl89+FXbU+saA+35jE4y/KgoGukQAAIABJREFUVdtIv3jV8/1XWvncthBGxpOdKJvqhqpzUCxFLTVSqSwQ9emJ0Jtp8bREHeGxp1C+8D01M1TnTZTwhWeYve37aLnY1ZPezUwx++ObiLa80rTwiwS1hZ7EjuYv8FmeIXr1RYq3/gNanOnqcbP79zD7o+9g9+xqXATIWcJjTqJ8weWJprMHSbsjCqWSPTzPShUeC9HRriOM3l0js4g8ApTru1CxYlsq4hHW3JKm3xl4ZFqxMlTB8yleehXhsSfF+fWHP1lVKg/dG+9ALVSzbrduUbrrZiqP/2JBq8DLkmTHSUy22elj/CXlRx6gePctcZ2RLiXZ4k9uqgmdpuH80GyO0mXvr3VsT8a68ESSP051ymzZHu4tzQg8cv3ZQ2HXEcY7PygK+iiwpz5lqqGjVLFLJmanUF6g0GfWM/QGLeaWOIddtZ7ZK65He3rn+6e1bMzi7f9I8f7bum7ya7VM8a6bKd1za9wkuMlge9nYwkgS4sWk0dyprlL66S2U7vkxmmCdkUTGrThD8cffpfzwzxbcUMpnX0rp/Hcl+t1Bwu6ISBzdWarOW2tbFDa1+vltyyXxJPtqzS2pr0VmilFLxFxx2jS3RICBjNc6W6tSOfMSipdc2VjUMnEEaPGWmyjde2vXRDNquUjxjn+kdMcPa0VyTFP3QbLtuQaTXcA1MQYtFSn+5HuU7r6la8bNTU8w+6NvUbr/zqZFcnCWaP1xFK+4Ic5MTego1QhxIahEJwLMluJTycP+4Unf81ruiOW160F86nf+NHQZtx5438HvUfp6AnxflrqW8Y0QNCEFzwiVSClb15q1HQTYdcfh730Tf9+uBm0UBSoVoi0vouUS/nEnItl85yb96F5mb/kOpXtvg0q5aXcz8cArLD3u4mhcE/FqXd21uaURbXkJLRXjcct1btzs7h3Mfv9rlB/62QJk4XC9A0xf/wmqp52baPnBwDPkPD/R+hfWKfsnKlSqhwies6rypWvPG3m0ay2M979r0KHmYeDNA3MlVIrlpfv+SuyW6ALi50DGa72mgHPYgVXMXPPrRMee1LieozFouUzpp7cw/c0vEW19ZflnvCrhK88z/Y2/o3z/nXGti2YCmgGTWyicOznXxMsvMLOMQSsVSvf8hOlv/E/C1zuQpOYslc2PM/X1v6Xy2C9i87fJEaoGAcX3fIjKOe9IvEhyxjOJkoUIlCuWUuXwyGrd7iCRcGWvnc/lU3/0F0Wn7lLgTIgz0owR+gr+kntHOuICwM1cj8AIxchRaaFwT32yuMERopG1BDu2YGYm55v5NZfF7txO+NKzqDq8VWuWxdpw4/sp3ncrsz/8JtHWV2vbuzTd+b38AhpDG0hDpGZpNJvZqthdO+JxcxZv9dplGTe7dxelu26m+KPvYHdujwm2CVngeRQvv4bZqz6aaN1OiI9S876XeA/V8ekq08XokLmv8OMKmW/d9KW/jrqaMP7F736uEploNcL7AF+Ixcvegk+wRN9Niese5poEcf3/7Z15nF1Vle+/++xz7lRjakrCkIEhhCGphEAQRFtBQoAIMr1WBN9rP93tw4/P4XX7bJ92O/egTePQNkirT02LBFrbBpEoDQiiKAiEEAxIAoQQUvOturfqTuecvd4f59xKVWpKqu6tW5Xc9fncTz5UFffes/dev72G31qrGEAaLJSgwlQEv3kRfmMzkX0vYw2lxgcNpZDBFO4fduDt2Y3SGt2wABUpvYaaVD/5Jx5l6D+/T/6xh0M2op4cLGIhWChmTZR9CKARrpv3wnO4e3aDtrAam8uzbskecr95iKEff5/8k48FNSITzU+RgP2bOeetDF10TdD3tcQ1MTFblzx+4fmG7mSegjuqQ/igQv2zn5en7/jmF0vhdZZXtm7rWY3iLmBF8WeLW2K0NkanjddaQVNUTxjL8IywdzBP2vVL8IAKFERefJb6n/wb9uuvTH7QjEHFE9jLTya67lycU85Aty6eETVa8jn8rv0Udm6n8NRjeHt2Ifn8xLfjCDdEx0pE0JquoubBzzH57MvhdYtjn3AK0TODdbNbF8FM1i2Xxe94jcLvnyH/1GN4r70ChUI4J3WCBRGD2BGyb7iAwQuvxtQ2TDxiYNrnV1EXcdAlZncOpF1e7cwePLvlCaXMdRevbttVEsuo3AdG27FdxuR+LRIAhgikMx4L6iPTXjBfIOvLhIBhW4rGqE3G80swWiSYqFRYsZrUVe+ldusWIrt3Htilg3dN6+F+EO6LO9GtC7GXnYRz4krsJcvRzW3BjFPbHmsZiIDxEc9Dhgbxezpw976Mt2sn3p7d+D1dAf/DsiaexDXCLbBipSNnTTtIFlo2JjtJvHB43fK4z23D/cPvg3VbfhLOiadiH78M3bwQFU+gbGcsUIpBjAHXxQyl8Xs68Pa8hLv7ebxXdmGSPWFQc4p1Mz4Sr2HojRsZ+qNNQUbElL4XSkRbJQWLIOwmpIdcjIxyxX2QRzwd2VsyYJqNQ7P1me5rQd0GNEKQzTh+YZz6Wmfalp6tFE1Ra8JYhi+BlZEq+KV7SMtC93ZS8+B/EN/2GGqSjMQwAEg4os62sRK1qMZG9IIWrIYmrNq6IEsQ1qtIPosZTOP39wUdvgeSSDYTgIQiLA+d+mmUE1gWag7VyYkHfnYSF2XCdXOwamqwGhZgNY1Yt2jswLrlsviDKUx/b7hu/cG6FTMfUzEpw8/zWhczdMGV5NacF7bdK30/Vyu0LkpdO5LN+ezZnyE/mg7eCdywsb3l/pLFXmbFLPXN45bWzwJvKroMqSGP2oQz7SixJ0LWF+omSrEqRVPUIeOaSfuCHiaM4zcvJL3pBrxjl5N49D7srv0HlHlcP10fCKIOpiA9gP/qKwfgurgAcsCaGenjF2/fQ4V/KzoZ67JyomzQNWByYaGaTKEBw+tmMOkUJjUAr7484ppTB647mcG6GR9sh/yKNQy95QoKy1cOf245JKKtkjM7i1Z7wRtdOyLwpMJ6spSfNSuAoYnuE7ytwDlABIIHzBd84jE9bSsj6wsxPbFrUuto6iOaZL6ENG5jkFgNmXM34C45mcRjPye640msTHrq219NnsmYUZjFDsHCYc6KsoJsjbKD2IYc6rZMtm7TXbvwzHltx5Bd/1ayZ70ljFeUr0u8VoqoLn2ewfMMqUH34FL2rBLuqXV1sqQW0mwclIvPbPSUyM+AvcX9dT1DasidUfDZM0J2kvoUS0FTzMEpyeDm0YExRHCPO4HUFX/C4MZroKa0abfDurnjwe09l8FilBUUCb6vjpeRRDa19pJbey79132QoTdvwtQ0lH2kRDmsCwUMZr0xVHCB5wV5+PyzG2TeAUYAd9HnBO4fNr4FUkPeeCW4h21lFKZo4dcUc8oTrDEGE43jLV+BtSCOXSNYkVlwB1QYp0iEQBEFpZhXokIi2TBwTLOv6GF/rgYrKuhGh9z6N+EuXRF8sJgy45MiapfBuvCF/rR7MNZ5wH1G690lj8HM1gF5R3t9zhe5m2K/TxXU7Kcz7owuZl+EjCeTvsWCqE2No8ty/ysRxLIQx8EaocQ6Hih1ycCj6HbEwK4JXnMxVjEtBS4CR4LyAK41GmB1HIjaSCSKmqWO8FFbl3yqmVIwlPPI5A4uNJN9FnLPZauaSl7lN6txdAvrcUEeUXANoIxAf9qlocbBtqd/SnK+IeZPTOZyLEVLzCHvm+l35ZrEGRY7ArYTsspC0pINVjHY74X/+gR8BDmIB3TQkPrhwchh7G/kC8URKcoK2wVGgnUa+cKEBsChbF0x3GFNsnYiiHaCfZsFcayg72ypxTeBdeGNZjWLiPq5ceqfKcezzCpgvOCn+k7VdT9EcRHQqAj6faYzHk31kWlbAEZgyDNELM1ELmJdRNPo2fRkS1+SfuDwydjDq0f46UWgMAf998jY3UiwsI5cgJjK6hi1Zmb0v5gDSaVRAGuNAIvJ5r8KiO0gdvmDPkoFrE6rDNZFJuMzmPUOPiKdxnL+47LTI9nyXPqzKB9Zt1x8pR4EHhsRBiCZdnG9mfmQBV/I+mbS4FBz1KHGLrFrIoDWmENhJIYgULRAil2vii8VCd0Y+8i2Jg7bFdMHunpZUbDiYaA3Ebox8QMkNeWEa2dNHijEdhBdfsCIWHraZRBTWRfJdGGcruDqQQv/N+XzEmb9ANg9gtxJON8kIJ14pDLejPV2yJt8hklEK1rjzoRp2BlZGE6sEkmSqszAjQwsjPJtmlaKmK1LjvtKQSbrMzhWZ3oR7rxkdVPyiAGMy1Y3iELdD/x6GC0FkqkCnjezPhaeEQY9MykdvDaiaS5p1kQQSyNOtKqH80iMHQHtlA0vFIErUuo0KgQTzfpSBVz/oIps4SHLV4+Uc90qEmOvi8h+gR8MWxkEPT8HhtwZ71/Ok0lb+SmgKWpTHylh+MayAsCouhDzxcBAnAhilY8E4mirLCStIu/i4BJ2oNsgt1+8rnzWRcUA442nthox1n0KhodmiIG+lEthhhWmgWtiJnVNbEvRmnCIznQ0wfAuaowTrXok8wkzIjFE22VxSbRSxG27LNwYL7QuDmrBZ0D9HK0eLve6VSyLb0ej3QY2E06FL3YLSqZmbmW4Rhh0ZVLXJF6KpsHF28pSSCRG1cSYJ6IILELLKsdbl80VUUBqyGUoM6bBb6do2XzpqpbkEQsYG06rEWOZ+4GfESYahSBjMpaIMg3XxDdk/MkzL7alSqDiEgw6isTmH93y6PVIME55WG9RW5eF0akU5F1D70Dh4GJKo1D/6WeHfjkba1dRnuBlq9p6jZbvAh1FBC14JjC5ZkiwEmDIFfITxDOEYJpaifo/B1kSpaimSuaHiSFODLGskm6XbVllyYpAwNdJpgvBqI7Rv9otwuZNZy/NHPGAAZA33iMIPwT8YbNr0CU95M144X0R0q7BG6fCLeMaBgteaTZXEfR8LPEBrEq5Tr3CRGOhhVGaDdNKkSgD/buoE5msR/9Yd72AUrdr235y1pau0nt35erFWZR8F9g5HNgxQu9AnoI384KgghEGCoacL/gSgEjWMyTzXslo4gKhS2JVlXFeOCRqhEVYGoWO2+UhaEFA0uodKAT9Lkb/6mkl3u0XndGQP2oAAyCj7e2C+n+E06QVwTCWvlRpamfyvpAs+PTmfHpzhv6CQSmrpL5mYOLqqj7OA7wQZZU0SB2zNRG7fHs/MOgyMDSGpNWPcJtDZFbnW8wJwLjqjAWuUmYLwiMj74FkqsBQ1ivJRSASdOnyJIhbKBXcCqXq3CxONPCJqzL3IxiWVbI0eFSXL25RHHvYM1A4eJC5IGz1FPdc0L5AjjrAANi4unWfaL5OcfARUPCE7mQed4YM0IldWUXCsbFLoOgmEoUy5fWrUmIjw9JIZOYzUBwrOD9WmbJjvh9MMcuNDXS+JMLXN7W3dM96+GcubaTtykOi+AHgFkEjnfVIpgplU0OtFAln5sEqsaOINQe67koVsKYGDAtxZlbari1FwnHKBhZFzkX/4BhXJCci3xnUPF6JtZtTgHHRma1Dvs9toH478vz3DhQYzHhlo0U5lkXNDG4KhQQuia4sYIhS45fZV2V0EMPSGCc2o0umxrHLQs4qgkU279OdHMPoFOBBUXz32tUthaMeMADSzYldIvI1ip25QtekK5kfL0pcOtDQFglnmn0LwjECQROdCilr2BSGtW/GWnh8WeZplMT6sayyMCwP62toe9rFgkU31injM/hG6O7PkyuMITDuRfjq4lrvtUqt3ZwDjHctSUjBuD81yPdGuiZDWY+e/vzBwZ+SSlTrEDQOHzGMjgQVkJVUBGOwlp5K/PI/RS9aWvamtocX5DGo2nr0WRcgtY1l76E5uYnggBPhcFtDW0pR45R+xOHB0pcqMDDWFcmC/GvB1g+tPXGxVAFjhFxx5uJBFLcCvxr582TKZSDtlrViI6o1Cds+fNDQ9oz94hmZsUphPJfB/iT65DXEr3ofesnJoaVRYRfF+KiGJuIbr4d1b8MVVbmvJILYdjio6HAtC01Ely99qoDBjDdeVgTgZz7qu5efsaBQya2cs3nAS1e37hb4EvBK8WeeETqTeYZyXnlBw9aHF/0WEMuueE8M4/v0dO7HdT3sE1aRuPYDOKevDwhllXCVwpmp+riTSFz9fiLnXMxQJkshl61o2Y2xIxh96M1zimARLTNY5F1DZ18u6KQ/+tc7PcWXLmtv2VtpvZzTxAEt1gMiciswNLyoBUNXX3njGaPdE3VoiKEtjBOraL2qhdD16itkhoaC9Vu8nPhVNxI971JUND67cQ3jg23jtL8xAK7T1gPQ29WJm81WtFBPnEiYAp8bYFGMW3Ql80Hh5ehfJQ18Na/8x+eCTs5pwNiwpinvwreAH1GsNVHB1LSuZH7GBWqHAho1jn1IKdeAPVhZC8PWmo49L9Pd1XlggxtaiF36HuJX/hn6mOXDQ5jKbVVYLccQv+QGEle/H33siQC4xrD35ZdwCzlURQEjFqTAp1iGYjak3GAhAj0DefrTY7wNV5DNluKOq1ct9KqAcQhy+ZrWHlA3wei8czJVoK+M/IyiRLR1aKChrJKQgaZ96ELAyPR28ez20R3mlRMlsu5CEu/6CJE3bEAlaoNBxaUEDjHg+6hYgshZb6Hmuo8QfdPlqETd8J+k04Ps2vkcWgyV6h2iGNkLY/ImSzURu+wBTgj4Fr39hfG24xeWUV/duLqlf67o47zgMieUv13gCyPjGUagO5knlXbL/vmOtqiNOJOn0pRCIpXtumUpRR0eDz/4ALn82NiYXryc+BV/TuKdH8JZ/QZULBG4DjPJWBgTBDXjtTjt55F410eIX/V+9JKVY4rx9ux5hZd37iDmVJavYiKT1/1ELItaxylr6rQIXkNZj87eHO7YkZ/PKWN94eK1Lbvnki7a8wEw3ry6Te7f3nW/J9aXFXyacKaJ5wudfTlsW1Ebt8uqrMUbJ+t65MdrzKNUxZvoCMKi2hhP/ebXPLtjB2evO3Ps17QjOKeux156Kt7uZyls/xXeS88h6X7wvRGDj8cZgCxy4AXgOFgLWrFPXIWz6g3Yy05DxWsn/H4PP/ww2d4uYqc2IhVkpAb9V9UEbqhVVrr3SLDIFXw6e/Pkxo4L7RL4oljmV3NNF+cFYABctLqtsPWZnu8iHI/iA0AUIOcaOnpzHNcaJxbVZQWNok9rKZ+c5zN6eJnCRBMVBQwjsLguTrrr99yxZQtr21dj2+NvsUrU4aw6D2flOvyOPbi7d+C/8jx+9z5ksB/JZ0PrY9h8ATuCiiWwGprRC49HL1uJvfx0dPPigLQ2iXR0dHD3j3/M+RELx7LKyqeZynWTSDzMHJlRChy3dVBINgt7WPAMHb15Bsdm/IZE1NcHlXvXte2LvCpgzEA2trf037O982ZH9BLg6vAYk8n57O/NcWxrnIhjlRU0lFLEw5hGxvNHHXwptn2rlDKI0BSLcExtlDvvuotrrnwH55577hT+VhR9/Ar08SuQfAYz0If0d2NSfchQCnw3eKZoHKu2HlXfjNXQgqprRB0GUe3ue+7h2W1Pc935J6EVmEoZGCponiMKlBy4COKzkAkpim+Err48qaExnCIX5HZR3Hpt+6LsXNTBeQUYAG9fvXDffdt6P6uUNANvLUbP0hmPjt4ci1vi2Hb5zcmorbEsRdb1hjuUixNDlIUSryJBPQlvydNaG9j6q+e5+Stf4ZRTTqGpqenQniuaQLcloO24kn6vnc/v5F++8Q2UV2BZY02FaWQqDE4H++NYQUmAPUt0dWOErr4cybG9XozAfT783ab2lq65qn/zsoFDXTLyHKhPA9tH/rx/0KWzL4dvZFbU1bGCYGhMB2ascaJg6YoSK7WC01vqiEYd7v3pT7nttttwXbdi3yedTnPzl7/MM9ue4Zj6BMfWxipnXQBYQcNmpRRxW1MbsWcNLESCcvW+gXGye8JjwGc3tbe+PJd1b14CxvlvrRMvEXnUiPwNMKrjUDJVoKs3V4Yp7RMsoFIkIja1jo0VjSG6sl23BFjZVMuiujiZTJZ/+spX+P7tt+P7s1+Mlsvl+OrXvsYP7rgDgJMW1NISj1Qw4CmIstDRGLWOPSvBzdFgUaC7vzAOYMp2H/nEJe0tT8513Zu3LaI2nVwn2qj7ROSzhE13igrTmyrQ1ZfDzBJoKILoejyRCIN/lbtCjcBxdTFWNteCZdHT08OnPvMZtmzZMqugkc/nueXWW7np5pvJZLJYWtPeVkfMtiq3OgJYmmi8piyjACYGi6BFQ3cyP96Z3I3wqWxmdsYEHLWAAXDxmS2uyak7ReTzQOfBG1R0T2ZtMZ0oynYq6pKICA1Rh3MWL8C2FJbW7N27l7/82Me45dZbGQpp4+WUnp4evvC3f8vnPv95+vv7QVksiDmsbWuo/KgnW6MisVkDdZGgoXVn37jM5D2CfHLI4yfXnLfMVAFjFuSyN7QUHNHfM2L+Aeg9GDS6ZjGmIdoJG9hU1iXRCs49ponmeBQRQWtNR0cHf/2pT/FXH/84L+7aVTbleOqpp/jghz/EP950EwOpFFprjAgnN9VyclNthRuCCWgnqCWR2QCL4hkc17J4XUQ+74v60dVntXrzRd+OiK61b1vblPF99xuIfHE80OjszeH6Uv7DaDswBzpe+SKc3lpHe1v9sL+stSaVSnHLN77Bu6+/nm9+61t0dHSUDCh27drFP3zxi7zr3e/mji13UnBdLMsKAUzxxuOaaEtEKsa/OICmDtjlr/kxIvQkcxNZFvsFPpO1/H/btKalMJ90zeYIkbevOzazdVvnLYilUOr/AE1F0OhLFTAGFjXHcGxVNnVW2gYnUvG1EIHGqM1FJ7Tx0Ks9GAksLCvMBjzxu9+xc+dOttx5J1dd+Q4uvOBCli5dSjQaPSyQSKfTPP/882zdupW7f/ITduzYQcF10SMCvyJCSyLKW5a04Fhq1oLRE35vJ4JMQTKbaTzLN0Hz6p6BwniWRYdR8ne2rzZftXZRbr7p2REDGAAb1yxMb93W8c+IFpT6KNBSVKBkOmhKsqg5RrQc5K7i7eVE50wj3guWNHNKUy3PdafQIzoC2bZNJpvlvx54gF8++ijLli7l7LPP5pz161m5ciWLFy2ivqGBeCyG4zj4vk8+nyeTydDX18ere/fy7LPP8vgTT/DM9u10dnbi+z5a61FgUbxpz1rcyNq2+oNnglbGxLAjZQ1Mu57QlcwFhZFjP2If8Dnlqe9tOLMlOx917IgCjAA0Fg399Onuf1HgKsVfAW3F3w0MuvhGWNwcI14GGrloXfES92FFNcKyhgSXnriQ53vT4byvEb6oZWFZFp7n8YcXX+SFF15gy5130tDQQHNTEwsWLKCmpoZoNIrneWSyWdKpFH3JJP3JJEOZDMaY4fcZj4IuAgnH5vKTFtEQtStuXSAErfm0U/K9V0DBNXT05RhIu+O9/15Qn8t7/uYr1rXl5qt+HXGAAXDp2tbBu5/uu8VRJqvgE8AwdTGd8fD9LIuaY9Qm7NKeRktDCSdqzVg3LMVVKxZz964Onu9Jj9vlWikVWAVaY4yhr6+Pnp6e8a0kpVDhqwgUU8VS1h+zgAuWtMwRo0sCl1GXnlyXyXtBbUhm3PjlLhE+5Wr971esay7MZ906Ykd1Xb62Kef76juC/F+B3SNvgmzeZ19XNhhuW8qDY+mKt+kbpbBGWNlUw7Urj8XWU7thRSCwbRvbcca+bBut9ZRAUXRF6qM21512HAtronPAHQkhIxIr+TiIdMbjta4s6fHBYoeIfMzCu+vyVY2F+a5XR/Rsv01nNufySm4X5H8DT4/8Xd41vN6TpTuZw/dLkHYNZ3ZS4RL3MRusFH+88hjOOWbBrHJSjMBFy9u45IQ25sycFKWC/bH0jL+TIgjo9g0U2NeVJZsf0zLSAL9G1AcHsukfX7xmkXsk6NQRPwz0Havb/JyfudeDDwMPhxuJUgf6KO7vyZF3Z9ojNJi5EZROz53n90U4vi7GjWuX0TpLN71vhBMW1PC+NctojNqYuTRXabjb1sxwx/UNnX159vfmxusv6wH3ieLDr9tNv3jnuSeYI0WfjorpwVedudTf1N7yiMAHBO4C8sNqHmZQ9nZmJjIpD+8kRWNhp6m5oyUiwsblbfyPVUtwrPJSs40IdVGb/7XuBM5e1DCrVs0huyRqZjGMTDZwabv7A0LWwf0sUHwP4UOXrG554r1nqCNqDN1RNW78kvaWHQVRfwncAgyM2uWsz2tdWXrHPwSHbKhKJASMOXRMBIhYij9vX8LbT16EhBPsSw9MoJXFe1Yt4Y9XHoNSc2xoowr3x1KHDegqfL6BdIHXujIMDHnjvUUP8E8Foz6xcc3caq1XBYxpyhVrml8T8T6Nkr9hRI9QpYIuSPt787zenQ3G1E3DsQ0O5NxbVl+EhYkof33eCt62vA1TYtAwApaleOdpx/KRs06g1tFzbC60DDcCOtxjH4zrNHT2ZtnXnSNbGNd9fR5RHyt43t9fvqa540jVn6MOMAAuWbNowBG5FVEfBn47HNcIzfdk2mVvZ5b+wSCLog7naM1RwCiCxomNCT73ppVctLwNCV2IUryvYynefdpxfPK8FbTEI3MmKzLKzFJWaAEeOlBAMI3stc4s3f2F8eqSfFAPWUZ9IBu1N1++blHmSNadoxIwAC5sbyvs7HLuFuHPgNuBwVF+ai7wU/f3Zg8rIKqm6EhdafGMcGpTLTe99XSuP/14YraetnJL+H5tiSh/cc5JfPr8U1hcE61svcikpz0EjEPYTQW4nqGrL8ferizp7LjxrQHgXwV144a1zQ9ceWqDe6Trjc1RLB/ZUC/As1u3JT+KMr8HcyOo44suim+E3v4C2ZxPS2OU+hoby1ITm9oiAQ9DF9N2ak4+ty/C0vo4nz3/FE5vqeNbz+zhxeRgEIOw1JTf2ohgRIjamvOObeKXPt2iAAAE/klEQVR/rl3GhmWtRLQ19yyLgwBjqrS3Ct2rwXD4dzobxCrU2D/chfA1jLX5krVNyaNFZ45qwCjKxjULOn7yeP9NOsZ2JfwFyPnAcIXSUM4n15WlsdahuSFCLDqJBeHEwJr7y+qLsCDm8L41Szj/uCa27Hydn7/Sxcv9GfKePxzXGYGFgc4paIxFOKO1jstPXszbT1zI4troMIjMbXtaB/szwfcszjftSxVIpgq44/NzcsADiPpHLerRi9Y2eUeTrlQBI5RN6xsLwL33bev6g8J6P4p3A63Dt44R+lIFhnIezQ0RGmsj2PbB1kZoYZSxGrKUUlTwVS11nPLGFVx3+nE8vj/Jk/v72ZUcIpkrkPMNtqWodWyOrY1xWksdZy1upL2tnoWJgNU611KnEzlQMkzdPwgoFPi+BBPIBgpkcv6oGMYIeV3g26LkW5eubnnlaNQTVYWKsXLfM921lqhLjOJDCtaPtDYkvGVrYjYtjRFq46GbAqAsrP4Oops/j+raGzIK589B0OFzFHzDYMFnyPXJh4CRsDU1jibuaOxwTIAv84hiIAapb6Jw3cfxj10RTGsL3Y9MzqN3oBDWGcl4Hkse+KVS8lVViNy/4ayG3NGqG1ULYxy5pL118Et3PP7vZ5y6fIeg/lTBu4DFRcUSCeoHsgWf+hqb5voI8agd8LV00G9hviFxMYAJYCtFY8xmQezAcwgSDj0T3PlKRQrbDxRZGLmCT1/KZWDQHWZrjgMWrwpsFpFvX9re+tLRrhtVwJhAPvrO9QLs/OH2zk/GtfOw5ZsbEd4MJEaasX0DLoMZn4ZamwX1UeL23GiiM1PwQAKQOGJEgo5o4kTIFzwGUnmSaZe8ayYKT6eBBwS+rhWPbmhvzVW1ogoYU8rVqxdmgbvvfa73acuV61D8dwWnEKaklQrSbz39BdIZn8aIx2IrQrS6dHNOfGXTkzb0pTNkc95Efrkv8KwSvqkUP9rY3rK/unIHxKouwaHJZac37y3ATSDXo7hV4PWD/yZX8OlO+WQ8J6CCSXXd5kyMRiBnbDpTMhzUHEdeAW5WcIMv5paLq2BRtTBmIlesafGAp+7d3v2ihXUvyHuBC4HG4fiGsvB1FAzB/E5VheVK+1diAB98HUUsPZ770QNs9ZV8B6V+fdmq+dk+rwoYc9XaWN2aBn5677be3yplNlio9wDnAfWiLPxi6k7ClH9YxlDNSc0uUAyDRdHXsKMhC3fY9EsK/MLAZpQ8eNnq1oHqwlUBo3zAsaa5F/jBvc90P6JFXYxS1wusN06sZhQ4CIgfAEYVOGYBK8wBwBgVnLCjQZOjgNL9K1Hcrnx1/2Vrm7uqq1YFjNkDjvbWfcC3t27r+ZnYzsU6P/h+Uda6cc3jKnCUT8wBi24CSYmlf6GELWLMf12ytrUKFIcp1SNbYnnm+jc5x7a1fcUS78Yp/9gKYxzVXShNnGKKIHMhUv+7fSs3XL/uT254obpo05NqOK7EssiuX07ePfeQb0RDNaMyE6DwQ6vtENbPSQ8cf/wvNi+vLlwVMOaGdfHfzrbQ+m0iasUhWw3h7Vh8VeUw1uwQgeLA/6ZaxYld2f3eTbXVRawCRsVlYe3CxSjegQRs0MNVAopKUAWOqYHicNcoAHBLoTb4Yq2pLmYVMCoutqX/SKHWD3ON1cyUQqquyljXYzpgWgwyB7JEWeqal264sErGnYb8fxrIniI6C20CAAAAAElFTkSuQmCC;" vertex="1" parent="eBVV9pK7qPTeHkyAM80o-19">
          <mxGeometry x="8" width="134" height="134" as="geometry" />
        </mxCell>
      </root>
    </mxGraphModel>
  </diagram>
</mxfile>
